{"glyphs":{"0":{"ha":646,"x_min":0,"x_max":0,"o":"m 602 747 b 592 791 600 762 597 777 b 568 837 587 807 579 823 b 546 857 562 845 555 851 b 515 870 537 863 526 868 l 489 877 b 454 884 478 881 466 883 b 434 885 448 884 441 885 b 414 883 428 884 421 884 b 336 865 387 881 361 875 b 198 783 289 848 242 821 b 141 728 178 766 159 747 b 92 667 124 709 107 688 b 69 635 85 658 77 647 b 48 603 61 623 54 612 b 28 569 40 589 34 579 b 25 563 27 567 26 565 b 19 552 23 560 21 556 b 10 534 16 546 13 540 b -40 385 -13 487 -30 436 b -58 229 -51 334 -57 282 b -57 190 -58 215 -57 203 b -53 150 -56 175 -55 162 b -45 110 -51 137 -49 124 b -31 70 -42 97 -37 83 b -4 33 -24 56 -15 44 b 16 19 2 27 9 23 b 27 14 20 17 24 15 b 39 10 31 12 35 11 b 121 4 66 3 94 1 b 200 26 148 8 175 15 b 271 64 225 36 248 49 b 391 168 315 93 355 128 b 482 295 426 207 456 250 b 517 365 494 317 506 340 b 546 436 528 388 537 412 b 591 584 565 484 580 534 b 602 663 596 611 600 637 b 604 704 604 679 604 692 b 602 747 604 719 603 733 z m 441 851 b 424 838 435 847 429 843 b 396 808 413 829 404 819 b 356 741 380 787 367 765 l 326 674 l 369 734 b 446 808 386 758 414 790 b 524 806 477 826 517 815 b 525 804 524 805 525 805 b 437 417 571 749 503 563 b 229 113 360 247 281 158 b 143 60 189 79 158 65 l 143 60 l 133 57 b 114 52 127 55 121 54 b 51 55 93 49 72 50 b 45 57 49 56 47 57 b 39 60 43 58 41 59 b 30 68 36 62 33 65 b 16 91 24 74 19 82 b 8 121 12 101 10 111 b 7 154 7 132 6 143 b 8 177 7 161 7 169 l 8 177 b 67 441 10 204 36 366 b 290 772 96 509 156 653 b 453 859 351 828 409 850 b 441 851 449 856 445 854 z "},"1":{"ha":351,"x_min":0,"x_max":0,"o":"m 396 888 b 378 883 390 886 384 884 b 373 883 376 882 374 883 b 356 880 369 885 362 887 l 44 556 l 44 555 b 45 538 39 550 40 542 b 62 537 49 533 57 532 l 63 537 l 224 697 b -75 121 55 407 -32 224 b -114 -6 -110 37 -113 -5 l -116 -35 l -100 -11 b -57 11 -99 -10 -88 6 b -30 12 -48 12 -39 13 b -3 37 -13 12 -11 16 b 19 84 2 47 8 62 b 137 328 24 95 67 184 b 386 839 241 542 385 838 b 405 877 386 841 403 874 l 414 894 z "},"2":{"ha":614,"x_min":0,"x_max":0,"o":"m 524 819 b 495 849 516 830 506 840 b 424 883 474 866 450 877 b 416 885 422 884 419 885 l 415 885 b 406 887 412 886 408 886 l 401 887 b 398 887 400 887 399 887 l 395 888 b 384 888 391 888 388 888 b 378 888 382 888 380 888 l 370 888 b 351 886 363 888 357 887 b 282 858 326 882 302 872 b 228 806 261 844 243 826 b 207 774 220 796 213 785 b 192 738 201 762 196 750 b 182 699 187 725 184 712 b 180 658 180 685 179 672 b 187 617 181 644 183 631 b 202 580 190 604 195 592 b 251 522 215 557 231 538 b 278 522 259 515 270 515 b 286 541 283 527 286 533 b 277 560 286 548 283 555 l 277 560 b 239 604 262 572 249 587 b 224 660 230 621 224 641 b 226 691 223 671 224 681 b 234 720 228 701 230 711 b 264 773 241 739 251 757 b 284 795 270 781 277 788 b 307 812 291 801 299 807 b 357 829 322 821 339 827 b 369 829 361 829 365 830 l 376 829 b 380 828 378 829 379 828 b 383 828 381 828 382 828 b 388 827 385 828 386 827 l 390 827 b 396 825 392 826 394 826 l 396 825 b 402 823 398 824 400 824 l 403 823 b 408 821 405 822 407 822 l 408 821 b 450 791 424 814 439 804 b 474 745 461 778 469 762 b 480 720 477 737 479 728 b 481 707 481 715 481 711 b 481 694 481 702 481 698 b 469 641 480 676 476 658 b 445 589 463 623 455 605 b 368 500 426 559 401 530 b 322 462 356 489 341 477 b 273 426 305 448 286 435 l 245 408 b 217 388 237 402 227 395 b 190 367 207 380 198 373 b 163 345 181 360 172 352 b 61 251 131 318 99 289 b 54 244 59 249 56 247 b 36 226 48 239 42 232 l 24 214 b 12 201 20 209 16 205 b -35 148 -6 181 -21 164 b -50 129 -40 142 -45 136 b -58 119 -53 126 -55 122 b -125 16 -88 81 -123 18 l -134 -1 l -115 5 b -2 37 -115 5 -44 29 b 141 43 45 46 93 48 b 192 31 158 41 175 37 l 195 30 l 199 28 b 207 25 202 27 205 26 b 224 19 213 23 219 21 b 260 10 236 15 248 12 b 333 8 284 5 309 5 b 405 32 358 11 383 19 b 461 87 428 46 447 65 b 478 125 468 99 474 112 b 481 167 482 138 483 153 b 468 179 481 174 475 179 l 467 178 b 456 167 461 178 457 173 l 456 167 b 452 153 455 162 454 158 b 446 140 450 149 448 144 b 428 118 441 132 435 124 b 382 91 415 105 399 96 b 330 84 365 85 348 83 b 304 88 321 85 313 86 b 278 96 295 90 286 93 b 252 106 269 99 261 102 b 239 113 248 108 244 110 b 233 116 237 114 235 115 l 226 120 l 226 120 b 179 134 211 128 195 133 b 150 136 167 135 152 136 b -19 86 95 137 25 108 b 316 353 41 149 178 282 b 481 499 378 385 447 452 b 527 577 498 523 514 550 b 558 696 546 614 556 655 b 559 702 558 698 559 700 l 559 702 b 524 819 559 716 554 778 z "},"3":{"ha":521,"x_min":0,"x_max":0,"o":"m 573 832 b 569 844 572 836 571 840 l 565 850 l 559 848 b 518 838 546 842 532 839 b 440 855 495 837 469 845 b 352 877 415 863 386 872 l 351 877 b 257 872 311 881 279 879 b 228 861 246 868 237 864 b 171 847 207 852 191 846 l 170 847 l 169 846 b 156 846 165 846 160 846 b 140 850 150 847 145 848 b 123 858 134 852 128 855 b 107 855 118 861 111 860 b 106 839 102 851 102 844 b 120 821 110 833 115 827 b 138 804 125 815 132 809 b 188 784 150 795 167 789 b 213 779 195 783 204 781 b 238 778 221 778 230 778 b 279 781 251 779 265 780 b 291 783 283 782 287 783 b 297 784 293 783 295 784 b 316 787 304 785 310 786 l 316 787 b 318 788 317 787 317 787 b 320 788 318 788 319 788 b 324 788 321 788 322 788 b 341 790 329 789 335 789 b 415 784 365 791 390 789 b 430 780 420 782 425 781 b 434 779 431 779 433 779 l 369 710 b 275 612 338 677 306 644 b 227 565 258 595 243 580 b 217 555 224 561 220 558 l 215 553 l 198 535 b 137 509 182 539 154 536 b 129 465 125 490 126 475 b 144 445 132 455 139 447 l 144 444 b 193 448 151 441 169 432 b 228 471 208 458 222 467 b 265 458 241 468 253 464 b 288 443 273 454 281 449 b 304 426 294 439 299 433 b 309 419 306 424 307 421 b 310 416 309 418 309 417 b 311 410 310 414 311 412 b 318 386 315 402 317 394 b 318 335 321 369 321 352 b 304 283 315 318 310 300 b 295 257 301 273 298 265 b 283 231 291 248 287 239 b 252 182 274 214 263 198 b 213 138 240 167 227 152 b 167 103 199 125 184 113 b 116 81 151 93 134 86 b 102 79 112 80 108 79 b 98 78 101 78 99 78 b 95 78 97 78 96 78 l 94 77 b 88 77 92 77 90 77 l 88 77 b 58 75 78 76 68 75 b 6 86 37 75 20 79 b -30 120 -10 93 -22 105 b -45 175 -38 135 -43 153 b -42 239 -46 197 -45 218 b -28 303 -39 261 -35 282 l -28 303 b -29 314 -27 307 -28 311 b -38 320 -31 317 -34 319 b -53 313 -44 321 -50 318 b -66 280 -57 303 -61 292 b -77 246 -70 269 -74 258 b -89 175 -83 223 -87 199 b -79 98 -90 146 -87 121 b -58 61 -74 84 -67 72 b -26 31 -49 49 -38 39 b 12 13 -14 24 -1 17 l 13 13 b 24 10 16 12 20 11 b 188 26 79 -1 136 4 b 278 84 224 41 254 61 b 390 258 323 128 365 193 b 382 444 415 324 412 383 b 279 519 356 496 305 513 b 325 563 293 532 316 553 b 421 661 358 595 390 629 l 491 735 l 514 759 b 529 773 519 764 524 769 l 530 774 l 571 814 l 572 817 b 573 821 572 818 572 820 b 573 832 573 825 573 828 z "},"4":{"ha":585,"x_min":0,"x_max":0,"o":"m 637 880 b 620 875 631 878 626 876 b 615 876 618 875 617 875 l 615 876 b 550 860 592 883 567 877 l 317 624 b 57 362 230 536 143 448 l -9 297 l -24 282 b -55 271 -35 279 -45 276 b -67 265 -59 269 -63 267 b -80 253 -72 261 -76 257 l -82 249 b -84 246 -83 248 -83 247 b -88 238 -85 244 -87 241 b -89 230 -89 235 -89 233 b -87 222 -89 227 -88 224 b -81 214 -86 219 -84 216 b -71 210 -78 212 -75 211 b -66 209 -69 210 -68 210 b -61 209 -64 209 -63 209 l -57 209 l -57 209 l -57 209 b -56 209 -56 209 -56 209 l -56 209 b -55 209 -55 209 -55 209 l -54 209 b -52 210 -53 210 -53 210 l -49 210 l -49 211 l -49 211 b -47 212 -48 211 -47 212 b -46 213 -46 212 -46 213 l -44 214 b -34 222 -40 217 -37 220 l -34 222 b -16 238 -28 227 -23 232 b 4 256 -9 244 -3 250 b 43 262 17 259 30 261 b 65 263 50 263 58 263 b 87 263 72 263 80 263 b 109 260 94 262 102 261 b 130 257 116 259 123 258 l 164 251 l 175 249 b 221 244 190 247 205 245 b 228 243 224 244 226 244 b 178 131 209 203 193 166 b 140 8 144 49 140 9 l 138 -22 l 154 3 b 196 24 154 3 165 19 b 222 26 204 25 213 26 b 249 50 238 25 240 30 b 270 96 253 60 259 74 b 339 239 274 104 301 161 b 364 242 349 240 357 241 b 414 255 380 244 397 247 b 420 258 416 256 418 257 b 453 313 442 269 466 304 b 448 312 452 314 450 313 b 445 308 447 311 446 309 l 439 299 b 425 285 436 294 431 289 b 406 277 419 282 413 279 b 363 271 392 273 377 271 b 355 271 360 271 357 271 l 385 334 b 627 832 491 551 627 831 b 646 869 628 834 645 867 l 656 886 z m 246 280 l 180 288 b 87 295 149 292 118 294 b 44 293 72 295 58 294 b 86 332 58 306 72 319 b 353 588 175 416 265 502 l 478 707 b 246 280 384 546 306 403 z "},"5":{"ha":590,"x_min":0,"x_max":0,"o":"m 627 857 l 623 861 l 618 858 b 574 844 594 845 581 843 b 498 861 546 846 523 853 b 412 879 473 868 446 877 b 270 850 353 885 285 857 l 268 851 l 259 846 l 259 843 l 258 839 b 251 829 255 836 253 832 l 245 817 b 134 618 242 812 175 691 b 100 558 115 584 101 559 l 58 481 l 57 480 b 57 474 57 478 57 476 l 59 464 l 68 469 b 77 473 72 470 75 472 l 78 474 b 209 531 136 514 181 534 b 307 480 252 528 286 510 b 320 323 333 442 338 385 l 320 323 b 316 308 319 317 318 313 b 303 269 312 295 308 281 b 286 231 298 256 293 243 b 264 193 279 218 272 205 l 264 193 b 70 64 225 126 160 50 b -19 106 33 69 4 84 l -19 106 b -42 135 -28 114 -36 124 b -42 137 -42 136 -42 136 l -43 138 b -42 323 -70 188 -69 255 l -38 332 l -48 334 b -62 326 -53 335 -59 331 b -72 302 -65 319 -69 312 b -82 278 -76 294 -79 286 b -95 227 -87 261 -92 244 b -100 172 -99 209 -100 191 b -91 115 -100 153 -97 134 b -60 62 -84 96 -74 78 b -11 25 -46 47 -29 34 b 16 13 -2 20 7 16 b 22 11 18 12 20 12 l 23 11 b 94 0 49 4 72 0 b 116 2 101 0 109 1 b 161 8 129 4 144 6 l 162 8 b 244 48 197 19 225 32 l 247 50 b 416 289 287 81 380 154 b 353 532 438 372 411 476 b 197 574 299 583 230 580 l 200 579 l 228 627 b 268 699 241 651 255 675 l 276 715 l 301 759 b 311 778 304 766 308 772 l 315 787 b 381 788 339 788 361 788 b 398 786 387 787 393 787 b 402 786 400 786 401 786 b 405 785 403 785 404 785 b 406 785 405 785 406 785 l 407 785 b 427 782 413 783 420 782 b 433 781 429 781 431 781 b 446 779 437 780 442 779 b 490 775 461 777 475 776 b 515 777 498 775 507 776 b 542 782 523 778 531 779 b 594 803 564 787 581 794 b 614 820 601 808 608 814 b 629 839 619 826 624 833 b 627 857 632 845 632 852 z "},"6":{"ha":596,"x_min":0,"x_max":0,"o":"m 558 719 l 557 729 b 556 740 557 733 557 736 b 553 760 555 746 554 753 b 542 800 550 773 547 787 b 521 839 537 814 530 827 b 484 869 511 852 498 862 b 441 880 470 875 456 879 b 399 878 427 881 413 880 b 361 870 387 876 374 874 b 353 868 359 870 356 869 l 352 868 b 343 865 349 867 346 866 b 339 864 341 865 340 864 b 333 862 337 863 335 863 l 324 859 b 316 856 321 858 319 857 l 315 855 b 312 854 314 855 313 854 b 306 851 310 853 308 852 b 302 849 304 850 303 850 b 288 843 297 847 292 845 b 254 823 276 837 265 830 b 193 776 232 809 212 793 b 93 663 155 742 122 704 b 16 537 64 623 38 581 b 0 504 10 526 5 515 l -4 496 l -8 487 b -15 470 -10 481 -12 476 l -15 469 b -22 451 -17 464 -19 458 b -27 435 -24 446 -25 441 l -28 433 b -33 415 -30 428 -31 422 b -38 397 -35 409 -37 403 b -60 247 -51 348 -58 298 b -58 171 -61 222 -60 196 b -42 94 -55 145 -50 119 b -24 55 -38 80 -32 67 b 8 21 -16 42 -5 30 b 19 15 11 19 15 17 b 28 11 22 13 26 12 b 89 -1 48 3 69 -1 b 168 15 117 -1 143 5 b 237 53 193 25 216 37 b 348 161 280 83 317 119 b 389 225 363 181 377 203 b 420 295 402 248 412 271 b 440 372 429 320 435 346 b 444 456 445 400 447 428 b 435 503 443 472 440 488 b 411 549 430 519 422 535 b 369 585 400 564 385 577 b 356 591 365 588 361 590 b 350 594 354 592 352 593 l 345 596 b 300 604 330 600 315 603 b 277 604 292 605 284 605 b 234 597 262 604 248 601 b 161 565 208 590 185 578 b 110 527 144 555 125 540 b 215 692 128 566 163 634 b 413 841 338 831 384 837 l 415 841 b 480 809 453 846 479 809 b 488 785 484 802 487 794 b 489 757 490 776 490 766 l 489 757 b 486 747 488 754 487 750 l 482 734 b 491 694 477 720 481 705 b 532 684 502 683 517 680 b 558 716 546 689 556 701 l 558 717 b 558 719 558 718 558 718 z m 95 481 b 106 489 98 484 102 486 b 234 545 122 502 178 545 b 238 544 235 545 236 544 b 300 528 265 543 286 538 l 301 528 b 332 325 332 510 378 459 b 130 52 270 142 177 62 b 102 48 121 50 111 49 l 102 48 b 90 48 98 48 94 48 b 82 48 87 48 85 48 l 81 48 b 53 53 72 49 62 50 l 53 53 b 38 334 34 58 -22 93 b 95 481 68 457 91 478 z "},"7":{"ha":488,"x_min":0,"x_max":0,"o":"m 575 835 b 560 858 574 844 568 853 b 553 860 558 859 556 860 b 549 861 552 861 551 861 b 546 862 548 862 547 862 b 544 862 546 862 545 862 l 543 862 b 539 862 541 862 540 862 b 534 861 537 861 535 861 l 525 859 b 515 858 521 859 518 858 b 470 854 500 855 485 854 b 426 859 455 855 441 856 b 383 867 413 861 399 863 l 370 870 l 370 870 b 164 858 317 878 221 888 b 62 741 118 835 80 775 l 60 737 l 62 734 b 65 730 62 732 64 731 l 65 729 b 81 730 70 726 77 727 b 159 774 105 749 131 764 b 168 778 162 776 166 777 l 169 778 b 178 781 172 779 175 780 b 198 785 186 782 192 784 b 237 788 211 787 224 788 b 275 784 250 787 263 786 l 277 784 b 305 782 285 783 295 783 b 476 793 379 775 439 784 l 423 752 l 423 752 b 405 738 416 747 411 742 b 371 711 394 729 382 720 b 329 678 357 701 343 690 b 263 620 307 659 284 639 l 255 613 b 183 544 231 590 206 568 b 147 507 172 533 160 521 l 145 504 b 131 487 140 498 135 493 b 115 468 126 482 120 475 b 54 388 92 439 72 413 b -51 219 16 334 -19 277 b -73 175 -58 205 -66 190 b -95 130 -81 159 -88 145 b -131 35 -97 126 -122 79 b -120 7 -133 24 -129 13 l -118 6 l -114 5 l -111 6 b -107 12 -109 8 -108 10 b -78 42 -105 22 -95 33 b -52 52 -71 46 -62 49 b -30 59 -45 54 -38 56 l -28 60 l -26 62 b 227 459 5 126 129 337 b 527 767 351 615 475 722 b 557 795 547 784 555 791 l 557 795 b 560 799 558 796 559 798 b 565 805 562 801 563 803 l 570 813 l 570 814 b 571 816 571 814 571 815 b 573 819 572 817 573 818 b 575 824 574 821 574 823 b 575 835 575 828 576 831 z "},"8":{"ha":524,"x_min":0,"x_max":0,"o":"m 497 752 b 392 877 489 808 454 850 l 392 877 l 390 878 b 385 879 388 878 387 878 l 384 879 b 374 880 381 879 378 880 b 363 881 370 881 366 881 b 341 881 356 882 348 882 b 299 876 327 881 313 879 b 259 865 285 873 272 869 l 256 864 b 128 684 211 844 149 804 b 156 530 118 630 146 555 b 143 527 149 528 145 527 b 114 521 133 525 124 523 b 39 492 88 514 63 504 b -30 443 14 479 -10 462 b -84 373 -52 423 -70 399 b -102 331 -91 360 -97 346 l -102 330 b -105 321 -103 327 -104 324 l -105 320 b -108 311 -106 317 -107 314 b -112 290 -109 304 -111 298 b -117 205 -118 262 -119 234 b -93 120 -114 176 -106 147 b -38 49 -80 92 -61 68 b 0 26 -26 40 -13 32 b 41 12 13 20 27 15 b 124 9 69 6 97 5 b 204 32 152 13 178 20 b 222 41 210 34 216 38 b 241 51 229 44 235 48 b 275 77 253 59 264 67 b 305 108 286 86 296 97 b 330 144 315 119 323 132 b 349 185 338 157 344 171 b 356 208 352 192 354 200 b 360 233 358 216 359 224 b 360 280 362 248 362 264 b 353 323 358 294 356 308 b 348 343 351 330 350 336 b 342 363 346 350 344 357 b 328 401 338 375 334 387 b 289 490 316 433 301 465 l 292 490 l 294 490 l 295 491 b 417 555 311 495 368 514 b 497 752 480 606 507 674 z m 119 46 b 11 76 71 42 35 52 b -22 230 -18 106 -29 158 b 4 326 -18 263 -10 296 l 4 327 b 5 330 5 328 5 329 b 36 383 13 349 24 366 b 47 397 39 387 43 392 b 133 474 72 427 101 453 l 134 475 b 135 475 135 475 135 475 b 176 496 140 479 160 489 b 255 322 203 441 249 343 l 255 322 b 253 151 263 293 286 206 b 119 46 231 113 174 51 z m 227 701 b 228 706 227 703 228 705 b 238 732 231 715 234 723 b 252 757 242 741 247 749 b 290 805 264 778 276 793 b 316 823 298 812 307 818 l 316 823 b 350 832 322 826 335 832 b 380 824 361 832 371 829 b 421 699 425 798 424 728 b 347 556 415 643 380 587 b 273 524 326 538 301 527 b 272 526 273 524 273 525 b 265 540 270 530 268 535 b 227 701 207 638 220 681 z "},"9":{"ha":599,"x_min":0,"x_max":0,"o":"m 525 704 b 513 782 524 731 520 757 b 497 822 509 796 504 809 b 467 857 490 836 480 848 b 457 864 464 860 461 862 b 448 868 454 866 451 867 b 429 876 442 871 436 874 b 390 883 416 880 403 882 b 313 869 363 883 337 879 b 245 834 289 860 266 848 b 134 728 203 804 166 769 b 92 665 119 708 105 687 b 60 595 80 643 69 619 b 38 519 51 570 43 545 b 31 434 32 491 30 462 b 38 387 32 418 34 402 b 59 339 42 370 50 354 b 99 301 69 324 83 311 b 110 295 102 299 106 297 b 116 292 112 294 114 293 l 121 290 b 143 283 128 287 136 285 b 165 280 150 282 157 280 b 187 279 172 279 179 278 b 228 284 201 279 215 281 b 300 315 254 291 276 302 b 350 350 316 324 335 338 b 243 188 331 311 295 244 b 46 45 119 52 75 48 l 45 45 b -16 79 8 41 -16 79 b -23 103 -20 87 -22 95 b -22 132 -24 113 -24 123 b -22 133 -22 133 -22 133 b -21 137 -22 135 -22 136 l -15 156 b -19 190 -11 167 -12 180 b -43 208 -24 199 -33 205 l -43 208 b -73 201 -54 210 -64 207 b -89 176 -81 195 -87 186 l -89 175 b -89 173 -89 174 -89 174 l -88 163 b -87 152 -88 159 -88 156 b -85 132 -87 146 -86 139 b -76 91 -83 118 -80 104 b -57 51 -72 77 -66 63 b -23 20 -48 38 -36 27 b 19 7 -10 13 4 8 b 59 7 32 5 45 5 b 96 13 71 8 83 10 b 103 15 98 14 101 15 l 105 15 b 114 18 108 16 111 17 b 117 19 115 18 116 19 b 123 21 119 20 121 20 l 132 24 b 140 27 135 25 138 26 l 141 27 b 144 28 142 28 143 28 b 150 31 146 29 148 30 b 154 33 151 32 153 32 b 167 39 158 35 163 37 b 201 57 179 45 190 51 b 262 103 222 71 243 86 b 362 213 299 136 333 173 b 441 338 391 253 418 294 b 457 370 447 348 452 359 l 465 387 b 472 402 468 392 470 397 l 473 405 b 480 423 475 411 478 417 b 486 438 482 428 484 433 l 486 441 b 493 459 489 447 491 453 b 498 477 495 465 496 471 b 524 627 512 526 521 576 b 525 704 526 653 526 678 z m 167 356 l 167 356 b 144 563 137 376 95 429 b 349 831 211 745 303 823 b 376 833 358 832 367 833 l 376 834 b 383 834 378 834 381 834 b 387 834 384 834 386 834 b 395 833 390 834 392 833 l 396 833 b 422 827 405 832 414 830 l 423 827 b 427 544 440 821 492 784 l 426 542 b 366 396 393 420 370 399 b 355 388 362 393 359 391 b 227 338 339 375 281 334 b 167 356 200 340 180 346 z "},"\u0000":{"ha":0,"x_min":0,"x_max":0,"o":""},"\n":{"ha":0,"x_min":0,"x_max":0,"o":""},"\r":{"ha":0,"x_min":0,"x_max":0,"o":""}," ":{"ha":340,"x_min":0,"x_max":0,"o":""},"!":{"ha":553,"x_min":0,"x_max":0,"o":"m 165 88 b 162 103 165 93 164 98 b 145 131 159 114 153 123 b 116 145 137 139 127 144 b 90 142 107 147 98 145 b 55 113 75 136 63 126 b 47 89 50 106 48 98 b 49 67 46 82 47 74 b 56 50 51 61 53 55 b 57 48 57 49 57 48 l 58 47 b 69 33 60 41 64 37 b 79 28 72 31 75 29 b 83 26 80 27 82 27 b 86 26 84 26 85 26 b 87 26 86 26 86 26 b 88 24 87 25 88 25 b 90 22 89 24 89 23 b 90 21 90 22 90 22 l 91 20 b 93 17 91 19 92 18 b 119 4 99 9 109 4 b 122 5 120 4 121 5 l 122 5 b 152 26 135 6 146 14 b 156 34 154 28 155 31 l 156 36 b 158 39 157 37 157 38 b 161 49 159 42 160 46 b 166 72 164 57 165 64 b 165 87 166 77 166 82 z m 623 1024 b 578 1017 608 1035 588 1031 l 577 1017 b 516 924 556 986 535 954 b 459 830 496 892 477 860 b 434 788 450 816 442 802 b 403 737 424 771 413 754 l 389 714 l 374 690 b 345 643 365 675 355 659 b 235 448 312 587 272 520 l 233 444 b 223 422 230 437 226 430 l 211 397 l 211 396 b 207 388 210 394 208 391 b 199 370 205 382 202 376 b 194 356 198 365 196 361 l 191 349 l 189 343 b 158 232 176 307 165 269 b 174 203 156 219 163 207 b 183 202 177 202 180 202 b 205 215 192 202 201 207 l 210 224 b 258 310 226 254 241 282 b 316 401 275 339 294 368 b 346 446 326 416 336 431 b 439 584 377 491 409 537 b 469 631 449 599 459 615 l 477 642 l 499 679 b 553 779 519 711 537 745 b 599 882 570 812 585 847 b 635 990 613 917 625 953 l 635 990 b 623 1024 638 1003 634 1016 z "},"\"":{"ha":460,"x_min":0,"x_max":0,"o":"m 310 1012 b 267 1017 297 1022 281 1024 b 258 1011 264 1015 261 1013 b 247 998 254 1008 250 1003 l 247 998 b 234 958 241 985 237 972 l 234 956 b 235 917 232 943 232 930 b 248 889 237 907 242 898 b 212 736 247 872 240 779 l 211 734 l 211 714 l 224 725 b 305 877 232 732 275 774 l 314 912 l 314 914 b 315 915 314 914 314 915 l 315 919 b 318 929 316 923 317 926 b 324 970 321 943 323 956 b 322 988 324 976 323 982 b 310 1012 321 997 317 1006 z m 457 988 b 444 1012 456 997 451 1006 b 401 1017 432 1022 415 1024 b 393 1011 398 1015 396 1013 b 382 998 388 1008 385 1003 l 382 998 b 369 958 376 985 371 972 l 369 956 b 370 917 366 943 367 930 b 383 889 372 907 377 898 b 347 736 382 872 375 779 l 346 734 l 346 714 l 359 725 b 440 877 367 732 410 774 l 448 912 l 449 914 b 449 915 449 914 449 915 l 450 919 b 453 929 451 923 452 926 b 458 969 456 943 458 956 l 458 970 b 457 988 459 976 458 982 z "},"“":{"ha":460,"x_min":0,"x_max":0,"o":"m 310 1012 b 267 1017 297 1022 281 1024 b 258 1011 264 1015 261 1013 b 247 998 254 1008 250 1003 l 247 998 b 234 958 241 985 237 972 l 234 956 b 235 917 232 943 232 930 b 248 889 237 907 242 898 b 212 736 247 872 240 779 l 211 734 l 211 714 l 224 725 b 305 877 232 732 275 774 l 314 912 l 314 914 b 315 915 314 914 314 915 l 315 919 b 318 929 316 923 317 926 b 324 970 321 943 323 956 b 322 988 324 976 323 982 b 310 1012 321 997 317 1006 z m 457 988 b 444 1012 456 997 451 1006 b 401 1017 432 1022 415 1024 b 393 1011 398 1015 396 1013 b 382 998 388 1008 385 1003 l 382 998 b 369 958 376 985 371 972 l 369 956 b 370 917 366 943 367 930 b 383 889 372 907 377 898 b 347 736 382 872 375 779 l 346 734 l 346 714 l 359 725 b 440 877 367 732 410 774 l 448 912 l 449 914 b 449 915 449 914 449 915 l 450 919 b 453 929 451 923 452 926 b 458 969 456 943 458 956 l 458 970 b 457 988 459 976 458 982 z "},"”":{"ha":460,"x_min":0,"x_max":0,"o":"m 310 1012 b 267 1017 297 1022 281 1024 b 258 1011 264 1015 261 1013 b 247 998 254 1008 250 1003 l 247 998 b 234 958 241 985 237 972 l 234 956 b 235 917 232 943 232 930 b 248 889 237 907 242 898 b 212 736 247 872 240 779 l 211 734 l 211 714 l 224 725 b 305 877 232 732 275 774 l 314 912 l 314 914 b 315 915 314 914 314 915 l 315 919 b 318 929 316 923 317 926 b 324 970 321 943 323 956 b 322 988 324 976 323 982 b 310 1012 321 997 317 1006 z m 457 988 b 444 1012 456 997 451 1006 b 401 1017 432 1022 415 1024 b 393 1011 398 1015 396 1013 b 382 998 388 1008 385 1003 l 382 998 b 369 958 376 985 371 972 l 369 956 b 370 917 366 943 367 930 b 383 889 372 907 377 898 b 347 736 382 872 375 779 l 346 734 l 346 714 l 359 725 b 440 877 367 732 410 774 l 448 912 l 449 914 b 449 915 449 914 449 915 l 450 919 b 453 929 451 923 452 926 b 458 969 456 943 458 956 l 458 970 b 457 988 459 976 458 982 z "},"#":{"ha":754,"x_min":0,"x_max":0,"o":"m 708 937 l 693 937 b 688 937 692 937 690 937 b 572 861 638 935 594 906 l 464 651 l 317 651 b 457 925 340 695 424 859 l 463 937 l 449 936 b 318 845 393 929 344 895 l 218 652 l 154 652 b 49 564 102 652 58 615 l 47 555 l 167 555 l 89 401 l 24 401 b -81 313 -28 401 -72 364 l -82 304 l 37 304 l -112 15 l -100 15 b -94 15 -98 15 -96 15 b 26 91 -43 18 2 46 l 139 304 l 285 304 l 135 15 l 149 17 b 279 108 205 23 254 58 l 378 304 l 446 304 b 551 392 498 304 542 341 l 553 401 l 430 401 l 511 555 l 580 555 b 684 643 631 555 676 592 l 686 652 l 563 652 z m 413 555 l 334 401 l 186 401 l 267 555 z "},"$":{"ha":571,"x_min":0,"x_max":0,"o":"m 539 801 b 508 845 534 819 523 835 b 488 856 502 850 495 853 l 519 915 l 522 920 l 515 926 l 443 912 l 419 866 b 388 862 409 865 398 864 b 324 843 366 858 345 852 b 217 770 282 826 245 801 b 181 721 203 755 191 739 b 162 668 172 704 166 686 b 161 614 158 650 157 632 b 181 567 165 597 172 581 b 231 506 195 545 213 525 l 38 140 b 14 150 30 142 22 146 b -23 180 0 158 -13 168 b -49 266 -42 203 -51 234 b -10 362 -47 301 -33 335 b 34 402 2 377 17 391 b 91 428 52 413 71 422 l 87 443 b -35 378 41 434 -1 411 b -97 264 -67 345 -89 305 b -98 203 -101 244 -101 223 b -77 145 -95 182 -88 163 b -31 98 -65 126 -49 110 b 6 79 -20 90 -7 83 l -43 -16 l 53 25 l 74 66 b 128 68 92 65 110 66 b 214 89 158 72 186 79 b 295 128 242 99 270 112 l 295 128 b 324 149 305 134 315 141 l 344 166 l 349 170 b 416 250 370 189 398 216 b 442 383 448 316 447 350 b 335 563 433 454 354 543 l 469 819 b 481 815 473 818 477 817 b 508 790 493 810 502 801 b 516 749 513 779 516 766 b 508 700 515 733 512 716 l 522 695 b 540 748 530 712 536 730 b 539 801 544 768 544 786 z m 255 644 b 251 655 253 647 252 651 l 250 658 l 249 664 b 249 665 249 664 249 665 b 250 668 249 666 249 667 b 274 735 251 691 259 714 b 305 767 283 747 293 758 b 345 795 317 778 330 787 b 392 814 360 803 376 810 l 284 608 b 273 619 280 612 277 615 b 255 644 266 626 260 635 z m 278 455 b 308 414 289 442 299 429 b 326 372 316 401 322 387 b 328 325 330 357 330 341 b 311 277 325 308 319 292 b 281 230 303 260 293 244 b 183 159 256 201 222 176 b 112 138 160 149 137 142 z "},"%":{"ha":818,"x_min":0,"x_max":0,"o":"m 721 882 l 721 882 b 612 833 679 882 639 864 l 542 754 b 434 705 507 736 471 719 b 375 685 413 697 394 690 b 373 684 374 685 373 684 b 376 692 374 687 375 690 b 395 752 384 712 390 731 b 403 811 400 771 402 791 b 378 884 403 842 395 867 b 373 890 376 886 375 888 l 372 890 l 372 890 b 237 882 338 910 289 907 b 84 743 181 855 127 806 b 6 584 44 685 18 631 b 15 469 -5 537 -2 498 l 16 468 b 18 465 17 467 17 466 b 103 423 31 446 57 423 b 111 423 106 423 108 423 b 167 439 129 424 147 429 b 222 478 187 450 206 463 b 309 574 255 506 284 539 b 353 643 326 596 340 619 b 389 653 364 646 376 649 b 450 675 408 659 428 666 b 488 692 463 681 476 686 l -14 122 l 3 122 b 113 171 45 122 85 140 l 738 882 z m 207 770 b 204 739 205 760 204 749 b 209 699 203 726 205 712 b 219 677 211 691 214 684 b 238 656 224 669 231 662 b 261 644 245 651 253 647 b 264 643 262 643 263 643 b 231 593 254 626 243 609 b 163 517 211 565 188 539 b 127 492 152 507 140 499 b 99 484 118 487 109 485 b 98 484 99 484 99 484 b 85 495 92 483 86 488 b 85 500 85 497 85 499 b 94 560 85 521 89 541 b 122 633 102 585 111 610 b 176 727 138 666 156 697 b 207 770 186 742 196 756 z m 258 683 b 245 703 252 688 247 695 b 243 731 243 712 242 722 b 255 789 244 751 249 770 b 266 816 258 798 262 807 b 275 834 269 823 272 829 b 280 837 277 835 278 836 b 311 849 291 844 302 848 b 317 849 313 849 315 849 l 317 849 b 334 832 326 849 333 842 l 334 832 b 322 769 334 815 330 794 b 289 689 313 742 302 715 b 281 674 287 684 284 679 b 258 683 273 675 265 678 z m 713 562 b 695 571 708 567 702 570 b 558 551 649 580 603 573 b 403 401 504 524 451 474 b 336 214 359 335 336 272 b 339 181 336 203 337 192 b 433 100 349 135 387 102 b 438 100 435 100 436 100 b 446 100 440 100 443 100 b 502 117 464 101 482 106 b 557 155 522 127 540 140 b 644 251 590 184 619 216 b 711 370 671 288 694 328 b 730 429 719 389 725 409 b 737 488 735 448 737 468 l 737 488 b 713 561 737 519 729 543 z m 519 417 b 526 406 520 413 522 408 b 544 408 532 402 539 403 l 560 428 b 565 435 562 431 564 433 b 575 447 569 439 572 443 l 588 461 l 601 474 b 606 479 603 476 605 477 b 610 482 608 480 609 481 b 649 512 622 493 635 503 l 659 519 b 663 521 661 519 662 520 b 666 523 664 521 665 522 b 668 509 668 518 669 514 b 657 446 668 492 665 471 b 624 366 648 419 637 392 b 566 270 607 332 588 300 b 498 194 546 242 523 217 b 462 169 487 184 475 176 b 434 161 453 165 444 162 l 433 161 b 420 173 426 160 421 166 b 420 177 420 174 420 176 b 429 238 420 198 423 218 b 457 310 436 263 446 287 b 511 405 473 343 490 375 b 519 417 514 409 516 413 z "},"&":{"ha":1294,"x_min":0,"x_max":0,"o":"m 1247 242 b 1225 274 1244 263 1231 271 b 1182 262 1216 278 1200 282 b 923 62 1091 159 1003 92 b 744 62 859 38 799 39 b 566 273 642 107 581 228 b 631 342 586 295 608 318 b 707 424 657 369 683 397 b 745 466 720 439 733 453 b 783 508 757 479 770 493 b 793 520 786 512 790 516 l 804 531 l 804 531 b 833 562 813 542 823 552 b 864 591 843 572 854 581 l 865 591 b 928 640 884 609 905 625 b 959 656 945 650 954 654 b 960 654 959 655 959 654 l 960 652 b 963 645 961 649 962 647 b 978 622 967 636 972 628 b 1017 605 985 614 997 605 b 1068 623 1035 605 1054 611 b 1094 670 1082 634 1091 650 b 1079 726 1098 693 1093 712 l 1078 726 b 1027 745 1065 739 1048 745 l 1019 745 b 1008 743 1015 745 1011 745 b 899 697 972 739 936 723 b 802 615 865 672 832 645 b 766 577 789 603 777 590 b 736 543 755 565 745 554 b 678 477 719 524 700 502 b 609 401 655 452 632 427 b 594 386 604 396 599 391 b 581 372 590 381 586 376 b 551 340 570 360 560 350 b 547 336 550 339 548 337 l 545 344 l 544 346 b 529 400 539 363 534 381 b 525 416 528 406 527 411 b 522 428 524 420 523 424 l 522 429 b 502 513 514 458 507 486 b 495 564 498 529 496 546 b 531 577 506 568 518 572 b 584 598 548 583 566 590 b 712 673 630 618 673 643 b 789 798 754 706 780 748 b 770 894 796 837 790 869 b 680 933 750 920 720 933 b 537 869 624 933 576 912 b 455 735 501 831 473 785 b 446 705 451 725 448 715 b 439 676 443 696 441 686 b 434 636 437 663 435 650 b 434 608 434 627 434 618 b 406 599 425 605 416 602 l 365 585 b 168 482 295 559 229 525 b 50 290 104 438 64 373 b 91 150 40 233 54 186 b 233 97 128 115 175 97 l 234 97 b 404 143 294 97 352 113 b 517 226 445 166 483 194 b 646 65 536 184 575 116 b 841 3 702 24 768 3 l 841 3 b 958 19 880 4 920 9 b 1189 131 1084 53 1153 98 b 1247 242 1231 168 1252 210 z m 499 287 b 376 194 462 250 421 219 b 229 153 328 167 279 153 b 172 179 193 153 180 167 b 162 255 160 199 156 224 b 271 442 175 332 212 395 b 439 543 322 483 379 517 b 450 483 442 523 446 502 b 458 444 453 470 456 458 l 458 443 b 467 398 461 429 464 413 l 468 397 b 470 391 468 395 469 393 b 471 386 470 389 471 387 b 485 333 476 368 481 350 b 493 305 487 323 490 314 b 499 287 495 299 497 293 z m 493 634 l 493 637 b 495 656 493 643 494 650 l 499 677 b 505 703 501 686 503 695 b 515 731 508 713 512 722 b 586 832 532 769 556 803 l 586 832 b 687 876 616 861 650 876 b 724 861 714 876 722 864 b 732 814 733 849 736 833 b 667 710 724 769 703 734 b 547 646 630 684 590 662 b 504 630 532 640 518 635 b 492 627 500 629 496 628 b 493 634 492 629 492 632 z "},"'":{"ha":215,"x_min":0,"x_max":0,"o":"m 173 669 b 160 693 172 678 167 687 b 117 698 148 703 131 705 b 109 693 114 696 111 695 b 98 679 104 689 100 685 l 97 679 b 85 640 91 667 87 653 l 85 638 b 86 599 82 625 82 611 b 98 570 88 588 92 579 b 63 417 97 553 90 460 l 62 415 l 62 395 l 74 406 b 155 558 83 413 125 455 l 164 593 l 165 595 b 165 597 165 596 165 596 l 166 600 b 168 611 167 604 167 607 b 174 651 171 624 173 637 l 174 651 b 173 669 174 657 174 663 z "},"‘":{"ha":215,"x_min":0,"x_max":0,"o":"m 173 669 b 160 693 172 678 167 687 b 117 698 148 703 131 705 b 109 693 114 696 111 695 b 98 679 104 689 100 685 l 97 679 b 85 640 91 667 87 653 l 85 638 b 86 599 82 625 82 611 b 98 570 88 588 92 579 b 63 417 97 553 90 460 l 62 415 l 62 395 l 74 406 b 155 558 83 413 125 455 l 164 593 l 165 595 b 165 597 165 596 165 596 l 166 600 b 168 611 167 604 167 607 b 174 651 171 624 173 637 l 174 651 b 173 669 174 657 174 663 z "},"’":{"ha":215,"x_min":0,"x_max":0,"o":"m 173 669 b 160 693 172 678 167 687 b 117 698 148 703 131 705 b 109 693 114 696 111 695 b 98 679 104 689 100 685 l 97 679 b 85 640 91 667 87 653 l 85 638 b 86 599 82 625 82 611 b 98 570 88 588 92 579 b 63 417 97 553 90 460 l 62 415 l 62 395 l 74 406 b 155 558 83 413 125 455 l 164 593 l 165 595 b 165 597 165 596 165 596 l 166 600 b 168 611 167 604 167 607 b 174 651 171 624 173 637 l 174 651 b 173 669 174 657 174 663 z "},"(":{"ha":590,"x_min":0,"x_max":0,"o":"m 543 1054 l 542 1056 b 533 1073 541 1063 538 1068 l 533 1073 b 512 1081 527 1078 520 1081 l 512 1081 b 488 1073 507 1081 502 1080 b 457 1057 478 1068 468 1063 l 455 1056 l 453 1054 b 452 1052 453 1053 452 1053 b 449 1051 451 1052 450 1051 l 447 1050 l 446 1050 b 114 756 311 967 199 869 b -25 403 28 642 -19 523 b -26 354 -27 387 -27 370 b -21 307 -25 338 -23 322 l -21 306 b -9 244 -18 284 -14 263 b 11 186 -4 224 3 205 l 11 185 b 39 134 19 169 28 151 b 76 79 50 115 63 96 b 115 35 93 58 105 44 b 147 18 127 25 137 18 b 149 18 148 18 148 18 b 160 22 153 18 157 19 l 160 22 l 161 24 b 164 35 163 27 164 31 b 146 62 163 42 158 49 b 123 96 138 73 130 84 l 122 96 b 93 152 111 114 101 133 b 72 234 84 175 77 202 b 67 321 68 263 66 292 b 76 411 68 351 71 381 b 196 709 94 513 135 613 b 400 948 257 805 326 886 b 448 986 416 962 432 974 b 496 1017 463 997 479 1008 b 526 1033 510 1025 520 1030 b 539 1042 531 1035 535 1038 l 539 1042 b 543 1054 542 1045 543 1050 z "},")":{"ha":643,"x_min":0,"x_max":0,"o":"m 616 744 b 611 792 615 760 613 776 b 611 793 611 792 611 793 l 610 794 b 598 855 607 815 603 835 b 578 914 593 875 587 895 l 578 914 b 551 965 570 931 561 948 l 551 965 b 513 1021 539 985 527 1003 b 474 1064 497 1042 484 1056 b 442 1081 462 1075 452 1081 b 433 1079 439 1081 436 1081 b 426 1064 427 1076 425 1070 b 443 1037 427 1058 432 1051 b 468 1003 452 1027 461 1015 b 496 947 479 985 488 966 b 517 865 505 925 513 897 b 522 777 522 836 523 807 b 514 687 522 747 519 717 b 394 390 495 586 455 485 b 190 151 332 294 264 214 b 141 113 173 138 157 125 b 94 83 126 102 110 92 b 64 66 78 74 69 69 b 51 57 59 64 55 61 l 51 57 b 47 45 47 54 46 50 l 47 43 l 47 42 b 77 18 51 29 63 19 l 78 18 b 102 26 82 18 87 19 b 133 43 111 31 122 36 l 135 44 l 136 46 b 138 47 137 46 137 47 b 141 49 139 48 140 48 l 143 49 l 143 50 b 476 343 278 132 390 231 b 615 695 562 456 609 575 b 616 744 616 711 617 728 z "},"*":{"ha":447,"x_min":0,"x_max":0,"o":"m 400 966 b 398 972 399 968 399 970 l 398 972 b 387 988 396 978 392 984 b 366 997 381 994 374 997 b 330 985 360 997 351 996 b 287 964 317 979 302 971 b 278 960 284 963 281 961 b 277 959 278 959 277 959 l 274 958 b 270 956 273 957 271 957 b 292 1000 280 976 287 991 b 308 1035 304 1022 307 1030 b 300 1062 309 1044 307 1055 b 268 1076 295 1069 286 1076 b 241 1065 258 1077 248 1072 b 228 1037 235 1059 231 1050 l 210 959 b 181 999 197 976 187 990 b 150 1031 170 1016 160 1026 b 140 1035 147 1033 143 1034 b 131 1035 137 1035 134 1035 b 107 1025 122 1035 113 1031 b 95 1002 101 1019 97 1011 l 94 999 b 96 987 94 995 94 991 b 124 953 99 977 108 965 b 172 917 134 946 150 934 b 121 903 152 911 135 907 b 73 887 100 898 84 892 b 56 876 67 885 60 881 b 47 860 51 872 48 866 l 47 857 l 47 855 l 47 854 b 52 833 47 847 49 839 b 58 825 54 830 56 828 l 56 815 l 80 815 b 113 826 85 815 93 817 b 155 846 125 832 140 838 l 157 847 l 157 847 b 162 849 159 848 161 848 l 163 849 b 174 855 167 851 171 853 b 172 850 174 853 173 852 l 171 848 l 171 846 b 171 845 171 846 171 846 b 169 843 170 845 170 844 l 168 841 b 152 804 163 828 157 816 b 143 774 148 794 145 784 b 148 747 141 764 143 755 b 176 732 154 737 165 732 b 177 732 176 732 177 732 b 211 759 191 732 202 741 b 237 856 217 771 225 802 b 272 810 254 835 266 820 b 312 779 282 796 295 779 b 342 791 323 779 334 783 b 355 817 349 798 353 807 b 320 863 358 832 343 846 b 272 899 306 875 289 887 b 313 908 288 902 301 905 b 358 917 331 911 347 915 b 387 931 371 921 381 925 b 400 956 394 937 399 946 b 400 966 401 959 400 962 z "},"+":{"ha":586,"x_min":0,"x_max":0,"o":"m 250 316 l 312 457 l 301 457 b 212 399 262 457 227 435 l 175 316 l 102 316 b 12 257 63 316 28 293 l 7 246 l 145 246 l 83 105 l 94 105 b 183 163 133 105 168 128 l 220 246 l 293 246 b 383 305 332 246 368 270 l 388 316 z "},",":{"ha":217,"x_min":0,"x_max":0,"o":"m 218 76 b 205 105 219 87 214 97 b 172 116 196 112 185 116 b 126 94 154 117 137 108 b 100 30 116 81 108 60 b 75 -18 95 10 87 -6 b 9 -53 63 -30 40 -42 b -10 -59 0 -56 -6 -58 b -21 -63 -15 -61 -19 -62 l -23 -63 b -30 -68 -25 -64 -28 -66 l -30 -68 b -37 -80 -34 -71 -36 -75 b -27 -102 -38 -88 -34 -97 b -11 -107 -22 -105 -17 -107 b -10 -107 -10 -107 -10 -107 b 33 -98 2 -107 16 -104 b 80 -77 49 -92 65 -85 b 149 -30 105 -64 128 -48 b 201 25 169 -14 186 5 l 202 27 b 211 46 205 33 208 39 b 217 65 214 52 216 59 l 219 76 z "},"-":{"ha":515,"x_min":0,"x_max":0,"o":"m 153 306 b 52 242 110 306 71 281 l 47 231 l 247 231 b 348 295 290 231 329 256 l 353 306 z "},".":{"ha":308,"x_min":0,"x_max":0,"o":"m 96 102 b 60 117 88 111 76 116 l 59 117 b 15 98 40 117 25 111 b -3 58 5 87 -1 73 b 6 17 -5 47 -6 30 b 40 4 14 9 26 4 b 87 21 60 4 76 10 b 107 64 97 32 103 46 b 96 102 109 79 106 92 z "},"/":{"ha":714,"x_min":0,"x_max":0,"o":"m 588 934 l 47 7 l 126 7 l 668 934 z "},":":{"ha":210,"x_min":0,"x_max":0,"o":"m -19 214 b -59 229 -31 223 -45 228 l -60 229 b -100 208 -85 229 -95 218 b -104 167 -105 197 -107 183 b -82 128 -102 156 -98 139 b -46 116 -72 120 -59 116 b -45 116 -46 116 -46 116 b -3 134 -25 116 -10 122 b 3 178 4 145 6 160 b -19 214 0 193 -8 205 z m 99 404 b 77 440 97 418 89 431 b 37 454 66 448 52 453 l 20 455 l 21 451 b -3 433 7 448 0 440 b -8 393 -9 422 -10 409 b 13 354 -5 375 2 363 b 51 340 24 345 37 340 l 51 340 b 94 359 72 340 86 347 b 99 404 100 371 102 386 z "},";":{"ha":254,"x_min":0,"x_max":0,"o":"m 143 404 b 121 440 141 418 133 431 b 81 454 110 448 96 453 l 64 455 l 65 452 b 41 433 51 448 44 440 b 36 393 35 422 34 409 b 57 354 40 375 46 363 b 95 340 68 345 81 340 l 95 340 b 138 359 116 340 131 347 b 143 404 145 371 146 386 z m 46 181 b 23 216 44 195 35 208 b -13 228 13 224 0 228 b -53 204 -38 228 -48 215 b -57 139 -59 190 -60 170 b -65 92 -55 119 -58 103 b -118 58 -70 84 -84 72 b -134 52 -123 56 -129 54 b -145 49 -139 51 -142 50 l -146 48 b -153 43 -149 47 -151 45 l -153 43 b -156 29 -156 39 -157 33 b -141 9 -154 20 -148 13 b -123 4 -135 6 -129 4 l -123 4 b -82 13 -109 5 -95 8 b -42 35 -68 19 -55 26 b 11 82 -22 48 -4 64 b 44 139 27 101 38 120 l 45 140 b 47 159 46 147 47 153 l 47 159 b 47 180 48 166 48 173 z "},"<":{"ha":513,"x_min":0,"x_max":0,"o":"m 431 610 l 56 447 l 47 391 l 364 228 l 376 296 l 148 414 l 418 532 z "},"=":{"ha":507,"x_min":0,"x_max":0,"o":"m 24 180 l 19 170 l 305 170 b 395 229 344 170 380 193 l 400 239 l 114 239 b 24 180 75 239 40 216 z m 168 362 b 78 303 129 362 94 339 l 73 293 l 359 293 b 449 352 398 293 434 316 l 454 362 z "},">":{"ha":376,"x_min":0,"x_max":0,"o":"m 11 605 l 0 537 l 227 419 l -42 301 l -56 223 l 319 386 l 329 442 z "},"?":{"ha":686,"x_min":0,"x_max":0,"o":"m 165 80 b 162 95 165 85 164 90 b 145 123 158 106 153 115 b 116 137 137 131 127 136 b 90 134 107 139 98 137 b 55 105 75 128 63 118 b 47 81 50 98 48 90 b 49 59 46 74 47 66 b 56 42 51 53 53 47 b 57 40 57 41 57 40 l 58 39 b 69 25 60 33 64 29 b 79 20 72 23 75 21 b 83 18 80 19 82 19 b 86 18 84 18 85 18 b 87 18 86 18 86 18 b 88 16 87 17 88 17 b 90 15 89 16 89 15 b 90 13 90 14 90 14 l 91 13 b 93 10 91 11 92 11 b 119 -3 99 1 109 -4 b 122 -3 120 -3 121 -3 l 122 -3 b 152 18 135 -2 146 6 b 156 26 154 20 155 23 l 156 28 b 158 31 157 29 157 30 b 161 41 159 34 160 38 b 166 64 164 49 165 56 b 165 80 166 69 166 74 z m 639 837 b 639 849 639 841 639 845 b 638 851 638 850 638 851 b 638 857 638 853 638 855 l 637 865 b 584 975 631 906 612 945 b 562 996 577 983 570 989 b 539 1013 555 1002 547 1008 b 489 1040 524 1024 507 1033 b 437 1056 472 1047 455 1052 b 410 1061 429 1058 420 1059 b 382 1063 400 1062 391 1062 b 355 1062 373 1063 364 1063 b 327 1059 345 1061 336 1060 b 300 1052 318 1057 309 1055 b 273 1041 290 1049 281 1045 l 266 1037 l 260 1034 b 249 1027 256 1031 252 1029 b 227 1011 241 1022 234 1016 b 160 926 199 988 176 959 b 133 823 144 894 135 859 b 137 769 132 805 133 787 b 144 742 139 760 141 751 b 157 716 148 733 152 724 b 192 708 164 704 180 701 b 200 742 203 715 207 730 b 188 778 194 753 189 766 b 186 820 186 792 185 806 b 211 900 189 848 197 875 b 265 961 224 924 243 945 b 282 972 271 965 277 969 b 292 977 286 974 289 976 l 296 980 l 300 981 b 318 987 306 984 312 986 b 337 991 325 989 331 990 b 417 982 364 994 392 991 b 455 966 430 978 443 972 b 487 943 466 960 477 952 b 527 886 505 928 519 908 b 531 870 529 880 530 875 b 533 853 532 864 533 859 b 530 820 534 842 533 831 b 502 750 526 798 516 774 b 479 715 495 738 487 727 b 451 679 468 700 460 689 b 328 544 413 631 372 586 b 259 479 305 521 282 499 l 258 478 b 189 410 235 456 212 434 b 155 371 177 398 166 384 b 140 349 150 363 144 356 b 126 325 135 341 130 333 b 108 271 118 308 112 290 b 105 243 106 262 105 253 b 106 216 104 234 105 225 b 131 193 107 203 118 193 l 131 193 b 156 215 144 193 154 203 l 156 215 b 186 289 159 242 169 268 b 246 350 203 313 227 334 b 282 378 258 359 270 369 l 320 407 b 397 468 345 426 371 446 b 434 500 410 479 423 490 b 470 535 445 510 457 522 b 538 609 496 561 518 585 b 569 648 547 620 559 634 b 599 694 580 663 590 678 b 637 802 620 730 632 766 b 638 813 638 806 638 810 b 639 818 638 815 639 816 l 639 818 b 639 833 639 823 639 828 z "},"@":{"ha":782,"x_min":0,"x_max":0,"o":"m 724 806 b 519 928 686 887 617 928 b 214 797 420 928 318 884 b -21 455 111 711 32 596 b -42 389 -30 434 -36 411 b -53 318 -47 365 -51 341 b -11 108 -60 242 -46 171 b 202 4 26 39 98 4 b 318 26 242 5 281 12 b 430 73 356 40 394 56 l 431 73 b 434 74 432 74 433 74 b 443 80 437 76 440 78 l 450 87 l 434 142 l 401 127 b 389 121 397 125 393 123 b 303 87 361 108 332 97 b 206 73 274 78 242 73 b 43 175 119 73 65 107 b 66 444 19 248 27 339 b 267 753 115 574 183 678 b 516 865 349 827 433 865 b 650 801 582 865 626 844 b 680 644 676 754 686 701 b 659 555 677 614 670 584 b 649 531 656 547 653 539 b 639 507 646 524 643 516 b 534 342 612 447 576 392 b 415 271 494 295 454 271 b 407 275 410 271 409 272 b 406 301 404 282 403 291 l 406 303 l 406 304 l 409 312 b 416 325 411 316 413 320 b 425 341 418 329 421 334 l 626 695 l 538 695 l 527 676 b 470 703 519 689 503 703 b 339 647 426 703 382 685 b 230 529 298 612 262 573 b 183 455 212 504 196 479 b 153 394 171 435 161 415 b 132 264 131 337 125 295 b 158 223 136 248 145 234 b 207 207 171 213 187 207 b 268 224 228 208 250 214 b 320 260 287 235 304 246 b 330 268 324 263 327 265 b 349 229 333 254 340 240 b 406 206 362 214 381 206 b 555 281 456 206 506 231 b 674 437 602 327 642 380 b 696 480 682 451 690 466 b 714 522 703 494 709 508 b 724 806 756 634 760 730 z m 226 288 b 207 297 210 288 208 293 b 221 372 205 301 201 319 b 231 395 224 379 227 387 b 242 418 235 403 239 411 b 346 558 270 470 305 517 b 449 623 387 598 421 620 l 454 623 b 473 620 469 623 473 620 b 473 619 473 620 473 619 l 474 619 b 465 569 475 613 476 598 l 465 568 b 377 418 438 510 409 460 b 289 323 345 377 316 345 b 250 296 277 313 264 304 b 226 288 235 288 228 288 z "},"A":{"ha":1396,"x_min":0,"x_max":0,"o":"m 1601 1308 l 1601 1308 b 1581 1304 1595 1313 1585 1311 b 1520 1222 1564 1280 1544 1253 l 1515 1215 b 1489 1181 1506 1203 1498 1192 l 1457 1141 b 1326 982 1421 1096 1374 1039 b 1053 673 1243 884 1154 783 l 983 598 b 937 549 968 582 952 565 b 912 523 929 540 920 532 b 870 479 898 508 884 494 b 841 449 860 469 851 459 l 838 446 b 805 412 827 435 816 423 l 787 394 l 769 376 b 738 345 759 366 748 356 b 724 346 733 346 728 346 b 618 340 689 346 654 344 b 414 282 544 331 475 311 b 366 257 397 275 382 266 b 344 242 359 252 351 247 b 322 227 337 238 330 233 b 244 154 294 205 267 181 b 211 111 232 141 221 126 b 198 86 206 103 202 95 b 192 58 194 77 192 68 b 193 42 191 52 192 47 b 199 27 194 37 196 31 b 225 6 205 17 214 10 b 240 2 230 4 235 2 b 248 1 243 1 246 1 b 253 1 250 1 251 1 b 255 1 254 1 254 1 b 283 2 264 1 274 1 b 387 29 315 6 348 14 b 435 51 404 36 421 44 b 482 76 448 57 465 66 b 655 195 537 107 594 146 b 781 305 697 228 739 266 b 826 303 796 305 811 304 l 829 303 b 838 302 832 302 835 302 l 851 300 b 876 297 859 300 867 299 b 898 294 883 296 891 295 l 927 290 b 1030 276 961 284 995 280 b 1044 275 1034 276 1039 275 b 1033 248 1040 265 1036 257 b 967 55 1007 185 985 121 b 945 -45 957 19 950 -14 b 941 -71 943 -54 942 -62 b 938 -97 940 -80 939 -89 b 937 -119 937 -105 937 -112 b 899 -112 924 -116 912 -113 b 797 -104 865 -106 831 -104 b 596 -128 734 -105 668 -113 b 498 -152 564 -134 531 -143 b 403 -178 465 -162 434 -171 b 209 -206 339 -192 274 -202 b 13 -195 137 -210 73 -206 b -81 -170 -19 -190 -50 -181 b -163 -122 -115 -157 -142 -141 b -193 -87 -175 -112 -185 -100 b -207 -45 -200 -74 -205 -60 b -201 -1 -208 -30 -206 -15 b -180 41 -196 14 -189 28 l -178 43 l -178 43 b -183 57 -177 48 -178 54 b -199 54 -188 61 -195 59 b -222 7 -209 39 -217 23 b -229 -47 -228 -11 -231 -29 b -212 -99 -227 -65 -221 -83 b -178 -139 -203 -114 -191 -127 b -89 -190 -154 -159 -125 -176 b 9 -217 -57 -202 -24 -211 b 210 -229 70 -229 136 -232 b 409 -203 277 -226 343 -217 b 506 -179 438 -197 470 -189 b 602 -158 538 -171 571 -164 b 796 -143 666 -146 731 -141 b 892 -153 828 -144 860 -148 b 938 -164 910 -157 925 -160 l 939 -164 b 942 -177 940 -169 941 -173 b 951 -204 944 -186 947 -196 b 972 -228 956 -214 963 -222 l 972 -228 b 995 -235 979 -232 987 -235 b 1005 -234 998 -235 1001 -234 b 1018 -230 1009 -233 1013 -231 l 1021 -229 b 1024 -228 1022 -228 1023 -228 b 1032 -224 1027 -227 1029 -225 b 1040 -218 1035 -222 1037 -220 b 1046 -207 1043 -215 1045 -211 b 1046 -184 1049 -200 1049 -191 b 1036 -167 1044 -177 1041 -172 b 1024 -156 1033 -163 1029 -160 b 1000 -142 1017 -151 1009 -146 b 978 -132 993 -138 985 -135 b 983 -104 979 -123 981 -113 b 996 -58 986 -88 991 -73 b 1032 32 1006 -27 1018 2 b 1125 203 1060 91 1093 149 b 1164 270 1138 226 1151 248 b 1238 272 1190 270 1215 270 b 1342 287 1273 274 1308 279 b 1393 304 1360 291 1377 297 b 1418 318 1402 308 1410 312 b 1429 329 1422 321 1425 325 b 1436 345 1433 333 1435 339 b 1429 357 1438 350 1434 355 b 1416 350 1423 358 1418 355 l 1416 349 b 1405 335 1415 345 1411 340 b 1385 324 1399 331 1392 327 b 1337 310 1369 318 1353 313 b 1237 298 1304 303 1270 299 b 1181 297 1219 297 1200 297 l 1226 371 l 1276 455 b 1327 539 1294 485 1312 514 b 1354 582 1337 554 1346 570 b 1375 618 1361 594 1368 606 l 1379 626 b 1428 715 1396 655 1412 685 b 1512 900 1459 775 1487 837 b 1575 1093 1537 963 1558 1028 b 1577 1101 1576 1096 1577 1099 b 1582 1118 1579 1107 1580 1112 l 1582 1122 b 1587 1143 1584 1129 1586 1136 b 1597 1193 1591 1159 1594 1176 b 1604 1244 1600 1210 1602 1227 l 1604 1245 b 1606 1269 1605 1253 1606 1261 b 1607 1295 1607 1278 1607 1286 b 1601 1308 1608 1300 1605 1305 z m 1546 1207 b 1537 1184 1544 1199 1541 1191 b 1528 1161 1534 1176 1531 1168 b 1509 1116 1522 1146 1515 1131 b 1489 1071 1503 1102 1496 1087 b 1468 1027 1482 1057 1475 1042 b 1424 940 1452 995 1438 966 b 1377 854 1412 917 1395 885 b 1332 775 1363 828 1347 801 l 1303 728 l 1290 707 b 1278 687 1286 700 1282 693 b 1267 671 1274 681 1271 676 b 1251 646 1262 662 1257 654 l 1224 604 b 1171 519 1206 576 1188 548 b 1120 432 1154 490 1136 461 b 1057 304 1097 390 1076 348 b 1033 307 1048 305 1041 306 b 932 323 1000 311 966 316 l 904 328 b 881 332 896 329 889 331 l 878 332 b 855 336 870 334 863 335 l 842 338 b 834 339 840 338 837 338 b 829 339 832 339 831 339 b 817 340 825 340 821 340 l 829 352 l 847 371 b 879 405 858 382 869 393 l 937 465 b 948 477 940 469 944 473 b 954 484 950 479 952 482 b 979 511 962 493 971 502 b 1024 561 994 527 1009 544 l 1092 638 b 1354 959 1173 733 1256 835 l 1385 1000 l 1417 1041 b 1464 1102 1433 1061 1449 1082 b 1480 1123 1469 1109 1475 1116 l 1550 1215 b 1546 1207 1549 1212 1548 1209 z m 252 31 b 248 31 251 31 250 31 b 243 31 247 31 245 31 b 233 32 240 31 236 31 l 232 32 b 217 40 226 33 221 36 b 213 47 215 42 214 44 b 212 56 212 50 212 53 b 219 77 213 63 215 70 b 232 96 222 84 227 90 b 266 131 242 109 254 121 b 306 161 277 140 290 149 b 348 189 319 170 332 179 l 373 205 b 391 216 379 208 385 212 b 434 239 405 224 419 232 b 624 296 495 267 559 286 b 694 304 648 300 671 302 b 620 237 670 281 645 259 b 541 172 590 211 565 190 b 459 113 513 150 486 131 b 416 87 444 103 429 94 b 372 64 404 80 388 72 b 278 34 338 48 307 39 b 254 31 270 33 262 32 z m 1001 -214 b 987 -209 996 -214 991 -212 b 978 -193 983 -205 980 -199 b 975 -177 977 -188 976 -183 b 981 -180 977 -178 979 -179 l 981 -180 b 999 -191 988 -183 994 -187 b 1007 -197 1002 -192 1004 -194 b 1010 -199 1008 -198 1009 -198 b 1013 -202 1011 -200 1012 -201 l 1014 -203 b 1016 -205 1014 -203 1015 -204 b 1016 -206 1016 -206 1016 -206 l 1015 -207 b 1013 -209 1015 -208 1014 -208 b 1011 -211 1013 -210 1012 -210 b 1010 -212 1011 -211 1010 -211 b 1002 -214 1007 -213 1005 -214 z "},"À":{"ha":1396,"x_min":0,"x_max":0,"o":"m 1601 1308 l 1601 1308 b 1581 1304 1595 1313 1585 1311 b 1520 1222 1564 1280 1544 1253 l 1515 1215 b 1489 1181 1506 1203 1498 1192 l 1457 1141 b 1326 982 1421 1096 1374 1039 b 1053 673 1243 884 1154 783 l 983 598 b 937 549 968 582 952 565 b 912 523 929 540 920 532 b 870 479 898 508 884 494 b 841 449 860 469 851 459 l 838 446 b 805 412 827 435 816 423 l 787 394 l 769 376 b 738 345 759 366 748 356 b 724 346 733 346 728 346 b 618 340 689 346 654 344 b 414 282 544 331 475 311 b 366 257 397 275 382 266 b 344 242 359 252 351 247 b 322 227 337 238 330 233 b 244 154 294 205 267 181 b 211 111 232 141 221 126 b 198 86 206 103 202 95 b 192 58 194 77 192 68 b 193 42 191 52 192 47 b 199 27 194 37 196 31 b 225 6 205 17 214 10 b 240 2 230 4 235 2 b 248 1 243 1 246 1 b 253 1 250 1 251 1 b 255 1 254 1 254 1 b 283 2 264 1 274 1 b 387 29 315 6 348 14 b 435 51 404 36 421 44 b 482 76 448 57 465 66 b 655 195 537 107 594 146 b 781 305 697 228 739 266 b 826 303 796 305 811 304 l 829 303 b 838 302 832 302 835 302 l 851 300 b 876 297 859 300 867 299 b 898 294 883 296 891 295 l 927 290 b 1030 276 961 284 995 280 b 1044 275 1034 276 1039 275 b 1033 248 1040 265 1036 257 b 967 55 1007 185 985 121 b 945 -45 957 19 950 -14 b 941 -71 943 -54 942 -62 b 938 -97 940 -80 939 -89 b 937 -119 937 -105 937 -112 b 899 -112 924 -116 912 -113 b 797 -104 865 -106 831 -104 b 596 -128 734 -105 668 -113 b 498 -152 564 -134 531 -143 b 403 -178 465 -162 434 -171 b 209 -206 339 -192 274 -202 b 13 -195 137 -210 73 -206 b -81 -170 -19 -190 -50 -181 b -163 -122 -115 -157 -142 -141 b -193 -87 -175 -112 -185 -100 b -207 -45 -200 -74 -205 -60 b -201 -1 -208 -30 -206 -15 b -180 41 -196 14 -189 28 l -178 43 l -178 43 b -183 57 -177 48 -178 54 b -199 54 -188 61 -195 59 b -222 7 -209 39 -217 23 b -229 -47 -228 -11 -231 -29 b -212 -99 -227 -65 -221 -83 b -178 -139 -203 -114 -191 -127 b -89 -190 -154 -159 -125 -176 b 9 -217 -57 -202 -24 -211 b 210 -229 70 -229 136 -232 b 409 -203 277 -226 343 -217 b 506 -179 438 -197 470 -189 b 602 -158 538 -171 571 -164 b 796 -143 666 -146 731 -141 b 892 -153 828 -144 860 -148 b 938 -164 910 -157 925 -160 l 939 -164 b 942 -177 940 -169 941 -173 b 951 -204 944 -186 947 -196 b 972 -228 956 -214 963 -222 l 972 -228 b 995 -235 979 -232 987 -235 b 1005 -234 998 -235 1001 -234 b 1018 -230 1009 -233 1013 -231 l 1021 -229 b 1024 -228 1022 -228 1023 -228 b 1032 -224 1027 -227 1029 -225 b 1040 -218 1035 -222 1037 -220 b 1046 -207 1043 -215 1045 -211 b 1046 -184 1049 -200 1049 -191 b 1036 -167 1044 -177 1041 -172 b 1024 -156 1033 -163 1029 -160 b 1000 -142 1017 -151 1009 -146 b 978 -132 993 -138 985 -135 b 983 -104 979 -123 981 -113 b 996 -58 986 -88 991 -73 b 1032 32 1006 -27 1018 2 b 1125 203 1060 91 1093 149 b 1164 270 1138 226 1151 248 b 1238 272 1190 270 1215 270 b 1342 287 1273 274 1308 279 b 1393 304 1360 291 1377 297 b 1418 318 1402 308 1410 312 b 1429 329 1422 321 1425 325 b 1436 345 1433 333 1435 339 b 1429 357 1438 350 1434 355 b 1416 350 1423 358 1418 355 l 1416 349 b 1405 335 1415 345 1411 340 b 1385 324 1399 331 1392 327 b 1337 310 1369 318 1353 313 b 1237 298 1304 303 1270 299 b 1181 297 1219 297 1200 297 l 1226 371 l 1276 455 b 1327 539 1294 485 1312 514 b 1354 582 1337 554 1346 570 b 1375 618 1361 594 1368 606 l 1379 626 b 1428 715 1396 655 1412 685 b 1512 900 1459 775 1487 837 b 1575 1093 1537 963 1558 1028 b 1577 1101 1576 1096 1577 1099 b 1582 1118 1579 1107 1580 1112 l 1582 1122 b 1587 1143 1584 1129 1586 1136 b 1597 1193 1591 1159 1594 1176 b 1604 1244 1600 1210 1602 1227 l 1604 1245 b 1606 1269 1605 1253 1606 1261 b 1607 1295 1607 1278 1607 1286 b 1601 1308 1608 1300 1605 1305 z m 1546 1207 b 1537 1184 1544 1199 1541 1191 b 1528 1161 1534 1176 1531 1168 b 1509 1116 1522 1146 1515 1131 b 1489 1071 1503 1102 1496 1087 b 1468 1027 1482 1057 1475 1042 b 1424 940 1452 995 1438 966 b 1377 854 1412 917 1395 885 b 1332 775 1363 828 1347 801 l 1303 728 l 1290 707 b 1278 687 1286 700 1282 693 b 1267 671 1274 681 1271 676 b 1251 646 1262 662 1257 654 l 1224 604 b 1171 519 1206 576 1188 548 b 1120 432 1154 490 1136 461 b 1057 304 1097 390 1076 348 b 1033 307 1048 305 1041 306 b 932 323 1000 311 966 316 l 904 328 b 881 332 896 329 889 331 l 878 332 b 855 336 870 334 863 335 l 842 338 b 834 339 840 338 837 338 b 829 339 832 339 831 339 b 817 340 825 340 821 340 l 829 352 l 847 371 b 879 405 858 382 869 393 l 937 465 b 948 477 940 469 944 473 b 954 484 950 479 952 482 b 979 511 962 493 971 502 b 1024 561 994 527 1009 544 l 1092 638 b 1354 959 1173 733 1256 835 l 1385 1000 l 1417 1041 b 1464 1102 1433 1061 1449 1082 b 1480 1123 1469 1109 1475 1116 l 1550 1215 b 1546 1207 1549 1212 1548 1209 z m 252 31 b 248 31 251 31 250 31 b 243 31 247 31 245 31 b 233 32 240 31 236 31 l 232 32 b 217 40 226 33 221 36 b 213 47 215 42 214 44 b 212 56 212 50 212 53 b 219 77 213 63 215 70 b 232 96 222 84 227 90 b 266 131 242 109 254 121 b 306 161 277 140 290 149 b 348 189 319 170 332 179 l 373 205 b 391 216 379 208 385 212 b 434 239 405 224 419 232 b 624 296 495 267 559 286 b 694 304 648 300 671 302 b 620 237 670 281 645 259 b 541 172 590 211 565 190 b 459 113 513 150 486 131 b 416 87 444 103 429 94 b 372 64 404 80 388 72 b 278 34 338 48 307 39 b 254 31 270 33 262 32 z m 1001 -214 b 987 -209 996 -214 991 -212 b 978 -193 983 -205 980 -199 b 975 -177 977 -188 976 -183 b 981 -180 977 -178 979 -179 l 981 -180 b 999 -191 988 -183 994 -187 b 1007 -197 1002 -192 1004 -194 b 1010 -199 1008 -198 1009 -198 b 1013 -202 1011 -200 1012 -201 l 1014 -203 b 1016 -205 1014 -203 1015 -204 b 1016 -206 1016 -206 1016 -206 l 1015 -207 b 1013 -209 1015 -208 1014 -208 b 1011 -211 1013 -210 1012 -210 b 1010 -212 1011 -211 1010 -211 b 1002 -214 1007 -213 1005 -214 z "},"Á":{"ha":1396,"x_min":0,"x_max":0,"o":"m 1601 1308 l 1601 1308 b 1581 1304 1595 1313 1585 1311 b 1520 1222 1564 1280 1544 1253 l 1515 1215 b 1489 1181 1506 1203 1498 1192 l 1457 1141 b 1326 982 1421 1096 1374 1039 b 1053 673 1243 884 1154 783 l 983 598 b 937 549 968 582 952 565 b 912 523 929 540 920 532 b 870 479 898 508 884 494 b 841 449 860 469 851 459 l 838 446 b 805 412 827 435 816 423 l 787 394 l 769 376 b 738 345 759 366 748 356 b 724 346 733 346 728 346 b 618 340 689 346 654 344 b 414 282 544 331 475 311 b 366 257 397 275 382 266 b 344 242 359 252 351 247 b 322 227 337 238 330 233 b 244 154 294 205 267 181 b 211 111 232 141 221 126 b 198 86 206 103 202 95 b 192 58 194 77 192 68 b 193 42 191 52 192 47 b 199 27 194 37 196 31 b 225 6 205 17 214 10 b 240 2 230 4 235 2 b 248 1 243 1 246 1 b 253 1 250 1 251 1 b 255 1 254 1 254 1 b 283 2 264 1 274 1 b 387 29 315 6 348 14 b 435 51 404 36 421 44 b 482 76 448 57 465 66 b 655 195 537 107 594 146 b 781 305 697 228 739 266 b 826 303 796 305 811 304 l 829 303 b 838 302 832 302 835 302 l 851 300 b 876 297 859 300 867 299 b 898 294 883 296 891 295 l 927 290 b 1030 276 961 284 995 280 b 1044 275 1034 276 1039 275 b 1033 248 1040 265 1036 257 b 967 55 1007 185 985 121 b 945 -45 957 19 950 -14 b 941 -71 943 -54 942 -62 b 938 -97 940 -80 939 -89 b 937 -119 937 -105 937 -112 b 899 -112 924 -116 912 -113 b 797 -104 865 -106 831 -104 b 596 -128 734 -105 668 -113 b 498 -152 564 -134 531 -143 b 403 -178 465 -162 434 -171 b 209 -206 339 -192 274 -202 b 13 -195 137 -210 73 -206 b -81 -170 -19 -190 -50 -181 b -163 -122 -115 -157 -142 -141 b -193 -87 -175 -112 -185 -100 b -207 -45 -200 -74 -205 -60 b -201 -1 -208 -30 -206 -15 b -180 41 -196 14 -189 28 l -178 43 l -178 43 b -183 57 -177 48 -178 54 b -199 54 -188 61 -195 59 b -222 7 -209 39 -217 23 b -229 -47 -228 -11 -231 -29 b -212 -99 -227 -65 -221 -83 b -178 -139 -203 -114 -191 -127 b -89 -190 -154 -159 -125 -176 b 9 -217 -57 -202 -24 -211 b 210 -229 70 -229 136 -232 b 409 -203 277 -226 343 -217 b 506 -179 438 -197 470 -189 b 602 -158 538 -171 571 -164 b 796 -143 666 -146 731 -141 b 892 -153 828 -144 860 -148 b 938 -164 910 -157 925 -160 l 939 -164 b 942 -177 940 -169 941 -173 b 951 -204 944 -186 947 -196 b 972 -228 956 -214 963 -222 l 972 -228 b 995 -235 979 -232 987 -235 b 1005 -234 998 -235 1001 -234 b 1018 -230 1009 -233 1013 -231 l 1021 -229 b 1024 -228 1022 -228 1023 -228 b 1032 -224 1027 -227 1029 -225 b 1040 -218 1035 -222 1037 -220 b 1046 -207 1043 -215 1045 -211 b 1046 -184 1049 -200 1049 -191 b 1036 -167 1044 -177 1041 -172 b 1024 -156 1033 -163 1029 -160 b 1000 -142 1017 -151 1009 -146 b 978 -132 993 -138 985 -135 b 983 -104 979 -123 981 -113 b 996 -58 986 -88 991 -73 b 1032 32 1006 -27 1018 2 b 1125 203 1060 91 1093 149 b 1164 270 1138 226 1151 248 b 1238 272 1190 270 1215 270 b 1342 287 1273 274 1308 279 b 1393 304 1360 291 1377 297 b 1418 318 1402 308 1410 312 b 1429 329 1422 321 1425 325 b 1436 345 1433 333 1435 339 b 1429 357 1438 350 1434 355 b 1416 350 1423 358 1418 355 l 1416 349 b 1405 335 1415 345 1411 340 b 1385 324 1399 331 1392 327 b 1337 310 1369 318 1353 313 b 1237 298 1304 303 1270 299 b 1181 297 1219 297 1200 297 l 1226 371 l 1276 455 b 1327 539 1294 485 1312 514 b 1354 582 1337 554 1346 570 b 1375 618 1361 594 1368 606 l 1379 626 b 1428 715 1396 655 1412 685 b 1512 900 1459 775 1487 837 b 1575 1093 1537 963 1558 1028 b 1577 1101 1576 1096 1577 1099 b 1582 1118 1579 1107 1580 1112 l 1582 1122 b 1587 1143 1584 1129 1586 1136 b 1597 1193 1591 1159 1594 1176 b 1604 1244 1600 1210 1602 1227 l 1604 1245 b 1606 1269 1605 1253 1606 1261 b 1607 1295 1607 1278 1607 1286 b 1601 1308 1608 1300 1605 1305 z m 1546 1207 b 1537 1184 1544 1199 1541 1191 b 1528 1161 1534 1176 1531 1168 b 1509 1116 1522 1146 1515 1131 b 1489 1071 1503 1102 1496 1087 b 1468 1027 1482 1057 1475 1042 b 1424 940 1452 995 1438 966 b 1377 854 1412 917 1395 885 b 1332 775 1363 828 1347 801 l 1303 728 l 1290 707 b 1278 687 1286 700 1282 693 b 1267 671 1274 681 1271 676 b 1251 646 1262 662 1257 654 l 1224 604 b 1171 519 1206 576 1188 548 b 1120 432 1154 490 1136 461 b 1057 304 1097 390 1076 348 b 1033 307 1048 305 1041 306 b 932 323 1000 311 966 316 l 904 328 b 881 332 896 329 889 331 l 878 332 b 855 336 870 334 863 335 l 842 338 b 834 339 840 338 837 338 b 829 339 832 339 831 339 b 817 340 825 340 821 340 l 829 352 l 847 371 b 879 405 858 382 869 393 l 937 465 b 948 477 940 469 944 473 b 954 484 950 479 952 482 b 979 511 962 493 971 502 b 1024 561 994 527 1009 544 l 1092 638 b 1354 959 1173 733 1256 835 l 1385 1000 l 1417 1041 b 1464 1102 1433 1061 1449 1082 b 1480 1123 1469 1109 1475 1116 l 1550 1215 b 1546 1207 1549 1212 1548 1209 z m 252 31 b 248 31 251 31 250 31 b 243 31 247 31 245 31 b 233 32 240 31 236 31 l 232 32 b 217 40 226 33 221 36 b 213 47 215 42 214 44 b 212 56 212 50 212 53 b 219 77 213 63 215 70 b 232 96 222 84 227 90 b 266 131 242 109 254 121 b 306 161 277 140 290 149 b 348 189 319 170 332 179 l 373 205 b 391 216 379 208 385 212 b 434 239 405 224 419 232 b 624 296 495 267 559 286 b 694 304 648 300 671 302 b 620 237 670 281 645 259 b 541 172 590 211 565 190 b 459 113 513 150 486 131 b 416 87 444 103 429 94 b 372 64 404 80 388 72 b 278 34 338 48 307 39 b 254 31 270 33 262 32 z m 1001 -214 b 987 -209 996 -214 991 -212 b 978 -193 983 -205 980 -199 b 975 -177 977 -188 976 -183 b 981 -180 977 -178 979 -179 l 981 -180 b 999 -191 988 -183 994 -187 b 1007 -197 1002 -192 1004 -194 b 1010 -199 1008 -198 1009 -198 b 1013 -202 1011 -200 1012 -201 l 1014 -203 b 1016 -205 1014 -203 1015 -204 b 1016 -206 1016 -206 1016 -206 l 1015 -207 b 1013 -209 1015 -208 1014 -208 b 1011 -211 1013 -210 1012 -210 b 1010 -212 1011 -211 1010 -211 b 1002 -214 1007 -213 1005 -214 z "},"Â":{"ha":1396,"x_min":0,"x_max":0,"o":"m 1601 1308 l 1601 1308 b 1581 1304 1595 1313 1585 1311 b 1520 1222 1564 1280 1544 1253 l 1515 1215 b 1489 1181 1506 1203 1498 1192 l 1457 1141 b 1326 982 1421 1096 1374 1039 b 1053 673 1243 884 1154 783 l 983 598 b 937 549 968 582 952 565 b 912 523 929 540 920 532 b 870 479 898 508 884 494 b 841 449 860 469 851 459 l 838 446 b 805 412 827 435 816 423 l 787 394 l 769 376 b 738 345 759 366 748 356 b 724 346 733 346 728 346 b 618 340 689 346 654 344 b 414 282 544 331 475 311 b 366 257 397 275 382 266 b 344 242 359 252 351 247 b 322 227 337 238 330 233 b 244 154 294 205 267 181 b 211 111 232 141 221 126 b 198 86 206 103 202 95 b 192 58 194 77 192 68 b 193 42 191 52 192 47 b 199 27 194 37 196 31 b 225 6 205 17 214 10 b 240 2 230 4 235 2 b 248 1 243 1 246 1 b 253 1 250 1 251 1 b 255 1 254 1 254 1 b 283 2 264 1 274 1 b 387 29 315 6 348 14 b 435 51 404 36 421 44 b 482 76 448 57 465 66 b 655 195 537 107 594 146 b 781 305 697 228 739 266 b 826 303 796 305 811 304 l 829 303 b 838 302 832 302 835 302 l 851 300 b 876 297 859 300 867 299 b 898 294 883 296 891 295 l 927 290 b 1030 276 961 284 995 280 b 1044 275 1034 276 1039 275 b 1033 248 1040 265 1036 257 b 967 55 1007 185 985 121 b 945 -45 957 19 950 -14 b 941 -71 943 -54 942 -62 b 938 -97 940 -80 939 -89 b 937 -119 937 -105 937 -112 b 899 -112 924 -116 912 -113 b 797 -104 865 -106 831 -104 b 596 -128 734 -105 668 -113 b 498 -152 564 -134 531 -143 b 403 -178 465 -162 434 -171 b 209 -206 339 -192 274 -202 b 13 -195 137 -210 73 -206 b -81 -170 -19 -190 -50 -181 b -163 -122 -115 -157 -142 -141 b -193 -87 -175 -112 -185 -100 b -207 -45 -200 -74 -205 -60 b -201 -1 -208 -30 -206 -15 b -180 41 -196 14 -189 28 l -178 43 l -178 43 b -183 57 -177 48 -178 54 b -199 54 -188 61 -195 59 b -222 7 -209 39 -217 23 b -229 -47 -228 -11 -231 -29 b -212 -99 -227 -65 -221 -83 b -178 -139 -203 -114 -191 -127 b -89 -190 -154 -159 -125 -176 b 9 -217 -57 -202 -24 -211 b 210 -229 70 -229 136 -232 b 409 -203 277 -226 343 -217 b 506 -179 438 -197 470 -189 b 602 -158 538 -171 571 -164 b 796 -143 666 -146 731 -141 b 892 -153 828 -144 860 -148 b 938 -164 910 -157 925 -160 l 939 -164 b 942 -177 940 -169 941 -173 b 951 -204 944 -186 947 -196 b 972 -228 956 -214 963 -222 l 972 -228 b 995 -235 979 -232 987 -235 b 1005 -234 998 -235 1001 -234 b 1018 -230 1009 -233 1013 -231 l 1021 -229 b 1024 -228 1022 -228 1023 -228 b 1032 -224 1027 -227 1029 -225 b 1040 -218 1035 -222 1037 -220 b 1046 -207 1043 -215 1045 -211 b 1046 -184 1049 -200 1049 -191 b 1036 -167 1044 -177 1041 -172 b 1024 -156 1033 -163 1029 -160 b 1000 -142 1017 -151 1009 -146 b 978 -132 993 -138 985 -135 b 983 -104 979 -123 981 -113 b 996 -58 986 -88 991 -73 b 1032 32 1006 -27 1018 2 b 1125 203 1060 91 1093 149 b 1164 270 1138 226 1151 248 b 1238 272 1190 270 1215 270 b 1342 287 1273 274 1308 279 b 1393 304 1360 291 1377 297 b 1418 318 1402 308 1410 312 b 1429 329 1422 321 1425 325 b 1436 345 1433 333 1435 339 b 1429 357 1438 350 1434 355 b 1416 350 1423 358 1418 355 l 1416 349 b 1405 335 1415 345 1411 340 b 1385 324 1399 331 1392 327 b 1337 310 1369 318 1353 313 b 1237 298 1304 303 1270 299 b 1181 297 1219 297 1200 297 l 1226 371 l 1276 455 b 1327 539 1294 485 1312 514 b 1354 582 1337 554 1346 570 b 1375 618 1361 594 1368 606 l 1379 626 b 1428 715 1396 655 1412 685 b 1512 900 1459 775 1487 837 b 1575 1093 1537 963 1558 1028 b 1577 1101 1576 1096 1577 1099 b 1582 1118 1579 1107 1580 1112 l 1582 1122 b 1587 1143 1584 1129 1586 1136 b 1597 1193 1591 1159 1594 1176 b 1604 1244 1600 1210 1602 1227 l 1604 1245 b 1606 1269 1605 1253 1606 1261 b 1607 1295 1607 1278 1607 1286 b 1601 1308 1608 1300 1605 1305 z m 1546 1207 b 1537 1184 1544 1199 1541 1191 b 1528 1161 1534 1176 1531 1168 b 1509 1116 1522 1146 1515 1131 b 1489 1071 1503 1102 1496 1087 b 1468 1027 1482 1057 1475 1042 b 1424 940 1452 995 1438 966 b 1377 854 1412 917 1395 885 b 1332 775 1363 828 1347 801 l 1303 728 l 1290 707 b 1278 687 1286 700 1282 693 b 1267 671 1274 681 1271 676 b 1251 646 1262 662 1257 654 l 1224 604 b 1171 519 1206 576 1188 548 b 1120 432 1154 490 1136 461 b 1057 304 1097 390 1076 348 b 1033 307 1048 305 1041 306 b 932 323 1000 311 966 316 l 904 328 b 881 332 896 329 889 331 l 878 332 b 855 336 870 334 863 335 l 842 338 b 834 339 840 338 837 338 b 829 339 832 339 831 339 b 817 340 825 340 821 340 l 829 352 l 847 371 b 879 405 858 382 869 393 l 937 465 b 948 477 940 469 944 473 b 954 484 950 479 952 482 b 979 511 962 493 971 502 b 1024 561 994 527 1009 544 l 1092 638 b 1354 959 1173 733 1256 835 l 1385 1000 l 1417 1041 b 1464 1102 1433 1061 1449 1082 b 1480 1123 1469 1109 1475 1116 l 1550 1215 b 1546 1207 1549 1212 1548 1209 z m 252 31 b 248 31 251 31 250 31 b 243 31 247 31 245 31 b 233 32 240 31 236 31 l 232 32 b 217 40 226 33 221 36 b 213 47 215 42 214 44 b 212 56 212 50 212 53 b 219 77 213 63 215 70 b 232 96 222 84 227 90 b 266 131 242 109 254 121 b 306 161 277 140 290 149 b 348 189 319 170 332 179 l 373 205 b 391 216 379 208 385 212 b 434 239 405 224 419 232 b 624 296 495 267 559 286 b 694 304 648 300 671 302 b 620 237 670 281 645 259 b 541 172 590 211 565 190 b 459 113 513 150 486 131 b 416 87 444 103 429 94 b 372 64 404 80 388 72 b 278 34 338 48 307 39 b 254 31 270 33 262 32 z m 1001 -214 b 987 -209 996 -214 991 -212 b 978 -193 983 -205 980 -199 b 975 -177 977 -188 976 -183 b 981 -180 977 -178 979 -179 l 981 -180 b 999 -191 988 -183 994 -187 b 1007 -197 1002 -192 1004 -194 b 1010 -199 1008 -198 1009 -198 b 1013 -202 1011 -200 1012 -201 l 1014 -203 b 1016 -205 1014 -203 1015 -204 b 1016 -206 1016 -206 1016 -206 l 1015 -207 b 1013 -209 1015 -208 1014 -208 b 1011 -211 1013 -210 1012 -210 b 1010 -212 1011 -211 1010 -211 b 1002 -214 1007 -213 1005 -214 z "},"Ã":{"ha":1396,"x_min":0,"x_max":0,"o":"m 1601 1308 l 1601 1308 b 1581 1304 1595 1313 1585 1311 b 1520 1222 1564 1280 1544 1253 l 1515 1215 b 1489 1181 1506 1203 1498 1192 l 1457 1141 b 1326 982 1421 1096 1374 1039 b 1053 673 1243 884 1154 783 l 983 598 b 937 549 968 582 952 565 b 912 523 929 540 920 532 b 870 479 898 508 884 494 b 841 449 860 469 851 459 l 838 446 b 805 412 827 435 816 423 l 787 394 l 769 376 b 738 345 759 366 748 356 b 724 346 733 346 728 346 b 618 340 689 346 654 344 b 414 282 544 331 475 311 b 366 257 397 275 382 266 b 344 242 359 252 351 247 b 322 227 337 238 330 233 b 244 154 294 205 267 181 b 211 111 232 141 221 126 b 198 86 206 103 202 95 b 192 58 194 77 192 68 b 193 42 191 52 192 47 b 199 27 194 37 196 31 b 225 6 205 17 214 10 b 240 2 230 4 235 2 b 248 1 243 1 246 1 b 253 1 250 1 251 1 b 255 1 254 1 254 1 b 283 2 264 1 274 1 b 387 29 315 6 348 14 b 435 51 404 36 421 44 b 482 76 448 57 465 66 b 655 195 537 107 594 146 b 781 305 697 228 739 266 b 826 303 796 305 811 304 l 829 303 b 838 302 832 302 835 302 l 851 300 b 876 297 859 300 867 299 b 898 294 883 296 891 295 l 927 290 b 1030 276 961 284 995 280 b 1044 275 1034 276 1039 275 b 1033 248 1040 265 1036 257 b 967 55 1007 185 985 121 b 945 -45 957 19 950 -14 b 941 -71 943 -54 942 -62 b 938 -97 940 -80 939 -89 b 937 -119 937 -105 937 -112 b 899 -112 924 -116 912 -113 b 797 -104 865 -106 831 -104 b 596 -128 734 -105 668 -113 b 498 -152 564 -134 531 -143 b 403 -178 465 -162 434 -171 b 209 -206 339 -192 274 -202 b 13 -195 137 -210 73 -206 b -81 -170 -19 -190 -50 -181 b -163 -122 -115 -157 -142 -141 b -193 -87 -175 -112 -185 -100 b -207 -45 -200 -74 -205 -60 b -201 -1 -208 -30 -206 -15 b -180 41 -196 14 -189 28 l -178 43 l -178 43 b -183 57 -177 48 -178 54 b -199 54 -188 61 -195 59 b -222 7 -209 39 -217 23 b -229 -47 -228 -11 -231 -29 b -212 -99 -227 -65 -221 -83 b -178 -139 -203 -114 -191 -127 b -89 -190 -154 -159 -125 -176 b 9 -217 -57 -202 -24 -211 b 210 -229 70 -229 136 -232 b 409 -203 277 -226 343 -217 b 506 -179 438 -197 470 -189 b 602 -158 538 -171 571 -164 b 796 -143 666 -146 731 -141 b 892 -153 828 -144 860 -148 b 938 -164 910 -157 925 -160 l 939 -164 b 942 -177 940 -169 941 -173 b 951 -204 944 -186 947 -196 b 972 -228 956 -214 963 -222 l 972 -228 b 995 -235 979 -232 987 -235 b 1005 -234 998 -235 1001 -234 b 1018 -230 1009 -233 1013 -231 l 1021 -229 b 1024 -228 1022 -228 1023 -228 b 1032 -224 1027 -227 1029 -225 b 1040 -218 1035 -222 1037 -220 b 1046 -207 1043 -215 1045 -211 b 1046 -184 1049 -200 1049 -191 b 1036 -167 1044 -177 1041 -172 b 1024 -156 1033 -163 1029 -160 b 1000 -142 1017 -151 1009 -146 b 978 -132 993 -138 985 -135 b 983 -104 979 -123 981 -113 b 996 -58 986 -88 991 -73 b 1032 32 1006 -27 1018 2 b 1125 203 1060 91 1093 149 b 1164 270 1138 226 1151 248 b 1238 272 1190 270 1215 270 b 1342 287 1273 274 1308 279 b 1393 304 1360 291 1377 297 b 1418 318 1402 308 1410 312 b 1429 329 1422 321 1425 325 b 1436 345 1433 333 1435 339 b 1429 357 1438 350 1434 355 b 1416 350 1423 358 1418 355 l 1416 349 b 1405 335 1415 345 1411 340 b 1385 324 1399 331 1392 327 b 1337 310 1369 318 1353 313 b 1237 298 1304 303 1270 299 b 1181 297 1219 297 1200 297 l 1226 371 l 1276 455 b 1327 539 1294 485 1312 514 b 1354 582 1337 554 1346 570 b 1375 618 1361 594 1368 606 l 1379 626 b 1428 715 1396 655 1412 685 b 1512 900 1459 775 1487 837 b 1575 1093 1537 963 1558 1028 b 1577 1101 1576 1096 1577 1099 b 1582 1118 1579 1107 1580 1112 l 1582 1122 b 1587 1143 1584 1129 1586 1136 b 1597 1193 1591 1159 1594 1176 b 1604 1244 1600 1210 1602 1227 l 1604 1245 b 1606 1269 1605 1253 1606 1261 b 1607 1295 1607 1278 1607 1286 b 1601 1308 1608 1300 1605 1305 z m 1546 1207 b 1537 1184 1544 1199 1541 1191 b 1528 1161 1534 1176 1531 1168 b 1509 1116 1522 1146 1515 1131 b 1489 1071 1503 1102 1496 1087 b 1468 1027 1482 1057 1475 1042 b 1424 940 1452 995 1438 966 b 1377 854 1412 917 1395 885 b 1332 775 1363 828 1347 801 l 1303 728 l 1290 707 b 1278 687 1286 700 1282 693 b 1267 671 1274 681 1271 676 b 1251 646 1262 662 1257 654 l 1224 604 b 1171 519 1206 576 1188 548 b 1120 432 1154 490 1136 461 b 1057 304 1097 390 1076 348 b 1033 307 1048 305 1041 306 b 932 323 1000 311 966 316 l 904 328 b 881 332 896 329 889 331 l 878 332 b 855 336 870 334 863 335 l 842 338 b 834 339 840 338 837 338 b 829 339 832 339 831 339 b 817 340 825 340 821 340 l 829 352 l 847 371 b 879 405 858 382 869 393 l 937 465 b 948 477 940 469 944 473 b 954 484 950 479 952 482 b 979 511 962 493 971 502 b 1024 561 994 527 1009 544 l 1092 638 b 1354 959 1173 733 1256 835 l 1385 1000 l 1417 1041 b 1464 1102 1433 1061 1449 1082 b 1480 1123 1469 1109 1475 1116 l 1550 1215 b 1546 1207 1549 1212 1548 1209 z m 252 31 b 248 31 251 31 250 31 b 243 31 247 31 245 31 b 233 32 240 31 236 31 l 232 32 b 217 40 226 33 221 36 b 213 47 215 42 214 44 b 212 56 212 50 212 53 b 219 77 213 63 215 70 b 232 96 222 84 227 90 b 266 131 242 109 254 121 b 306 161 277 140 290 149 b 348 189 319 170 332 179 l 373 205 b 391 216 379 208 385 212 b 434 239 405 224 419 232 b 624 296 495 267 559 286 b 694 304 648 300 671 302 b 620 237 670 281 645 259 b 541 172 590 211 565 190 b 459 113 513 150 486 131 b 416 87 444 103 429 94 b 372 64 404 80 388 72 b 278 34 338 48 307 39 b 254 31 270 33 262 32 z m 1001 -214 b 987 -209 996 -214 991 -212 b 978 -193 983 -205 980 -199 b 975 -177 977 -188 976 -183 b 981 -180 977 -178 979 -179 l 981 -180 b 999 -191 988 -183 994 -187 b 1007 -197 1002 -192 1004 -194 b 1010 -199 1008 -198 1009 -198 b 1013 -202 1011 -200 1012 -201 l 1014 -203 b 1016 -205 1014 -203 1015 -204 b 1016 -206 1016 -206 1016 -206 l 1015 -207 b 1013 -209 1015 -208 1014 -208 b 1011 -211 1013 -210 1012 -210 b 1010 -212 1011 -211 1010 -211 b 1002 -214 1007 -213 1005 -214 z "},"Ä":{"ha":1396,"x_min":0,"x_max":0,"o":"m 1601 1308 l 1601 1308 b 1581 1304 1595 1313 1585 1311 b 1520 1222 1564 1280 1544 1253 l 1515 1215 b 1489 1181 1506 1203 1498 1192 l 1457 1141 b 1326 982 1421 1096 1374 1039 b 1053 673 1243 884 1154 783 l 983 598 b 937 549 968 582 952 565 b 912 523 929 540 920 532 b 870 479 898 508 884 494 b 841 449 860 469 851 459 l 838 446 b 805 412 827 435 816 423 l 787 394 l 769 376 b 738 345 759 366 748 356 b 724 346 733 346 728 346 b 618 340 689 346 654 344 b 414 282 544 331 475 311 b 366 257 397 275 382 266 b 344 242 359 252 351 247 b 322 227 337 238 330 233 b 244 154 294 205 267 181 b 211 111 232 141 221 126 b 198 86 206 103 202 95 b 192 58 194 77 192 68 b 193 42 191 52 192 47 b 199 27 194 37 196 31 b 225 6 205 17 214 10 b 240 2 230 4 235 2 b 248 1 243 1 246 1 b 253 1 250 1 251 1 b 255 1 254 1 254 1 b 283 2 264 1 274 1 b 387 29 315 6 348 14 b 435 51 404 36 421 44 b 482 76 448 57 465 66 b 655 195 537 107 594 146 b 781 305 697 228 739 266 b 826 303 796 305 811 304 l 829 303 b 838 302 832 302 835 302 l 851 300 b 876 297 859 300 867 299 b 898 294 883 296 891 295 l 927 290 b 1030 276 961 284 995 280 b 1044 275 1034 276 1039 275 b 1033 248 1040 265 1036 257 b 967 55 1007 185 985 121 b 945 -45 957 19 950 -14 b 941 -71 943 -54 942 -62 b 938 -97 940 -80 939 -89 b 937 -119 937 -105 937 -112 b 899 -112 924 -116 912 -113 b 797 -104 865 -106 831 -104 b 596 -128 734 -105 668 -113 b 498 -152 564 -134 531 -143 b 403 -178 465 -162 434 -171 b 209 -206 339 -192 274 -202 b 13 -195 137 -210 73 -206 b -81 -170 -19 -190 -50 -181 b -163 -122 -115 -157 -142 -141 b -193 -87 -175 -112 -185 -100 b -207 -45 -200 -74 -205 -60 b -201 -1 -208 -30 -206 -15 b -180 41 -196 14 -189 28 l -178 43 l -178 43 b -183 57 -177 48 -178 54 b -199 54 -188 61 -195 59 b -222 7 -209 39 -217 23 b -229 -47 -228 -11 -231 -29 b -212 -99 -227 -65 -221 -83 b -178 -139 -203 -114 -191 -127 b -89 -190 -154 -159 -125 -176 b 9 -217 -57 -202 -24 -211 b 210 -229 70 -229 136 -232 b 409 -203 277 -226 343 -217 b 506 -179 438 -197 470 -189 b 602 -158 538 -171 571 -164 b 796 -143 666 -146 731 -141 b 892 -153 828 -144 860 -148 b 938 -164 910 -157 925 -160 l 939 -164 b 942 -177 940 -169 941 -173 b 951 -204 944 -186 947 -196 b 972 -228 956 -214 963 -222 l 972 -228 b 995 -235 979 -232 987 -235 b 1005 -234 998 -235 1001 -234 b 1018 -230 1009 -233 1013 -231 l 1021 -229 b 1024 -228 1022 -228 1023 -228 b 1032 -224 1027 -227 1029 -225 b 1040 -218 1035 -222 1037 -220 b 1046 -207 1043 -215 1045 -211 b 1046 -184 1049 -200 1049 -191 b 1036 -167 1044 -177 1041 -172 b 1024 -156 1033 -163 1029 -160 b 1000 -142 1017 -151 1009 -146 b 978 -132 993 -138 985 -135 b 983 -104 979 -123 981 -113 b 996 -58 986 -88 991 -73 b 1032 32 1006 -27 1018 2 b 1125 203 1060 91 1093 149 b 1164 270 1138 226 1151 248 b 1238 272 1190 270 1215 270 b 1342 287 1273 274 1308 279 b 1393 304 1360 291 1377 297 b 1418 318 1402 308 1410 312 b 1429 329 1422 321 1425 325 b 1436 345 1433 333 1435 339 b 1429 357 1438 350 1434 355 b 1416 350 1423 358 1418 355 l 1416 349 b 1405 335 1415 345 1411 340 b 1385 324 1399 331 1392 327 b 1337 310 1369 318 1353 313 b 1237 298 1304 303 1270 299 b 1181 297 1219 297 1200 297 l 1226 371 l 1276 455 b 1327 539 1294 485 1312 514 b 1354 582 1337 554 1346 570 b 1375 618 1361 594 1368 606 l 1379 626 b 1428 715 1396 655 1412 685 b 1512 900 1459 775 1487 837 b 1575 1093 1537 963 1558 1028 b 1577 1101 1576 1096 1577 1099 b 1582 1118 1579 1107 1580 1112 l 1582 1122 b 1587 1143 1584 1129 1586 1136 b 1597 1193 1591 1159 1594 1176 b 1604 1244 1600 1210 1602 1227 l 1604 1245 b 1606 1269 1605 1253 1606 1261 b 1607 1295 1607 1278 1607 1286 b 1601 1308 1608 1300 1605 1305 z m 1546 1207 b 1537 1184 1544 1199 1541 1191 b 1528 1161 1534 1176 1531 1168 b 1509 1116 1522 1146 1515 1131 b 1489 1071 1503 1102 1496 1087 b 1468 1027 1482 1057 1475 1042 b 1424 940 1452 995 1438 966 b 1377 854 1412 917 1395 885 b 1332 775 1363 828 1347 801 l 1303 728 l 1290 707 b 1278 687 1286 700 1282 693 b 1267 671 1274 681 1271 676 b 1251 646 1262 662 1257 654 l 1224 604 b 1171 519 1206 576 1188 548 b 1120 432 1154 490 1136 461 b 1057 304 1097 390 1076 348 b 1033 307 1048 305 1041 306 b 932 323 1000 311 966 316 l 904 328 b 881 332 896 329 889 331 l 878 332 b 855 336 870 334 863 335 l 842 338 b 834 339 840 338 837 338 b 829 339 832 339 831 339 b 817 340 825 340 821 340 l 829 352 l 847 371 b 879 405 858 382 869 393 l 937 465 b 948 477 940 469 944 473 b 954 484 950 479 952 482 b 979 511 962 493 971 502 b 1024 561 994 527 1009 544 l 1092 638 b 1354 959 1173 733 1256 835 l 1385 1000 l 1417 1041 b 1464 1102 1433 1061 1449 1082 b 1480 1123 1469 1109 1475 1116 l 1550 1215 b 1546 1207 1549 1212 1548 1209 z m 252 31 b 248 31 251 31 250 31 b 243 31 247 31 245 31 b 233 32 240 31 236 31 l 232 32 b 217 40 226 33 221 36 b 213 47 215 42 214 44 b 212 56 212 50 212 53 b 219 77 213 63 215 70 b 232 96 222 84 227 90 b 266 131 242 109 254 121 b 306 161 277 140 290 149 b 348 189 319 170 332 179 l 373 205 b 391 216 379 208 385 212 b 434 239 405 224 419 232 b 624 296 495 267 559 286 b 694 304 648 300 671 302 b 620 237 670 281 645 259 b 541 172 590 211 565 190 b 459 113 513 150 486 131 b 416 87 444 103 429 94 b 372 64 404 80 388 72 b 278 34 338 48 307 39 b 254 31 270 33 262 32 z m 1001 -214 b 987 -209 996 -214 991 -212 b 978 -193 983 -205 980 -199 b 975 -177 977 -188 976 -183 b 981 -180 977 -178 979 -179 l 981 -180 b 999 -191 988 -183 994 -187 b 1007 -197 1002 -192 1004 -194 b 1010 -199 1008 -198 1009 -198 b 1013 -202 1011 -200 1012 -201 l 1014 -203 b 1016 -205 1014 -203 1015 -204 b 1016 -206 1016 -206 1016 -206 l 1015 -207 b 1013 -209 1015 -208 1014 -208 b 1011 -211 1013 -210 1012 -210 b 1010 -212 1011 -211 1010 -211 b 1002 -214 1007 -213 1005 -214 z "},"Å":{"ha":1396,"x_min":0,"x_max":0,"o":"m 1601 1308 l 1601 1308 b 1581 1304 1595 1313 1585 1311 b 1520 1222 1564 1280 1544 1253 l 1515 1215 b 1489 1181 1506 1203 1498 1192 l 1457 1141 b 1326 982 1421 1096 1374 1039 b 1053 673 1243 884 1154 783 l 983 598 b 937 549 968 582 952 565 b 912 523 929 540 920 532 b 870 479 898 508 884 494 b 841 449 860 469 851 459 l 838 446 b 805 412 827 435 816 423 l 787 394 l 769 376 b 738 345 759 366 748 356 b 724 346 733 346 728 346 b 618 340 689 346 654 344 b 414 282 544 331 475 311 b 366 257 397 275 382 266 b 344 242 359 252 351 247 b 322 227 337 238 330 233 b 244 154 294 205 267 181 b 211 111 232 141 221 126 b 198 86 206 103 202 95 b 192 58 194 77 192 68 b 193 42 191 52 192 47 b 199 27 194 37 196 31 b 225 6 205 17 214 10 b 240 2 230 4 235 2 b 248 1 243 1 246 1 b 253 1 250 1 251 1 b 255 1 254 1 254 1 b 283 2 264 1 274 1 b 387 29 315 6 348 14 b 435 51 404 36 421 44 b 482 76 448 57 465 66 b 655 195 537 107 594 146 b 781 305 697 228 739 266 b 826 303 796 305 811 304 l 829 303 b 838 302 832 302 835 302 l 851 300 b 876 297 859 300 867 299 b 898 294 883 296 891 295 l 927 290 b 1030 276 961 284 995 280 b 1044 275 1034 276 1039 275 b 1033 248 1040 265 1036 257 b 967 55 1007 185 985 121 b 945 -45 957 19 950 -14 b 941 -71 943 -54 942 -62 b 938 -97 940 -80 939 -89 b 937 -119 937 -105 937 -112 b 899 -112 924 -116 912 -113 b 797 -104 865 -106 831 -104 b 596 -128 734 -105 668 -113 b 498 -152 564 -134 531 -143 b 403 -178 465 -162 434 -171 b 209 -206 339 -192 274 -202 b 13 -195 137 -210 73 -206 b -81 -170 -19 -190 -50 -181 b -163 -122 -115 -157 -142 -141 b -193 -87 -175 -112 -185 -100 b -207 -45 -200 -74 -205 -60 b -201 -1 -208 -30 -206 -15 b -180 41 -196 14 -189 28 l -178 43 l -178 43 b -183 57 -177 48 -178 54 b -199 54 -188 61 -195 59 b -222 7 -209 39 -217 23 b -229 -47 -228 -11 -231 -29 b -212 -99 -227 -65 -221 -83 b -178 -139 -203 -114 -191 -127 b -89 -190 -154 -159 -125 -176 b 9 -217 -57 -202 -24 -211 b 210 -229 70 -229 136 -232 b 409 -203 277 -226 343 -217 b 506 -179 438 -197 470 -189 b 602 -158 538 -171 571 -164 b 796 -143 666 -146 731 -141 b 892 -153 828 -144 860 -148 b 938 -164 910 -157 925 -160 l 939 -164 b 942 -177 940 -169 941 -173 b 951 -204 944 -186 947 -196 b 972 -228 956 -214 963 -222 l 972 -228 b 995 -235 979 -232 987 -235 b 1005 -234 998 -235 1001 -234 b 1018 -230 1009 -233 1013 -231 l 1021 -229 b 1024 -228 1022 -228 1023 -228 b 1032 -224 1027 -227 1029 -225 b 1040 -218 1035 -222 1037 -220 b 1046 -207 1043 -215 1045 -211 b 1046 -184 1049 -200 1049 -191 b 1036 -167 1044 -177 1041 -172 b 1024 -156 1033 -163 1029 -160 b 1000 -142 1017 -151 1009 -146 b 978 -132 993 -138 985 -135 b 983 -104 979 -123 981 -113 b 996 -58 986 -88 991 -73 b 1032 32 1006 -27 1018 2 b 1125 203 1060 91 1093 149 b 1164 270 1138 226 1151 248 b 1238 272 1190 270 1215 270 b 1342 287 1273 274 1308 279 b 1393 304 1360 291 1377 297 b 1418 318 1402 308 1410 312 b 1429 329 1422 321 1425 325 b 1436 345 1433 333 1435 339 b 1429 357 1438 350 1434 355 b 1416 350 1423 358 1418 355 l 1416 349 b 1405 335 1415 345 1411 340 b 1385 324 1399 331 1392 327 b 1337 310 1369 318 1353 313 b 1237 298 1304 303 1270 299 b 1181 297 1219 297 1200 297 l 1226 371 l 1276 455 b 1327 539 1294 485 1312 514 b 1354 582 1337 554 1346 570 b 1375 618 1361 594 1368 606 l 1379 626 b 1428 715 1396 655 1412 685 b 1512 900 1459 775 1487 837 b 1575 1093 1537 963 1558 1028 b 1577 1101 1576 1096 1577 1099 b 1582 1118 1579 1107 1580 1112 l 1582 1122 b 1587 1143 1584 1129 1586 1136 b 1597 1193 1591 1159 1594 1176 b 1604 1244 1600 1210 1602 1227 l 1604 1245 b 1606 1269 1605 1253 1606 1261 b 1607 1295 1607 1278 1607 1286 b 1601 1308 1608 1300 1605 1305 z m 1546 1207 b 1537 1184 1544 1199 1541 1191 b 1528 1161 1534 1176 1531 1168 b 1509 1116 1522 1146 1515 1131 b 1489 1071 1503 1102 1496 1087 b 1468 1027 1482 1057 1475 1042 b 1424 940 1452 995 1438 966 b 1377 854 1412 917 1395 885 b 1332 775 1363 828 1347 801 l 1303 728 l 1290 707 b 1278 687 1286 700 1282 693 b 1267 671 1274 681 1271 676 b 1251 646 1262 662 1257 654 l 1224 604 b 1171 519 1206 576 1188 548 b 1120 432 1154 490 1136 461 b 1057 304 1097 390 1076 348 b 1033 307 1048 305 1041 306 b 932 323 1000 311 966 316 l 904 328 b 881 332 896 329 889 331 l 878 332 b 855 336 870 334 863 335 l 842 338 b 834 339 840 338 837 338 b 829 339 832 339 831 339 b 817 340 825 340 821 340 l 829 352 l 847 371 b 879 405 858 382 869 393 l 937 465 b 948 477 940 469 944 473 b 954 484 950 479 952 482 b 979 511 962 493 971 502 b 1024 561 994 527 1009 544 l 1092 638 b 1354 959 1173 733 1256 835 l 1385 1000 l 1417 1041 b 1464 1102 1433 1061 1449 1082 b 1480 1123 1469 1109 1475 1116 l 1550 1215 b 1546 1207 1549 1212 1548 1209 z m 252 31 b 248 31 251 31 250 31 b 243 31 247 31 245 31 b 233 32 240 31 236 31 l 232 32 b 217 40 226 33 221 36 b 213 47 215 42 214 44 b 212 56 212 50 212 53 b 219 77 213 63 215 70 b 232 96 222 84 227 90 b 266 131 242 109 254 121 b 306 161 277 140 290 149 b 348 189 319 170 332 179 l 373 205 b 391 216 379 208 385 212 b 434 239 405 224 419 232 b 624 296 495 267 559 286 b 694 304 648 300 671 302 b 620 237 670 281 645 259 b 541 172 590 211 565 190 b 459 113 513 150 486 131 b 416 87 444 103 429 94 b 372 64 404 80 388 72 b 278 34 338 48 307 39 b 254 31 270 33 262 32 z m 1001 -214 b 987 -209 996 -214 991 -212 b 978 -193 983 -205 980 -199 b 975 -177 977 -188 976 -183 b 981 -180 977 -178 979 -179 l 981 -180 b 999 -191 988 -183 994 -187 b 1007 -197 1002 -192 1004 -194 b 1010 -199 1008 -198 1009 -198 b 1013 -202 1011 -200 1012 -201 l 1014 -203 b 1016 -205 1014 -203 1015 -204 b 1016 -206 1016 -206 1016 -206 l 1015 -207 b 1013 -209 1015 -208 1014 -208 b 1011 -211 1013 -210 1012 -210 b 1010 -212 1011 -211 1010 -211 b 1002 -214 1007 -213 1005 -214 z "},"B":{"ha":1778,"x_min":0,"x_max":0,"o":"m 1775 990 b 1773 1010 1775 997 1774 1003 b 1772 1019 1773 1013 1772 1017 b 1770 1029 1771 1023 1770 1026 b 1756 1065 1766 1041 1762 1054 b 1736 1097 1751 1077 1744 1087 b 1711 1124 1729 1107 1720 1116 b 1654 1162 1694 1140 1675 1152 b 1624 1174 1644 1167 1634 1171 b 1608 1179 1618 1176 1613 1177 b 1592 1182 1603 1180 1597 1181 b 1557 1182 1580 1184 1569 1183 b 1530 1171 1548 1180 1539 1176 b 1551 1206 1537 1184 1544 1195 b 1570 1208 1556 1207 1563 1208 b 1603 1213 1581 1209 1592 1211 b 1620 1218 1609 1215 1614 1216 b 1636 1225 1626 1221 1631 1223 b 1666 1243 1646 1230 1656 1236 b 1691 1268 1675 1250 1684 1259 b 1707 1304 1700 1279 1705 1291 b 1706 1326 1709 1311 1708 1319 b 1691 1348 1704 1335 1698 1343 b 1679 1354 1687 1351 1684 1352 b 1668 1356 1676 1355 1672 1356 b 1647 1354 1661 1357 1653 1356 b 1612 1341 1634 1351 1623 1347 b 1557 1300 1592 1329 1573 1315 b 1488 1228 1532 1278 1509 1254 b 1377 1216 1447 1224 1412 1220 b 1187 1178 1313 1208 1249 1195 b 1160 1201 1179 1187 1170 1195 b 1099 1232 1141 1215 1120 1225 b 1032 1241 1077 1238 1055 1241 b 966 1236 1010 1241 988 1240 b 842 1195 923 1228 881 1214 b 785 1162 822 1185 803 1174 b 733 1122 767 1150 749 1137 b 645 1026 700 1094 670 1061 b 580 913 620 991 598 953 b 537 791 563 874 548 833 b 523 728 532 771 527 751 b 514 663 519 707 516 685 b 527 532 511 619 515 575 b 529 528 528 531 528 529 b 535 471 528 509 530 490 b 559 415 540 452 548 433 b 597 368 569 398 582 382 b 702 310 625 343 660 324 b 760 297 721 304 740 300 b 789 293 770 295 780 294 b 819 291 801 292 810 291 l 819 291 b 834 305 827 291 833 297 b 821 320 834 313 828 319 l 820 320 b 790 324 812 321 801 322 b 784 325 788 324 786 325 l 781 326 b 776 327 780 326 778 327 b 762 332 772 329 767 330 b 706 357 742 339 724 347 b 612 434 670 377 638 403 b 557 532 587 463 569 496 b 632 665 561 586 588 634 b 679 686 646 675 662 682 b 721 687 693 689 707 689 b 721 686 721 687 721 687 b 728 619 721 664 723 641 b 753 555 733 596 741 575 b 798 503 764 535 779 517 b 827 485 807 496 816 490 b 858 473 837 480 847 476 b 873 469 863 472 868 470 b 875 422 874 454 875 438 b 863 311 875 385 871 347 b 823 180 855 266 841 222 b 785 199 809 187 797 193 b 725 224 763 209 744 217 b 534 257 664 246 599 257 b 468 249 512 257 490 254 b 406 219 442 243 422 233 b 382 189 396 210 388 201 b 375 173 380 184 377 178 b 374 169 375 171 374 170 l 373 168 b 372 163 373 166 372 164 b 371 152 371 159 371 156 b 380 112 370 138 374 124 b 404 82 386 101 394 91 b 461 44 421 66 440 54 b 523 19 481 34 501 26 b 586 2 544 12 565 7 b 652 -7 608 -2 630 -5 b 674 -8 659 -8 667 -8 b 685 -8 678 -8 681 -8 b 697 -8 689 -8 693 -8 b 636 -65 678 -29 658 -47 b 543 -126 607 -88 576 -109 b 439 -166 510 -143 475 -156 b 330 -180 409 -173 369 -182 b 278 -174 312 -180 295 -177 b 223 -156 259 -170 241 -164 b 11 67 125 -107 51 -30 b 9 71 10 68 10 70 b -15 164 -4 100 -9 131 b -18 177 -16 168 -17 173 b -12 400 -30 243 -28 316 b 174 786 17 550 83 687 b 345 929 227 842 279 895 b 449 967 378 946 413 959 b 503 973 467 971 485 973 b 557 967 521 974 539 972 l 558 966 l 558 966 b 571 975 564 965 570 969 b 563 989 573 981 569 987 b 503 997 544 995 523 997 b 444 990 483 997 463 994 b 334 950 406 982 369 968 b 149 811 268 916 206 870 b -64 405 40 699 -35 555 b -68 172 -80 324 -81 245 b -34 60 -61 134 -49 96 b -7 8 -26 42 -17 25 b 26 -41 3 -9 14 -25 b 213 -180 76 -105 140 -153 b 270 -197 231 -188 250 -193 b 329 -205 289 -201 309 -204 b 344 -205 334 -205 339 -205 b 446 -192 378 -205 412 -200 b 555 -150 484 -182 521 -168 b 653 -86 590 -132 623 -110 b 736 -8 683 -62 711 -36 b 785 -2 752 -7 769 -5 b 912 49 830 7 873 24 b 964 85 930 60 947 72 b 1004 66 978 78 991 71 b 1063 40 1025 56 1044 47 b 1124 19 1084 31 1104 24 b 1188 4 1145 12 1166 7 b 1253 -2 1209 0 1231 -2 b 1319 1 1275 -2 1297 -1 b 1352 6 1331 3 1342 4 b 1385 13 1364 8 1376 11 b 1450 36 1407 19 1429 27 b 1511 68 1471 45 1492 56 b 1614 166 1551 94 1586 127 b 1675 295 1642 205 1663 249 b 1689 366 1682 318 1686 342 b 1690 437 1691 389 1691 413 b 1677 509 1688 461 1684 486 b 1664 544 1673 521 1669 533 b 1623 608 1653 567 1640 589 b 1597 634 1615 617 1606 626 b 1536 673 1578 650 1558 663 b 1489 691 1521 680 1505 686 b 1522 699 1500 693 1511 696 b 1584 719 1543 704 1564 711 b 1614 734 1594 724 1604 729 b 1643 752 1624 740 1634 746 b 1736 855 1681 779 1713 814 b 1763 917 1747 875 1756 896 b 1768 934 1765 924 1767 929 b 1772 953 1770 941 1771 947 b 1775 990 1774 965 1775 978 z m 543 235 b 565 234 550 235 557 235 b 596 231 576 234 586 233 b 658 220 617 229 637 225 b 776 178 698 210 738 196 b 814 160 787 173 800 167 b 783 103 805 141 794 122 b 737 38 769 80 754 58 b 720 35 732 37 726 36 l 715 35 b 684 33 707 34 697 33 b 654 33 674 32 664 32 b 594 41 634 34 614 37 b 534 56 574 45 554 50 b 478 78 515 62 496 69 b 429 110 460 86 444 97 b 413 130 423 116 418 122 b 408 151 410 136 408 143 b 409 156 408 152 408 154 b 409 160 409 157 409 159 b 410 163 409 161 410 162 b 413 176 410 167 411 172 b 426 198 416 184 421 191 b 448 215 433 204 440 210 b 475 226 456 219 465 223 b 535 235 494 232 514 235 b 543 235 537 235 540 235 z m 673 713 b 616 688 652 709 633 700 b 544 598 583 666 558 635 b 543 661 542 619 541 640 b 551 722 544 682 547 702 b 565 784 555 745 560 765 b 607 901 576 824 589 863 b 668 1009 623 939 644 975 b 752 1101 692 1043 720 1073 b 801 1138 767 1114 784 1127 b 854 1169 818 1150 836 1160 b 971 1208 891 1188 930 1201 b 1028 1213 990 1211 1009 1213 b 1032 1213 1029 1213 1030 1213 b 1090 1204 1051 1213 1071 1210 b 1143 1178 1109 1198 1127 1189 b 1155 1169 1147 1175 1151 1172 b 1126 1159 1145 1166 1136 1163 b 1006 1108 1085 1145 1045 1128 b 950 1074 986 1097 967 1085 b 941 1068 947 1072 944 1070 b 936 1064 940 1067 938 1065 b 928 1058 933 1062 930 1060 b 923 1055 926 1057 925 1056 b 915 1048 920 1052 917 1050 b 910 1044 913 1047 912 1046 b 901 1037 907 1042 904 1039 b 897 1034 900 1036 899 1035 b 808 935 864 1005 834 972 b 746 818 782 899 761 860 b 741 804 744 813 743 809 l 740 799 b 736 786 738 795 737 790 b 728 753 733 775 730 764 b 723 720 726 742 724 731 b 723 716 723 719 723 717 b 682 715 709 717 695 717 l 682 715 z m 1228 1026 b 1229 902 1234 985 1234 943 b 1219 841 1227 881 1224 861 b 1204 780 1215 820 1210 800 b 1156 665 1191 741 1175 702 b 1083 564 1136 629 1112 595 b 1037 524 1069 549 1054 536 b 983 496 1020 512 1002 503 b 899 486 956 486 927 483 b 889 539 897 504 893 521 l 887 544 l 887 544 b 837 646 876 584 859 618 b 793 688 824 662 809 676 b 764 705 783 695 774 700 b 771 744 766 718 768 731 b 790 801 776 763 782 783 b 928 998 819 877 867 945 b 1137 1131 993 1055 1063 1100 b 1177 1147 1149 1136 1162 1142 b 1185 1137 1180 1144 1183 1140 b 1213 1084 1197 1121 1206 1103 b 1228 1026 1220 1065 1225 1046 z m 761 675 b 776 665 766 672 771 669 b 815 629 791 655 804 642 b 862 531 836 602 851 570 b 870 492 865 519 868 505 b 867 493 869 492 868 493 l 865 494 b 837 506 855 497 846 501 b 814 522 829 510 821 516 b 794 544 806 529 800 536 b 779 569 788 552 783 560 b 763 625 771 587 765 606 b 761 675 760 641 760 658 z m 890 303 l 891 305 b 903 422 898 344 902 383 b 901 465 903 436 902 451 b 924 464 909 464 917 464 b 990 477 947 465 969 469 b 1049 507 1011 485 1030 495 b 1099 549 1067 520 1083 534 b 1177 654 1127 578 1153 612 b 1229 772 1198 691 1216 731 b 1247 835 1237 794 1242 815 b 1257 899 1251 856 1255 877 b 1256 1030 1262 942 1262 986 b 1240 1094 1252 1052 1247 1073 b 1208 1154 1232 1115 1221 1135 b 1206 1157 1207 1155 1207 1156 b 1225 1163 1212 1159 1218 1161 b 1255 1171 1235 1166 1245 1168 b 1379 1193 1296 1181 1338 1188 b 1466 1201 1409 1196 1438 1199 b 1392 1094 1440 1166 1415 1130 b 1358 1037 1379 1073 1368 1054 b 1327 980 1347 1018 1337 999 b 1272 862 1307 941 1289 901 b 1248 801 1264 843 1256 824 b 1236 771 1244 792 1240 782 l 1225 741 b 1181 624 1211 702 1196 663 b 1135 508 1167 585 1151 546 b 1085 395 1118 467 1101 430 b 1057 339 1076 376 1067 357 b 1028 285 1048 321 1038 303 b 961 184 1008 250 986 216 b 915 132 947 166 932 149 b 899 141 910 135 904 138 l 890 145 b 848 168 876 153 862 160 b 890 303 867 211 881 257 z m 1668 1092 b 1675 1068 1671 1084 1674 1076 b 1677 1044 1677 1060 1677 1052 b 1671 998 1677 1028 1675 1013 b 1666 975 1670 990 1668 982 b 1663 963 1665 971 1664 966 b 1659 951 1662 959 1661 956 b 1641 901 1653 933 1647 916 b 1619 853 1635 885 1627 869 b 1590 809 1611 838 1601 823 b 1507 738 1568 779 1540 755 b 1481 726 1499 733 1490 729 b 1454 717 1473 722 1463 719 b 1411 707 1440 713 1426 710 l 1411 708 b 1406 708 1409 708 1408 708 b 1346 712 1387 710 1367 712 l 1362 759 l 1383 818 b 1427 935 1400 865 1414 901 b 1473 1051 1444 980 1458 1017 b 1499 1110 1482 1072 1490 1091 b 1500 1101 1499 1107 1499 1104 b 1511 1092 1500 1095 1505 1091 b 1520 1102 1516 1092 1521 1096 b 1526 1127 1521 1111 1522 1119 b 1540 1144 1529 1134 1534 1140 b 1562 1152 1547 1148 1554 1151 b 1588 1153 1571 1154 1579 1154 b 1636 1133 1606 1151 1622 1144 b 1668 1092 1650 1122 1661 1108 z m 884 125 l 889 122 b 899 117 893 121 896 119 b 878 99 892 111 885 105 b 854 82 870 93 862 88 b 828 67 845 77 837 72 b 802 55 819 62 810 58 b 779 47 795 52 787 49 b 807 89 789 61 798 74 b 839 148 818 108 829 128 b 884 125 854 140 869 132 z m 1018 133 b 1063 183 1033 148 1048 165 b 1105 235 1077 199 1091 216 b 1143 289 1118 252 1131 271 b 1156 309 1147 295 1152 302 b 1161 317 1157 311 1159 314 b 1166 326 1163 320 1165 323 b 1178 345 1170 332 1174 338 b 1294 578 1219 414 1258 491 b 1335 684 1308 611 1321 645 b 1398 682 1356 682 1377 681 b 1401 682 1399 682 1400 682 l 1402 682 b 1508 629 1443 671 1480 653 l 1508 629 b 1545 588 1522 617 1535 603 b 1559 564 1550 580 1555 572 b 1560 561 1559 563 1560 562 b 1561 558 1561 560 1561 559 b 1564 552 1562 556 1563 554 b 1565 549 1564 551 1565 550 b 1566 546 1565 548 1566 547 l 1569 540 b 1583 433 1578 509 1583 476 b 1579 377 1582 416 1581 398 b 1571 321 1578 358 1575 340 b 1533 216 1563 285 1550 249 b 1519 192 1528 206 1524 199 b 1504 168 1514 183 1509 175 b 1466 125 1493 153 1480 138 b 1370 59 1438 97 1406 75 b 1252 30 1332 43 1293 33 b 1130 42 1216 27 1176 31 b 1071 60 1111 47 1092 53 b 1012 84 1052 67 1033 75 b 981 99 1002 89 992 94 b 1018 133 994 110 1006 121 z m 1592 1265 l 1592 1266 b 1634 1307 1605 1281 1619 1295 b 1657 1320 1641 1312 1649 1317 b 1667 1322 1660 1321 1664 1322 b 1669 1322 1668 1322 1668 1322 b 1674 1321 1670 1322 1672 1322 b 1676 1318 1675 1321 1675 1319 b 1676 1309 1677 1315 1677 1312 b 1666 1287 1675 1301 1671 1293 b 1623 1252 1657 1274 1642 1262 b 1609 1246 1618 1250 1614 1248 b 1596 1242 1605 1245 1601 1243 b 1571 1237 1588 1240 1579 1238 b 1592 1265 1578 1247 1585 1256 z "},"C":{"ha":1213,"x_min":0,"x_max":0,"o":"m 1411 1224 b 1390 1256 1406 1236 1399 1247 b 1362 1278 1382 1264 1372 1272 b 1330 1292 1352 1283 1341 1288 b 1265 1306 1309 1299 1287 1303 b 1232 1308 1254 1307 1243 1307 b 1199 1308 1220 1308 1209 1308 b 1134 1305 1177 1308 1155 1307 b 1005 1283 1090 1300 1047 1293 b 761 1187 920 1261 838 1229 b 704 1153 739 1175 719 1163 l 683 1139 l 662 1125 l 642 1110 l 622 1095 l 610 1084 b 597 1074 606 1081 601 1077 b 548 1030 580 1059 564 1045 b 440 915 509 994 473 955 b 435 913 438 914 437 914 l 420 907 l 406 901 b 291 843 366 884 328 865 b 236 810 271 832 252 820 b 183 773 215 796 198 784 b 132 733 162 758 146 745 b 123 725 129 730 126 727 l 118 721 b 107 711 114 718 111 714 l 95 700 b 87 692 93 698 90 695 b 84 688 86 691 85 690 b 3 584 53 657 26 622 b -54 466 -20 547 -39 507 b -84 337 -68 424 -79 381 b -84 204 -90 293 -90 248 b -47 76 -78 160 -66 117 b 27 -35 -28 35 -3 -2 b 129 -118 58 -67 92 -95 b 247 -175 166 -142 206 -161 b 373 -207 288 -190 330 -200 b 518 -218 421 -214 469 -218 b 629 -213 554 -218 591 -216 b 882 -173 703 -206 781 -194 b 991 -150 918 -166 955 -158 b 1131 -121 1037 -140 1084 -130 b 1193 -110 1154 -117 1174 -113 b 1256 -104 1217 -107 1237 -105 b 1317 -107 1276 -103 1297 -104 b 1345 -115 1327 -108 1336 -111 b 1365 -126 1352 -117 1359 -121 b 1372 -136 1368 -129 1370 -133 b 1374 -162 1375 -144 1376 -153 l 1372 -169 l 1393 -173 l 1394 -166 b 1391 -129 1397 -153 1396 -140 b 1387 -121 1390 -126 1388 -123 l 1389 -119 l 1383 -114 b 1378 -109 1381 -112 1380 -111 b 1367 -100 1375 -106 1371 -103 b 1337 -84 1358 -94 1348 -88 b 1306 -73 1327 -80 1316 -76 b 1242 -61 1285 -68 1264 -64 b 1179 -54 1223 -58 1203 -56 b 1061 -46 1139 -50 1100 -48 l 1039 -44 b 925 -35 1001 -42 963 -40 b 864 -24 904 -33 884 -29 b 806 -4 844 -19 825 -12 b 770 17 794 2 782 9 b 886 59 810 26 849 41 b 942 93 905 70 924 81 l 949 98 l 962 108 l 975 118 l 994 135 b 1074 242 1025 163 1052 199 b 1101 303 1085 261 1093 282 b 1118 367 1108 324 1114 345 b 1122 434 1122 389 1123 412 b 1118 468 1122 446 1121 457 b 1107 501 1116 480 1112 491 b 1098 516 1104 506 1101 512 b 1086 530 1094 521 1090 526 b 1056 549 1077 538 1067 545 b 1024 559 1046 554 1035 557 b 990 561 1012 561 1001 562 b 924 548 967 560 945 556 b 864 519 903 540 883 530 b 763 433 826 495 792 467 b 691 321 733 400 709 362 b 678 289 686 311 682 301 b 669 257 675 280 672 269 b 660 190 664 235 661 212 b 666 122 659 167 661 144 b 692 57 671 99 679 77 b 712 32 698 48 704 40 b 634 29 686 28 660 27 b 515 55 593 31 553 40 b 461 82 496 62 478 71 b 414 118 444 93 429 105 b 348 213 386 145 363 177 b 324 323 333 248 325 285 b 326 380 323 342 323 361 b 335 437 328 399 331 418 b 368 549 343 475 354 512 b 391 604 376 569 383 587 b 416 658 399 622 407 640 b 476 762 433 692 453 727 b 608 941 516 825 560 884 b 656 950 624 944 640 947 b 781 965 696 956 738 961 b 813 967 792 965 803 966 b 836 968 821 967 829 967 l 844 968 b 908 972 863 969 883 970 b 1035 981 957 974 997 978 b 1163 1000 1084 986 1125 992 b 1226 1015 1186 1004 1206 1009 b 1287 1037 1247 1021 1267 1028 b 1345 1070 1308 1046 1327 1057 b 1392 1120 1364 1084 1380 1101 b 1409 1151 1399 1130 1404 1140 b 1417 1187 1413 1162 1416 1174 l 1417 1187 b 1411 1224 1418 1200 1416 1212 z m 632 968 b 664 1003 644 981 654 992 b 678 1017 668 1007 673 1012 b 685 1024 680 1019 683 1022 l 701 1040 l 718 1056 l 735 1071 l 753 1086 b 801 1123 766 1096 783 1110 b 1019 1236 868 1171 941 1209 b 1139 1266 1058 1249 1098 1259 b 1200 1273 1159 1269 1180 1272 b 1231 1274 1210 1274 1221 1274 b 1237 1274 1233 1274 1235 1274 b 1262 1273 1244 1274 1253 1274 b 1320 1262 1282 1272 1301 1268 b 1369 1234 1341 1255 1357 1246 b 1383 1213 1375 1228 1380 1221 b 1386 1189 1386 1205 1387 1197 b 1367 1138 1385 1173 1379 1156 b 1326 1096 1356 1121 1342 1107 b 1275 1065 1310 1083 1293 1073 b 1157 1028 1242 1050 1205 1038 b 1032 1008 1120 1020 1081 1014 b 906 996 995 1003 955 999 b 843 991 885 994 864 993 l 811 989 b 779 987 801 989 790 988 b 652 971 736 984 693 978 b 632 968 645 970 639 969 z m 1060 523 b 1071 515 1064 521 1068 518 b 1086 491 1077 508 1082 500 b 1090 478 1088 487 1089 483 b 1093 464 1091 473 1092 469 b 1093 435 1094 454 1094 444 b 1082 376 1092 415 1088 395 b 1033 264 1069 337 1053 299 b 1001 212 1024 247 1013 230 b 965 164 990 195 978 179 l 960 159 l 949 148 l 938 138 l 926 128 l 920 123 b 870 88 904 110 888 98 b 757 41 835 67 797 51 b 745 38 753 40 749 39 b 735 49 741 41 738 45 b 719 73 729 57 723 65 b 702 128 710 90 704 109 b 700 157 700 137 700 147 b 702 186 700 167 701 177 b 707 216 703 195 705 205 b 715 245 710 226 712 236 b 724 273 718 254 721 264 b 736 300 728 281 731 290 b 799 404 753 337 774 372 b 883 492 827 441 854 470 b 934 524 898 505 916 516 b 991 540 952 533 971 538 b 1048 530 1011 541 1030 538 l 1048 530 b 1053 528 1050 529 1051 529 b 1054 527 1053 528 1054 527 b 1056 526 1055 527 1056 526 b 1060 524 1058 525 1059 524 z m 796 -26 b 923 -56 832 -41 874 -51 b 1057 -66 968 -61 1013 -63 b 1177 -74 1097 -68 1137 -70 b 1240 -81 1201 -76 1221 -78 b 1260 -84 1246 -82 1253 -83 b 1254 -84 1258 -84 1256 -84 b 1127 -101 1211 -87 1168 -94 b 1010 -125 1088 -109 1049 -117 l 1002 -127 b 878 -153 961 -136 920 -145 b 627 -189 780 -172 700 -184 b 502 -192 586 -192 544 -193 b 377 -180 460 -191 418 -187 b 257 -147 336 -173 296 -162 b 148 -90 219 -132 182 -113 b 58 -8 115 -67 84 -39 b -6 94 32 23 10 57 b -37 331 -36 166 -47 248 b 41 561 -28 410 -1 489 b 114 660 62 596 87 629 l 136 683 b 143 690 138 685 141 688 b 146 694 144 692 145 693 l 147 694 b 157 705 150 698 154 702 b 203 748 170 718 185 732 b 251 787 218 762 235 775 b 257 792 253 789 255 790 b 277 806 263 796 270 801 b 281 809 278 807 280 808 b 290 814 284 811 287 813 l 303 823 b 358 853 323 835 340 845 b 377 863 364 857 371 860 b 386 867 380 864 383 866 l 400 874 b 411 879 403 875 407 877 b 375 829 399 862 387 846 b 306 713 350 792 327 753 b 255 588 285 673 268 631 b 228 452 241 543 232 498 b 227 382 226 429 226 405 b 236 312 228 359 231 335 b 289 181 245 265 263 221 b 332 126 301 162 316 143 b 384 82 348 110 365 95 b 442 47 402 68 422 57 b 504 23 462 37 483 29 b 568 8 525 16 546 11 b 633 2 590 4 612 3 b 735 9 667 1 702 4 b 738 7 736 9 737 8 b 796 -26 756 -7 776 -18 z "},"Ç":{"ha":1213,"x_min":0,"x_max":0,"o":"m 1411 1224 b 1390 1256 1406 1236 1399 1247 b 1362 1278 1382 1264 1372 1272 b 1330 1292 1352 1283 1341 1288 b 1265 1306 1309 1299 1287 1303 b 1232 1308 1254 1307 1243 1307 b 1199 1308 1220 1308 1209 1308 b 1134 1305 1177 1308 1155 1307 b 1005 1283 1090 1300 1047 1293 b 761 1187 920 1261 838 1229 b 704 1153 739 1175 719 1163 l 683 1139 l 662 1125 l 642 1110 l 622 1095 l 610 1084 b 597 1074 606 1081 601 1077 b 548 1030 580 1059 564 1045 b 440 915 509 994 473 955 b 435 913 438 914 437 914 l 420 907 l 406 901 b 291 843 366 884 328 865 b 236 810 271 832 252 820 b 183 773 215 796 198 784 b 132 733 162 758 146 745 b 123 725 129 730 126 727 l 118 721 b 107 711 114 718 111 714 l 95 700 b 87 692 93 698 90 695 b 84 688 86 691 85 690 b 3 584 53 657 26 622 b -54 466 -20 547 -39 507 b -84 337 -68 424 -79 381 b -84 204 -90 293 -90 248 b -47 76 -78 160 -66 117 b 27 -35 -28 35 -3 -2 b 129 -118 58 -67 92 -95 b 247 -175 166 -142 206 -161 b 373 -207 288 -190 330 -200 b 518 -218 421 -214 469 -218 b 629 -213 554 -218 591 -216 b 882 -173 703 -206 781 -194 b 991 -150 918 -166 955 -158 b 1131 -121 1037 -140 1084 -130 b 1193 -110 1154 -117 1174 -113 b 1256 -104 1217 -107 1237 -105 b 1317 -107 1276 -103 1297 -104 b 1345 -115 1327 -108 1336 -111 b 1365 -126 1352 -117 1359 -121 b 1372 -136 1368 -129 1370 -133 b 1374 -162 1375 -144 1376 -153 l 1372 -169 l 1393 -173 l 1394 -166 b 1391 -129 1397 -153 1396 -140 b 1387 -121 1390 -126 1388 -123 l 1389 -119 l 1383 -114 b 1378 -109 1381 -112 1380 -111 b 1367 -100 1375 -106 1371 -103 b 1337 -84 1358 -94 1348 -88 b 1306 -73 1327 -80 1316 -76 b 1242 -61 1285 -68 1264 -64 b 1179 -54 1223 -58 1203 -56 b 1061 -46 1139 -50 1100 -48 l 1039 -44 b 925 -35 1001 -42 963 -40 b 864 -24 904 -33 884 -29 b 806 -4 844 -19 825 -12 b 770 17 794 2 782 9 b 886 59 810 26 849 41 b 942 93 905 70 924 81 l 949 98 l 962 108 l 975 118 l 994 135 b 1074 242 1025 163 1052 199 b 1101 303 1085 261 1093 282 b 1118 367 1108 324 1114 345 b 1122 434 1122 389 1123 412 b 1118 468 1122 446 1121 457 b 1107 501 1116 480 1112 491 b 1098 516 1104 506 1101 512 b 1086 530 1094 521 1090 526 b 1056 549 1077 538 1067 545 b 1024 559 1046 554 1035 557 b 990 561 1012 561 1001 562 b 924 548 967 560 945 556 b 864 519 903 540 883 530 b 763 433 826 495 792 467 b 691 321 733 400 709 362 b 678 289 686 311 682 301 b 669 257 675 280 672 269 b 660 190 664 235 661 212 b 666 122 659 167 661 144 b 692 57 671 99 679 77 b 712 32 698 48 704 40 b 634 29 686 28 660 27 b 515 55 593 31 553 40 b 461 82 496 62 478 71 b 414 118 444 93 429 105 b 348 213 386 145 363 177 b 324 323 333 248 325 285 b 326 380 323 342 323 361 b 335 437 328 399 331 418 b 368 549 343 475 354 512 b 391 604 376 569 383 587 b 416 658 399 622 407 640 b 476 762 433 692 453 727 b 608 941 516 825 560 884 b 656 950 624 944 640 947 b 781 965 696 956 738 961 b 813 967 792 965 803 966 b 836 968 821 967 829 967 l 844 968 b 908 972 863 969 883 970 b 1035 981 957 974 997 978 b 1163 1000 1084 986 1125 992 b 1226 1015 1186 1004 1206 1009 b 1287 1037 1247 1021 1267 1028 b 1345 1070 1308 1046 1327 1057 b 1392 1120 1364 1084 1380 1101 b 1409 1151 1399 1130 1404 1140 b 1417 1187 1413 1162 1416 1174 l 1417 1187 b 1411 1224 1418 1200 1416 1212 z m 632 968 b 664 1003 644 981 654 992 b 678 1017 668 1007 673 1012 b 685 1024 680 1019 683 1022 l 701 1040 l 718 1056 l 735 1071 l 753 1086 b 801 1123 766 1096 783 1110 b 1019 1236 868 1171 941 1209 b 1139 1266 1058 1249 1098 1259 b 1200 1273 1159 1269 1180 1272 b 1231 1274 1210 1274 1221 1274 b 1237 1274 1233 1274 1235 1274 b 1262 1273 1244 1274 1253 1274 b 1320 1262 1282 1272 1301 1268 b 1369 1234 1341 1255 1357 1246 b 1383 1213 1375 1228 1380 1221 b 1386 1189 1386 1205 1387 1197 b 1367 1138 1385 1173 1379 1156 b 1326 1096 1356 1121 1342 1107 b 1275 1065 1310 1083 1293 1073 b 1157 1028 1242 1050 1205 1038 b 1032 1008 1120 1020 1081 1014 b 906 996 995 1003 955 999 b 843 991 885 994 864 993 l 811 989 b 779 987 801 989 790 988 b 652 971 736 984 693 978 b 632 968 645 970 639 969 z m 1060 523 b 1071 515 1064 521 1068 518 b 1086 491 1077 508 1082 500 b 1090 478 1088 487 1089 483 b 1093 464 1091 473 1092 469 b 1093 435 1094 454 1094 444 b 1082 376 1092 415 1088 395 b 1033 264 1069 337 1053 299 b 1001 212 1024 247 1013 230 b 965 164 990 195 978 179 l 960 159 l 949 148 l 938 138 l 926 128 l 920 123 b 870 88 904 110 888 98 b 757 41 835 67 797 51 b 745 38 753 40 749 39 b 735 49 741 41 738 45 b 719 73 729 57 723 65 b 702 128 710 90 704 109 b 700 157 700 137 700 147 b 702 186 700 167 701 177 b 707 216 703 195 705 205 b 715 245 710 226 712 236 b 724 273 718 254 721 264 b 736 300 728 281 731 290 b 799 404 753 337 774 372 b 883 492 827 441 854 470 b 934 524 898 505 916 516 b 991 540 952 533 971 538 b 1048 530 1011 541 1030 538 l 1048 530 b 1053 528 1050 529 1051 529 b 1054 527 1053 528 1054 527 b 1056 526 1055 527 1056 526 b 1060 524 1058 525 1059 524 z m 796 -26 b 923 -56 832 -41 874 -51 b 1057 -66 968 -61 1013 -63 b 1177 -74 1097 -68 1137 -70 b 1240 -81 1201 -76 1221 -78 b 1260 -84 1246 -82 1253 -83 b 1254 -84 1258 -84 1256 -84 b 1127 -101 1211 -87 1168 -94 b 1010 -125 1088 -109 1049 -117 l 1002 -127 b 878 -153 961 -136 920 -145 b 627 -189 780 -172 700 -184 b 502 -192 586 -192 544 -193 b 377 -180 460 -191 418 -187 b 257 -147 336 -173 296 -162 b 148 -90 219 -132 182 -113 b 58 -8 115 -67 84 -39 b -6 94 32 23 10 57 b -37 331 -36 166 -47 248 b 41 561 -28 410 -1 489 b 114 660 62 596 87 629 l 136 683 b 143 690 138 685 141 688 b 146 694 144 692 145 693 l 147 694 b 157 705 150 698 154 702 b 203 748 170 718 185 732 b 251 787 218 762 235 775 b 257 792 253 789 255 790 b 277 806 263 796 270 801 b 281 809 278 807 280 808 b 290 814 284 811 287 813 l 303 823 b 358 853 323 835 340 845 b 377 863 364 857 371 860 b 386 867 380 864 383 866 l 400 874 b 411 879 403 875 407 877 b 375 829 399 862 387 846 b 306 713 350 792 327 753 b 255 588 285 673 268 631 b 228 452 241 543 232 498 b 227 382 226 429 226 405 b 236 312 228 359 231 335 b 289 181 245 265 263 221 b 332 126 301 162 316 143 b 384 82 348 110 365 95 b 442 47 402 68 422 57 b 504 23 462 37 483 29 b 568 8 525 16 546 11 b 633 2 590 4 612 3 b 735 9 667 1 702 4 b 738 7 736 9 737 8 b 796 -26 756 -7 776 -18 z "},"D":{"ha":1521,"x_min":0,"x_max":0,"o":"m 1935 -108 l 1929 -112 b 1901 -130 1920 -119 1911 -125 b 1869 -143 1891 -135 1880 -140 b 1803 -162 1848 -151 1825 -157 b 1664 -183 1757 -172 1711 -179 b 1383 -188 1571 -191 1477 -193 b 1243 -176 1337 -185 1289 -181 b 1104 -155 1196 -171 1150 -164 b 831 -88 1011 -139 920 -116 b 574 23 735 -56 651 -20 b 569 26 573 24 571 25 b 598 61 579 37 589 49 b 605 58 600 60 603 59 b 705 22 637 42 670 30 b 811 6 740 13 775 8 b 1023 36 883 3 955 13 b 1215 141 1093 59 1158 95 b 1362 304 1273 187 1322 242 b 1455 503 1402 366 1433 433 b 1498 716 1478 572 1492 643 b 1498 826 1501 752 1501 789 b 1480 935 1495 863 1489 900 b 1442 1040 1470 971 1458 1006 b 1382 1133 1425 1073 1406 1104 b 1304 1210 1360 1162 1333 1187 b 1259 1240 1290 1221 1275 1231 b 1227 1258 1249 1246 1238 1252 l 1228 1258 b 1257 1274 1237 1264 1247 1270 b 1287 1284 1266 1279 1277 1282 b 1303 1286 1293 1286 1298 1286 b 1319 1285 1309 1287 1314 1286 l 1381 1273 l 1324 1300 b 1285 1308 1312 1305 1298 1308 b 1247 1305 1272 1309 1259 1308 b 1210 1294 1234 1302 1222 1298 b 1178 1278 1199 1289 1188 1284 b 1162 1284 1172 1280 1167 1282 b 1150 1288 1158 1285 1154 1286 l 1149 1288 b 1137 1292 1145 1289 1141 1290 b 1124 1295 1133 1293 1128 1294 b 1111 1299 1119 1297 1115 1298 b 1008 1318 1077 1308 1043 1314 b 799 1301 938 1324 867 1319 b 749 1286 782 1297 766 1292 b 700 1267 734 1281 718 1275 b 634 1233 678 1257 656 1246 l 634 1233 b 607 1241 625 1237 616 1240 b 552 1242 589 1244 570 1245 b 526 1237 543 1241 534 1239 l 519 1235 l 513 1233 b 500 1229 509 1232 504 1231 b 451 1209 483 1224 467 1217 b 364 1150 420 1192 390 1173 b 290 1074 337 1127 312 1102 b 183 892 245 1020 209 958 b 143 684 158 826 144 755 b 153 578 143 648 146 613 b 166 526 156 560 161 543 b 175 500 169 517 172 509 b 177 496 176 499 176 498 b 180 488 178 493 179 491 l 180 488 b 182 485 181 487 181 486 b 186 475 183 482 184 478 b 217 429 194 459 205 443 b 236 409 223 422 229 415 b 258 392 243 403 251 397 b 360 355 289 372 324 359 b 467 366 396 351 433 355 b 559 421 501 378 532 396 b 578 440 565 427 572 433 b 595 460 582 445 589 452 b 623 505 605 474 615 489 b 658 604 639 536 650 570 l 659 612 l 639 616 l 637 608 b 605 514 631 576 620 544 b 545 436 590 485 569 458 b 460 388 520 414 491 398 b 364 381 429 378 396 376 b 276 417 332 385 302 398 b 243 450 264 427 252 438 b 219 491 233 463 225 476 b 216 498 218 493 217 496 b 215 502 215 499 215 501 l 211 513 b 204 537 208 520 206 528 b 193 585 199 553 196 569 b 187 683 188 617 186 650 b 224 878 189 750 202 815 b 263 969 235 909 248 940 b 316 1054 278 999 296 1027 b 382 1129 335 1081 357 1106 b 463 1187 406 1152 433 1171 b 556 1219 492 1203 523 1214 b 603 1219 571 1221 587 1221 b 609 1218 605 1219 607 1218 l 608 1217 b 525 1151 578 1197 551 1175 b 488 1112 512 1138 500 1125 b 456 1071 476 1097 465 1084 b 398 983 435 1043 416 1013 b 351 888 380 953 365 921 b 319 787 338 856 327 822 b 309 735 315 770 311 753 b 306 681 307 717 306 699 b 313 626 306 663 309 644 b 333 574 317 608 324 590 b 374 533 343 557 357 543 l 374 533 b 431 520 391 523 411 519 b 484 533 449 521 467 526 b 532 558 501 540 517 548 b 607 633 558 577 583 602 b 661 723 627 661 645 691 b 699 820 676 754 689 787 b 724 921 710 853 718 887 b 733 1025 730 956 733 990 b 718 1130 732 1065 728 1100 b 696 1179 713 1147 706 1164 b 663 1216 688 1193 676 1206 b 1103 1270 795 1297 955 1316 b 1142 1255 1116 1265 1129 1260 b 1060 1182 1115 1236 1088 1212 b 969 1066 1026 1145 996 1107 b 893 941 943 1028 918 987 b 773 679 851 864 812 778 b 754 629 766 662 760 645 b 747 612 752 623 749 617 b 742 598 746 607 744 603 b 735 579 740 592 737 585 b 723 546 731 568 727 557 b 672 417 706 503 689 460 b 618 289 652 368 635 328 l 617 287 b 604 258 613 278 609 268 b 590 227 600 247 595 237 b 559 165 579 204 570 184 b 544 135 554 155 549 145 b 532 141 540 137 536 139 b 437 184 502 158 470 172 b 235 235 372 208 304 225 b 131 243 200 239 166 242 b 27 238 96 244 62 242 b -75 214 -14 233 -46 226 b -123 189 -92 208 -108 199 b -160 148 -138 178 -151 164 l -164 141 l -145 131 l -142 138 b -111 172 -134 151 -124 163 b -68 195 -98 182 -83 189 b 29 218 -40 206 -8 213 b 130 221 63 221 97 223 b 231 211 164 220 198 216 b 330 190 265 206 298 199 b 426 157 363 181 395 170 b 516 112 457 144 487 129 b 528 105 520 110 524 108 b 502 61 519 90 510 76 b 446 87 482 71 464 79 b 310 132 402 105 357 120 b 167 151 263 144 215 150 b 94 145 143 151 118 149 b 58 138 80 143 69 140 b 23 127 46 135 34 131 b -43 90 -1 118 -23 105 b -72 63 -54 82 -63 73 b -84 47 -76 58 -80 52 b -89 38 -86 44 -87 41 b -94 30 -91 35 -92 33 b -115 -47 -107 4 -114 -22 b -92 -126 -116 -75 -108 -102 b -66 -156 -85 -137 -76 -147 b -34 -178 -56 -164 -45 -172 b 36 -206 -12 -191 11 -200 b 107 -219 59 -212 83 -216 b 143 -221 122 -220 133 -221 b 160 -222 149 -221 155 -222 b 180 -221 167 -222 173 -221 b 321 -182 226 -219 274 -205 b 354 -165 331 -177 342 -171 b 385 -145 364 -159 374 -152 b 444 -101 405 -131 425 -117 b 548 2 481 -69 516 -35 b 559 -4 552 0 556 -2 b 822 -117 637 -48 726 -86 b 1099 -184 912 -146 1005 -169 b 1382 -213 1193 -199 1287 -209 b 1666 -206 1477 -218 1572 -215 b 1808 -184 1714 -202 1761 -194 b 1877 -163 1831 -178 1854 -172 b 1910 -149 1888 -159 1899 -154 b 1942 -128 1921 -143 1932 -136 l 1948 -124 z m 619 90 b 639 117 626 99 633 108 b 717 240 667 156 693 198 b 783 369 740 281 762 324 b 838 503 803 413 821 458 b 850 537 842 515 846 526 b 858 561 853 545 856 553 b 862 571 859 565 861 568 l 873 604 l 884 637 b 932 768 901 686 917 728 b 985 896 949 811 967 854 b 1044 1020 1003 938 1023 980 b 1114 1138 1065 1061 1089 1100 b 1155 1191 1127 1156 1141 1174 b 1178 1216 1162 1200 1169 1208 b 1193 1231 1182 1221 1187 1226 b 1194 1230 1193 1230 1194 1230 b 1235 1204 1208 1222 1222 1213 b 1273 1173 1248 1194 1261 1184 b 1332 1098 1296 1150 1316 1125 b 1372 1011 1349 1071 1362 1042 b 1391 919 1381 981 1388 950 b 1395 824 1395 887 1396 855 b 1386 728 1394 792 1391 760 b 1340 540 1376 664 1361 601 b 1306 449 1331 510 1319 479 b 1265 363 1294 420 1280 391 b 1153 209 1234 307 1197 255 b 999 94 1107 160 1055 121 b 908 61 970 80 940 69 b 811 47 876 53 844 48 b 713 57 778 46 745 50 b 620 89 681 64 650 75 z m -58 -104 b -73 -48 -68 -87 -73 -68 b -57 11 -72 -30 -67 -10 b -54 17 -56 13 -55 15 l -53 18 b -49 25 -52 21 -51 23 b -41 38 -47 29 -44 34 b -19 61 -34 46 -27 54 b 35 98 -3 76 15 88 b 66 110 45 103 56 107 b 99 119 77 114 88 117 b 133 124 110 121 121 123 b 167 125 144 125 155 125 l 169 125 b 303 106 211 125 256 119 b 434 59 348 94 392 78 b 485 35 453 51 469 43 b 408 -64 462 0 436 -33 b 359 -111 393 -80 377 -96 b 304 -151 342 -126 324 -139 b 244 -181 285 -163 265 -173 b 178 -196 223 -189 201 -194 b 110 -195 155 -198 133 -198 b 44 -179 87 -192 65 -187 b -15 -149 23 -172 3 -162 b -39 -128 -24 -143 -32 -136 b -58 -104 -47 -121 -53 -113 z m 387 555 b 371 569 381 559 376 564 b 359 588 366 575 362 581 b 346 632 352 602 348 617 b 344 656 345 641 345 649 b 344 681 344 665 344 673 b 359 778 346 713 351 746 b 391 872 367 810 378 841 b 435 962 404 902 419 932 b 489 1046 452 991 470 1019 b 519 1087 499 1060 509 1074 b 551 1125 530 1101 541 1113 b 626 1191 574 1149 599 1171 b 643 1203 631 1195 637 1199 b 646 1202 644 1203 645 1202 b 678 1168 659 1193 670 1181 b 698 1124 686 1154 693 1139 b 712 1025 707 1095 711 1063 b 703 925 712 991 709 958 b 679 826 698 891 690 858 b 641 732 669 794 656 763 b 589 647 627 702 609 673 b 518 577 566 617 543 594 b 498 565 512 573 505 569 b 475 555 490 561 483 558 b 429 545 461 549 445 546 b 387 555 415 544 400 548 z "},"E":{"ha":1439,"x_min":0,"x_max":0,"o":"m 1821 -222 b 1743 -191 1800 -209 1775 -199 b 1662 -178 1717 -185 1690 -181 b 1500 -173 1608 -173 1554 -171 b 1339 -180 1453 -173 1403 -176 b 1187 -190 1288 -183 1236 -187 l 1178 -191 b 1018 -201 1130 -194 1073 -198 b 858 -204 970 -203 915 -205 b 818 -202 845 -203 831 -203 b 792 -200 810 -202 801 -201 b 779 -199 788 -200 783 -199 b 753 -196 770 -198 761 -197 b 739 -195 748 -196 744 -195 b 728 -193 735 -194 732 -194 b 700 -190 719 -192 709 -191 b 688 -188 696 -189 692 -188 b 660 -183 679 -186 670 -185 l 641 -180 l 621 -176 b 595 -170 612 -174 604 -172 b 583 -167 591 -169 587 -168 b 570 -164 579 -166 574 -165 b 563 -162 568 -163 566 -162 l 563 -162 b 544 -157 557 -160 550 -159 l 525 -151 b 514 -147 521 -150 518 -149 b 506 -145 511 -147 509 -146 l 497 -142 b 491 -140 495 -141 493 -141 b 488 -139 490 -140 489 -139 l 469 -132 b 396 -102 443 -122 419 -112 b 326 -65 372 -91 349 -78 b 272 -31 308 -54 290 -43 b 406 -69 315 -49 360 -61 b 570 -76 460 -77 515 -80 b 651 -68 597 -75 624 -72 b 732 -51 678 -64 705 -58 b 752 -44 739 -48 746 -46 l 771 -38 b 796 -29 779 -35 788 -32 b 809 -24 800 -27 805 -26 b 822 -19 813 -22 818 -21 b 828 -17 824 -18 826 -17 l 847 -9 l 865 -1 b 900 -1 877 -1 888 -1 b 1061 30 955 2 1009 12 b 1137 62 1087 39 1113 50 b 1207 107 1161 75 1185 90 b 1312 236 1252 143 1289 187 b 1328 275 1318 248 1323 261 b 1340 315 1333 288 1336 301 b 1349 399 1346 342 1349 371 b 1332 483 1348 428 1343 456 b 1313 522 1327 496 1321 509 b 1287 556 1306 534 1297 545 b 1220 608 1268 577 1245 594 b 1142 636 1196 621 1169 630 b 977 624 1085 648 1028 644 b 905 580 951 614 926 599 b 876 549 895 571 885 560 b 854 512 868 537 860 525 b 828 431 841 487 832 459 b 834 344 824 402 826 372 b 875 267 843 316 857 290 b 941 211 893 245 916 226 b 960 201 947 207 954 204 b 971 197 964 200 967 198 b 980 194 974 196 977 195 l 982 193 b 1025 186 996 190 1010 187 b 1069 188 1040 185 1055 186 b 1112 201 1084 191 1098 195 b 1116 203 1113 202 1115 203 b 1010 111 1089 171 1054 141 b 871 36 966 82 920 57 l 865 33 b 751 66 825 37 787 49 b 659 132 717 82 686 105 b 668 132 662 132 665 132 b 749 133 693 131 721 132 b 829 140 778 135 807 137 l 837 140 l 835 161 l 827 160 b 748 153 798 157 772 154 b 668 152 719 152 693 151 b 641 153 660 152 651 153 b 638 156 640 154 639 155 b 602 215 624 175 612 194 b 588 247 597 226 592 236 l 581 268 l 577 280 b 562 348 570 302 565 325 b 561 355 562 350 561 353 l 560 365 b 560 372 560 367 560 369 b 559 382 559 375 559 378 l 559 391 b 559 396 559 392 559 394 b 559 399 559 397 559 398 b 559 412 558 403 559 408 b 559 416 559 413 559 415 b 659 676 562 504 598 597 b 766 779 689 716 725 750 b 902 841 809 809 855 830 b 907 842 904 841 905 842 b 918 834 911 839 915 837 b 959 812 931 826 945 818 b 1004 799 974 806 988 801 b 1050 803 1022 796 1037 798 b 1061 810 1054 805 1058 807 b 1070 823 1065 814 1068 818 b 1071 840 1072 828 1073 834 b 1063 853 1069 845 1067 849 b 1043 868 1058 859 1051 864 b 1022 876 1036 871 1029 874 b 980 884 1008 879 994 882 b 962 886 975 885 969 886 b 960 893 961 889 961 891 b 959 896 960 894 959 895 l 958 898 b 958 900 958 899 958 900 b 957 903 957 901 957 902 b 956 908 957 904 956 906 b 953 937 954 917 953 927 b 959 1000 953 958 955 980 b 975 1065 963 1022 968 1044 b 1002 1128 982 1087 991 1108 b 1032 1176 1011 1145 1021 1161 b 1061 1166 1042 1172 1051 1169 b 1139 1142 1089 1157 1113 1149 b 1221 1130 1166 1135 1193 1131 b 1262 1133 1235 1130 1249 1131 b 1283 1136 1269 1134 1276 1135 b 1304 1144 1290 1138 1298 1140 b 1339 1172 1318 1150 1330 1160 b 1355 1217 1349 1185 1355 1201 b 1350 1241 1355 1225 1353 1233 b 1338 1262 1348 1249 1343 1256 b 1304 1292 1329 1274 1317 1284 b 1265 1312 1291 1300 1278 1307 b 1245 1320 1258 1315 1251 1318 l 1235 1324 b 1229 1326 1233 1325 1231 1325 l 1224 1327 b 1042 1310 1163 1342 1099 1337 b 963 1259 1013 1297 987 1280 b 929 1225 951 1249 940 1237 b 912 1230 924 1227 918 1228 b 754 1263 860 1243 807 1255 b 714 1270 741 1266 728 1268 b 673 1274 700 1272 686 1273 b 633 1276 657 1275 644 1276 b 619 1275 628 1276 623 1276 b 612 1275 616 1275 614 1275 l 612 1275 b 606 1275 610 1275 608 1275 b 592 1274 601 1275 596 1274 b 511 1262 564 1272 537 1268 b 432 1240 484 1256 458 1249 b 287 1164 380 1221 332 1195 b 275 1155 283 1161 279 1158 b 270 1151 274 1154 272 1153 l 270 1151 b 265 1147 268 1150 266 1148 b 254 1139 261 1144 257 1141 b 223 1111 243 1129 232 1120 b 83 907 162 1054 115 984 b 58 828 73 881 64 855 b 43 746 51 801 46 773 b 40 704 42 734 41 721 b 40 662 40 690 40 676 b 51 579 42 634 45 606 b 110 423 63 524 83 471 b 157 354 124 399 140 375 b 214 293 174 332 193 311 b 351 201 254 255 301 224 b 506 149 400 177 452 160 b 522 146 511 148 517 147 b 541 124 528 139 535 131 b 575 93 552 113 563 103 b 651 45 598 74 624 58 b 733 15 677 32 705 22 b 793 4 753 10 772 6 b 785 1 790 3 788 2 b 760 -8 777 -2 769 -5 l 741 -15 b 723 -20 736 -16 730 -18 b 646 -37 698 -27 672 -33 b 568 -45 620 -41 594 -43 b 411 -37 515 -48 463 -46 b 262 8 359 -30 309 -14 b 138 100 215 31 173 62 b 112 130 129 109 120 119 b 109 134 111 131 110 133 b 107 137 108 135 107 136 b 101 145 105 140 103 142 l 97 151 b 92 158 97 154 95 157 l 92 159 l 91 158 b 83 156 88 159 85 157 b 70 148 80 154 76 152 l 64 144 l 66 141 b 67 137 66 140 66 138 b 71 133 68 135 69 134 l 72 131 b 121 65 87 108 103 86 b 241 -47 157 23 197 -15 b 310 -92 264 -63 286 -78 b 383 -130 334 -106 358 -119 b 458 -162 406 -141 431 -151 l 477 -168 b 481 -170 478 -169 480 -169 b 487 -172 483 -170 485 -171 l 497 -175 b 503 -177 499 -176 501 -176 b 516 -181 508 -178 512 -180 l 536 -187 b 553 -191 541 -188 547 -190 l 560 -193 b 575 -197 565 -195 570 -196 b 588 -200 579 -198 584 -199 b 615 -206 597 -202 606 -205 l 635 -210 l 655 -214 b 684 -219 664 -216 674 -217 b 695 -221 687 -219 691 -220 b 724 -224 705 -222 714 -223 b 735 -226 728 -225 731 -225 l 736 -226 b 750 -228 740 -226 745 -227 b 776 -230 758 -228 767 -229 b 789 -231 780 -230 785 -231 b 817 -233 798 -232 807 -233 b 857 -235 830 -234 844 -235 b 938 -235 882 -236 909 -235 b 1019 -232 965 -234 992 -233 b 1180 -221 1074 -229 1129 -225 b 1238 -216 1199 -219 1218 -217 b 1501 -199 1324 -209 1413 -202 b 1581 -198 1529 -198 1556 -198 b 1660 -201 1612 -198 1637 -199 b 1738 -213 1686 -203 1713 -207 b 1810 -239 1768 -220 1791 -228 l 1817 -243 l 1827 -226 z m 1060 622 b 1137 615 1086 623 1112 621 b 1208 587 1162 610 1186 600 b 1266 537 1230 573 1249 557 b 1287 506 1274 528 1281 517 b 1302 472 1293 495 1298 484 b 1315 398 1310 448 1314 423 b 1306 323 1315 373 1312 347 b 1296 285 1304 310 1300 298 b 1283 250 1292 273 1288 261 b 1190 128 1261 203 1229 161 b 1054 53 1149 95 1103 69 b 934 31 1015 40 975 33 b 1028 85 967 47 998 65 b 1151 196 1079 120 1120 156 b 1175 230 1160 207 1168 218 b 1194 269 1182 243 1188 255 b 1205 310 1199 282 1203 296 b 1206 318 1206 313 1206 315 b 1207 321 1206 319 1207 320 l 1207 322 b 1207 333 1207 326 1207 329 l 1207 336 b 1208 342 1208 338 1208 340 l 1208 344 b 1208 351 1209 346 1209 349 l 1207 357 l 1201 357 b 1176 352 1185 358 1178 359 b 1176 346 1175 350 1175 348 b 1176 344 1176 345 1176 345 b 1176 340 1176 343 1176 342 l 1176 340 b 1152 277 1173 317 1165 296 b 1128 251 1145 268 1137 259 b 1098 233 1119 244 1109 238 b 1027 222 1076 224 1052 220 b 991 228 1015 223 1003 225 l 990 229 b 983 231 987 229 985 230 b 975 234 981 231 978 232 b 959 242 969 236 964 239 b 903 290 937 255 918 271 b 868 354 887 309 875 330 b 862 426 861 377 858 402 b 882 499 865 452 872 476 b 900 532 887 510 893 521 b 924 561 907 542 915 552 b 953 585 933 570 942 578 b 986 603 963 592 974 598 b 1060 622 1010 614 1035 620 z m 187 376 b 146 442 172 397 158 419 b 95 588 122 488 105 537 b 85 664 90 613 86 638 b 85 702 84 678 84 690 b 88 741 86 718 86 730 b 100 818 90 767 94 792 b 122 892 105 843 113 868 b 593 1254 196 1094 379 1235 b 607 1255 598 1255 603 1255 b 613 1256 609 1255 611 1255 b 619 1256 615 1256 617 1256 b 633 1256 624 1256 628 1256 b 672 1255 644 1256 656 1256 b 751 1246 699 1254 725 1250 b 908 1213 804 1237 856 1226 b 917 1210 911 1212 914 1211 b 902 1189 912 1203 907 1196 b 859 1106 884 1163 870 1135 b 839 1013 848 1076 842 1045 b 855 914 837 979 843 946 b 866 891 858 906 862 898 b 870 883 867 888 869 886 b 730 840 822 876 775 862 b 587 742 678 815 629 782 b 529 675 566 721 546 699 l 528 674 b 525 671 527 673 526 672 l 520 663 l 520 663 b 503 638 514 655 509 646 b 482 598 497 626 489 613 b 450 513 469 571 458 542 b 436 422 442 483 438 453 b 442 329 434 391 436 360 b 467 241 447 299 455 269 b 470 235 468 239 469 237 b 476 220 472 230 474 225 l 477 218 b 487 199 480 212 483 205 b 502 173 491 190 497 182 b 363 225 454 184 407 202 b 296 266 339 237 317 251 b 237 317 275 281 255 298 b 187 376 219 335 202 355 z m 1027 821 b 1011 825 1021 821 1016 823 b 984 846 1001 830 991 837 b 981 849 983 847 982 848 b 1015 846 993 848 1004 847 l 1016 846 b 1033 842 1021 845 1027 844 b 1046 835 1038 841 1042 838 b 1049 830 1048 834 1050 832 b 1047 826 1049 828 1048 827 b 1042 823 1046 825 1044 824 b 1027 821 1037 821 1032 820 z m 1087 1233 b 1146 1265 1105 1247 1125 1258 b 1215 1273 1168 1272 1192 1275 b 1219 1273 1216 1273 1218 1273 b 1225 1273 1221 1273 1223 1273 b 1228 1273 1226 1273 1227 1273 b 1234 1272 1230 1273 1232 1272 b 1253 1270 1240 1272 1246 1271 b 1288 1261 1265 1269 1277 1266 b 1317 1243 1299 1257 1309 1251 b 1330 1216 1325 1236 1329 1226 b 1321 1186 1331 1205 1327 1194 b 1295 1163 1314 1176 1305 1168 b 1278 1157 1290 1160 1284 1158 b 1259 1154 1272 1156 1266 1155 b 1221 1151 1247 1152 1234 1151 b 1144 1162 1195 1152 1169 1155 b 1067 1184 1117 1168 1089 1177 b 1044 1191 1059 1186 1051 1189 b 1087 1233 1056 1207 1071 1221 z "},"È":{"ha":1439,"x_min":0,"x_max":0,"o":"m 1821 -222 b 1743 -191 1800 -209 1775 -199 b 1662 -178 1717 -185 1690 -181 b 1500 -173 1608 -173 1554 -171 b 1339 -180 1453 -173 1403 -176 b 1187 -190 1288 -183 1236 -187 l 1178 -191 b 1018 -201 1130 -194 1073 -198 b 858 -204 970 -203 915 -205 b 818 -202 845 -203 831 -203 b 792 -200 810 -202 801 -201 b 779 -199 788 -200 783 -199 b 753 -196 770 -198 761 -197 b 739 -195 748 -196 744 -195 b 728 -193 735 -194 732 -194 b 700 -190 719 -192 709 -191 b 688 -188 696 -189 692 -188 b 660 -183 679 -186 670 -185 l 641 -180 l 621 -176 b 595 -170 612 -174 604 -172 b 583 -167 591 -169 587 -168 b 570 -164 579 -166 574 -165 b 563 -162 568 -163 566 -162 l 563 -162 b 544 -157 557 -160 550 -159 l 525 -151 b 514 -147 521 -150 518 -149 b 506 -145 511 -147 509 -146 l 497 -142 b 491 -140 495 -141 493 -141 b 488 -139 490 -140 489 -139 l 469 -132 b 396 -102 443 -122 419 -112 b 326 -65 372 -91 349 -78 b 272 -31 308 -54 290 -43 b 406 -69 315 -49 360 -61 b 570 -76 460 -77 515 -80 b 651 -68 597 -75 624 -72 b 732 -51 678 -64 705 -58 b 752 -44 739 -48 746 -46 l 771 -38 b 796 -29 779 -35 788 -32 b 809 -24 800 -27 805 -26 b 822 -19 813 -22 818 -21 b 828 -17 824 -18 826 -17 l 847 -9 l 865 -1 b 900 -1 877 -1 888 -1 b 1061 30 955 2 1009 12 b 1137 62 1087 39 1113 50 b 1207 107 1161 75 1185 90 b 1312 236 1252 143 1289 187 b 1328 275 1318 248 1323 261 b 1340 315 1333 288 1336 301 b 1349 399 1346 342 1349 371 b 1332 483 1348 428 1343 456 b 1313 522 1327 496 1321 509 b 1287 556 1306 534 1297 545 b 1220 608 1268 577 1245 594 b 1142 636 1196 621 1169 630 b 977 624 1085 648 1028 644 b 905 580 951 614 926 599 b 876 549 895 571 885 560 b 854 512 868 537 860 525 b 828 431 841 487 832 459 b 834 344 824 402 826 372 b 875 267 843 316 857 290 b 941 211 893 245 916 226 b 960 201 947 207 954 204 b 971 197 964 200 967 198 b 980 194 974 196 977 195 l 982 193 b 1025 186 996 190 1010 187 b 1069 188 1040 185 1055 186 b 1112 201 1084 191 1098 195 b 1116 203 1113 202 1115 203 b 1010 111 1089 171 1054 141 b 871 36 966 82 920 57 l 865 33 b 751 66 825 37 787 49 b 659 132 717 82 686 105 b 668 132 662 132 665 132 b 749 133 693 131 721 132 b 829 140 778 135 807 137 l 837 140 l 835 161 l 827 160 b 748 153 798 157 772 154 b 668 152 719 152 693 151 b 641 153 660 152 651 153 b 638 156 640 154 639 155 b 602 215 624 175 612 194 b 588 247 597 226 592 236 l 581 268 l 577 280 b 562 348 570 302 565 325 b 561 355 562 350 561 353 l 560 365 b 560 372 560 367 560 369 b 559 382 559 375 559 378 l 559 391 b 559 396 559 392 559 394 b 559 399 559 397 559 398 b 559 412 558 403 559 408 b 559 416 559 413 559 415 b 659 676 562 504 598 597 b 766 779 689 716 725 750 b 902 841 809 809 855 830 b 907 842 904 841 905 842 b 918 834 911 839 915 837 b 959 812 931 826 945 818 b 1004 799 974 806 988 801 b 1050 803 1022 796 1037 798 b 1061 810 1054 805 1058 807 b 1070 823 1065 814 1068 818 b 1071 840 1072 828 1073 834 b 1063 853 1069 845 1067 849 b 1043 868 1058 859 1051 864 b 1022 876 1036 871 1029 874 b 980 884 1008 879 994 882 b 962 886 975 885 969 886 b 960 893 961 889 961 891 b 959 896 960 894 959 895 l 958 898 b 958 900 958 899 958 900 b 957 903 957 901 957 902 b 956 908 957 904 956 906 b 953 937 954 917 953 927 b 959 1000 953 958 955 980 b 975 1065 963 1022 968 1044 b 1002 1128 982 1087 991 1108 b 1032 1176 1011 1145 1021 1161 b 1061 1166 1042 1172 1051 1169 b 1139 1142 1089 1157 1113 1149 b 1221 1130 1166 1135 1193 1131 b 1262 1133 1235 1130 1249 1131 b 1283 1136 1269 1134 1276 1135 b 1304 1144 1290 1138 1298 1140 b 1339 1172 1318 1150 1330 1160 b 1355 1217 1349 1185 1355 1201 b 1350 1241 1355 1225 1353 1233 b 1338 1262 1348 1249 1343 1256 b 1304 1292 1329 1274 1317 1284 b 1265 1312 1291 1300 1278 1307 b 1245 1320 1258 1315 1251 1318 l 1235 1324 b 1229 1326 1233 1325 1231 1325 l 1224 1327 b 1042 1310 1163 1342 1099 1337 b 963 1259 1013 1297 987 1280 b 929 1225 951 1249 940 1237 b 912 1230 924 1227 918 1228 b 754 1263 860 1243 807 1255 b 714 1270 741 1266 728 1268 b 673 1274 700 1272 686 1273 b 633 1276 657 1275 644 1276 b 619 1275 628 1276 623 1276 b 612 1275 616 1275 614 1275 l 612 1275 b 606 1275 610 1275 608 1275 b 592 1274 601 1275 596 1274 b 511 1262 564 1272 537 1268 b 432 1240 484 1256 458 1249 b 287 1164 380 1221 332 1195 b 275 1155 283 1161 279 1158 b 270 1151 274 1154 272 1153 l 270 1151 b 265 1147 268 1150 266 1148 b 254 1139 261 1144 257 1141 b 223 1111 243 1129 232 1120 b 83 907 162 1054 115 984 b 58 828 73 881 64 855 b 43 746 51 801 46 773 b 40 704 42 734 41 721 b 40 662 40 690 40 676 b 51 579 42 634 45 606 b 110 423 63 524 83 471 b 157 354 124 399 140 375 b 214 293 174 332 193 311 b 351 201 254 255 301 224 b 506 149 400 177 452 160 b 522 146 511 148 517 147 b 541 124 528 139 535 131 b 575 93 552 113 563 103 b 651 45 598 74 624 58 b 733 15 677 32 705 22 b 793 4 753 10 772 6 b 785 1 790 3 788 2 b 760 -8 777 -2 769 -5 l 741 -15 b 723 -20 736 -16 730 -18 b 646 -37 698 -27 672 -33 b 568 -45 620 -41 594 -43 b 411 -37 515 -48 463 -46 b 262 8 359 -30 309 -14 b 138 100 215 31 173 62 b 112 130 129 109 120 119 b 109 134 111 131 110 133 b 107 137 108 135 107 136 b 101 145 105 140 103 142 l 97 151 b 92 158 97 154 95 157 l 92 159 l 91 158 b 83 156 88 159 85 157 b 70 148 80 154 76 152 l 64 144 l 66 141 b 67 137 66 140 66 138 b 71 133 68 135 69 134 l 72 131 b 121 65 87 108 103 86 b 241 -47 157 23 197 -15 b 310 -92 264 -63 286 -78 b 383 -130 334 -106 358 -119 b 458 -162 406 -141 431 -151 l 477 -168 b 481 -170 478 -169 480 -169 b 487 -172 483 -170 485 -171 l 497 -175 b 503 -177 499 -176 501 -176 b 516 -181 508 -178 512 -180 l 536 -187 b 553 -191 541 -188 547 -190 l 560 -193 b 575 -197 565 -195 570 -196 b 588 -200 579 -198 584 -199 b 615 -206 597 -202 606 -205 l 635 -210 l 655 -214 b 684 -219 664 -216 674 -217 b 695 -221 687 -219 691 -220 b 724 -224 705 -222 714 -223 b 735 -226 728 -225 731 -225 l 736 -226 b 750 -228 740 -226 745 -227 b 776 -230 758 -228 767 -229 b 789 -231 780 -230 785 -231 b 817 -233 798 -232 807 -233 b 857 -235 830 -234 844 -235 b 938 -235 882 -236 909 -235 b 1019 -232 965 -234 992 -233 b 1180 -221 1074 -229 1129 -225 b 1238 -216 1199 -219 1218 -217 b 1501 -199 1324 -209 1413 -202 b 1581 -198 1529 -198 1556 -198 b 1660 -201 1612 -198 1637 -199 b 1738 -213 1686 -203 1713 -207 b 1810 -239 1768 -220 1791 -228 l 1817 -243 l 1827 -226 z m 1060 622 b 1137 615 1086 623 1112 621 b 1208 587 1162 610 1186 600 b 1266 537 1230 573 1249 557 b 1287 506 1274 528 1281 517 b 1302 472 1293 495 1298 484 b 1315 398 1310 448 1314 423 b 1306 323 1315 373 1312 347 b 1296 285 1304 310 1300 298 b 1283 250 1292 273 1288 261 b 1190 128 1261 203 1229 161 b 1054 53 1149 95 1103 69 b 934 31 1015 40 975 33 b 1028 85 967 47 998 65 b 1151 196 1079 120 1120 156 b 1175 230 1160 207 1168 218 b 1194 269 1182 243 1188 255 b 1205 310 1199 282 1203 296 b 1206 318 1206 313 1206 315 b 1207 321 1206 319 1207 320 l 1207 322 b 1207 333 1207 326 1207 329 l 1207 336 b 1208 342 1208 338 1208 340 l 1208 344 b 1208 351 1209 346 1209 349 l 1207 357 l 1201 357 b 1176 352 1185 358 1178 359 b 1176 346 1175 350 1175 348 b 1176 344 1176 345 1176 345 b 1176 340 1176 343 1176 342 l 1176 340 b 1152 277 1173 317 1165 296 b 1128 251 1145 268 1137 259 b 1098 233 1119 244 1109 238 b 1027 222 1076 224 1052 220 b 991 228 1015 223 1003 225 l 990 229 b 983 231 987 229 985 230 b 975 234 981 231 978 232 b 959 242 969 236 964 239 b 903 290 937 255 918 271 b 868 354 887 309 875 330 b 862 426 861 377 858 402 b 882 499 865 452 872 476 b 900 532 887 510 893 521 b 924 561 907 542 915 552 b 953 585 933 570 942 578 b 986 603 963 592 974 598 b 1060 622 1010 614 1035 620 z m 187 376 b 146 442 172 397 158 419 b 95 588 122 488 105 537 b 85 664 90 613 86 638 b 85 702 84 678 84 690 b 88 741 86 718 86 730 b 100 818 90 767 94 792 b 122 892 105 843 113 868 b 593 1254 196 1094 379 1235 b 607 1255 598 1255 603 1255 b 613 1256 609 1255 611 1255 b 619 1256 615 1256 617 1256 b 633 1256 624 1256 628 1256 b 672 1255 644 1256 656 1256 b 751 1246 699 1254 725 1250 b 908 1213 804 1237 856 1226 b 917 1210 911 1212 914 1211 b 902 1189 912 1203 907 1196 b 859 1106 884 1163 870 1135 b 839 1013 848 1076 842 1045 b 855 914 837 979 843 946 b 866 891 858 906 862 898 b 870 883 867 888 869 886 b 730 840 822 876 775 862 b 587 742 678 815 629 782 b 529 675 566 721 546 699 l 528 674 b 525 671 527 673 526 672 l 520 663 l 520 663 b 503 638 514 655 509 646 b 482 598 497 626 489 613 b 450 513 469 571 458 542 b 436 422 442 483 438 453 b 442 329 434 391 436 360 b 467 241 447 299 455 269 b 470 235 468 239 469 237 b 476 220 472 230 474 225 l 477 218 b 487 199 480 212 483 205 b 502 173 491 190 497 182 b 363 225 454 184 407 202 b 296 266 339 237 317 251 b 237 317 275 281 255 298 b 187 376 219 335 202 355 z m 1027 821 b 1011 825 1021 821 1016 823 b 984 846 1001 830 991 837 b 981 849 983 847 982 848 b 1015 846 993 848 1004 847 l 1016 846 b 1033 842 1021 845 1027 844 b 1046 835 1038 841 1042 838 b 1049 830 1048 834 1050 832 b 1047 826 1049 828 1048 827 b 1042 823 1046 825 1044 824 b 1027 821 1037 821 1032 820 z m 1087 1233 b 1146 1265 1105 1247 1125 1258 b 1215 1273 1168 1272 1192 1275 b 1219 1273 1216 1273 1218 1273 b 1225 1273 1221 1273 1223 1273 b 1228 1273 1226 1273 1227 1273 b 1234 1272 1230 1273 1232 1272 b 1253 1270 1240 1272 1246 1271 b 1288 1261 1265 1269 1277 1266 b 1317 1243 1299 1257 1309 1251 b 1330 1216 1325 1236 1329 1226 b 1321 1186 1331 1205 1327 1194 b 1295 1163 1314 1176 1305 1168 b 1278 1157 1290 1160 1284 1158 b 1259 1154 1272 1156 1266 1155 b 1221 1151 1247 1152 1234 1151 b 1144 1162 1195 1152 1169 1155 b 1067 1184 1117 1168 1089 1177 b 1044 1191 1059 1186 1051 1189 b 1087 1233 1056 1207 1071 1221 z "},"É":{"ha":1439,"x_min":0,"x_max":0,"o":"m 1821 -222 b 1743 -191 1800 -209 1775 -199 b 1662 -178 1717 -185 1690 -181 b 1500 -173 1608 -173 1554 -171 b 1339 -180 1453 -173 1403 -176 b 1187 -190 1288 -183 1236 -187 l 1178 -191 b 1018 -201 1130 -194 1073 -198 b 858 -204 970 -203 915 -205 b 818 -202 845 -203 831 -203 b 792 -200 810 -202 801 -201 b 779 -199 788 -200 783 -199 b 753 -196 770 -198 761 -197 b 739 -195 748 -196 744 -195 b 728 -193 735 -194 732 -194 b 700 -190 719 -192 709 -191 b 688 -188 696 -189 692 -188 b 660 -183 679 -186 670 -185 l 641 -180 l 621 -176 b 595 -170 612 -174 604 -172 b 583 -167 591 -169 587 -168 b 570 -164 579 -166 574 -165 b 563 -162 568 -163 566 -162 l 563 -162 b 544 -157 557 -160 550 -159 l 525 -151 b 514 -147 521 -150 518 -149 b 506 -145 511 -147 509 -146 l 497 -142 b 491 -140 495 -141 493 -141 b 488 -139 490 -140 489 -139 l 469 -132 b 396 -102 443 -122 419 -112 b 326 -65 372 -91 349 -78 b 272 -31 308 -54 290 -43 b 406 -69 315 -49 360 -61 b 570 -76 460 -77 515 -80 b 651 -68 597 -75 624 -72 b 732 -51 678 -64 705 -58 b 752 -44 739 -48 746 -46 l 771 -38 b 796 -29 779 -35 788 -32 b 809 -24 800 -27 805 -26 b 822 -19 813 -22 818 -21 b 828 -17 824 -18 826 -17 l 847 -9 l 865 -1 b 900 -1 877 -1 888 -1 b 1061 30 955 2 1009 12 b 1137 62 1087 39 1113 50 b 1207 107 1161 75 1185 90 b 1312 236 1252 143 1289 187 b 1328 275 1318 248 1323 261 b 1340 315 1333 288 1336 301 b 1349 399 1346 342 1349 371 b 1332 483 1348 428 1343 456 b 1313 522 1327 496 1321 509 b 1287 556 1306 534 1297 545 b 1220 608 1268 577 1245 594 b 1142 636 1196 621 1169 630 b 977 624 1085 648 1028 644 b 905 580 951 614 926 599 b 876 549 895 571 885 560 b 854 512 868 537 860 525 b 828 431 841 487 832 459 b 834 344 824 402 826 372 b 875 267 843 316 857 290 b 941 211 893 245 916 226 b 960 201 947 207 954 204 b 971 197 964 200 967 198 b 980 194 974 196 977 195 l 982 193 b 1025 186 996 190 1010 187 b 1069 188 1040 185 1055 186 b 1112 201 1084 191 1098 195 b 1116 203 1113 202 1115 203 b 1010 111 1089 171 1054 141 b 871 36 966 82 920 57 l 865 33 b 751 66 825 37 787 49 b 659 132 717 82 686 105 b 668 132 662 132 665 132 b 749 133 693 131 721 132 b 829 140 778 135 807 137 l 837 140 l 835 161 l 827 160 b 748 153 798 157 772 154 b 668 152 719 152 693 151 b 641 153 660 152 651 153 b 638 156 640 154 639 155 b 602 215 624 175 612 194 b 588 247 597 226 592 236 l 581 268 l 577 280 b 562 348 570 302 565 325 b 561 355 562 350 561 353 l 560 365 b 560 372 560 367 560 369 b 559 382 559 375 559 378 l 559 391 b 559 396 559 392 559 394 b 559 399 559 397 559 398 b 559 412 558 403 559 408 b 559 416 559 413 559 415 b 659 676 562 504 598 597 b 766 779 689 716 725 750 b 902 841 809 809 855 830 b 907 842 904 841 905 842 b 918 834 911 839 915 837 b 959 812 931 826 945 818 b 1004 799 974 806 988 801 b 1050 803 1022 796 1037 798 b 1061 810 1054 805 1058 807 b 1070 823 1065 814 1068 818 b 1071 840 1072 828 1073 834 b 1063 853 1069 845 1067 849 b 1043 868 1058 859 1051 864 b 1022 876 1036 871 1029 874 b 980 884 1008 879 994 882 b 962 886 975 885 969 886 b 960 893 961 889 961 891 b 959 896 960 894 959 895 l 958 898 b 958 900 958 899 958 900 b 957 903 957 901 957 902 b 956 908 957 904 956 906 b 953 937 954 917 953 927 b 959 1000 953 958 955 980 b 975 1065 963 1022 968 1044 b 1002 1128 982 1087 991 1108 b 1032 1176 1011 1145 1021 1161 b 1061 1166 1042 1172 1051 1169 b 1139 1142 1089 1157 1113 1149 b 1221 1130 1166 1135 1193 1131 b 1262 1133 1235 1130 1249 1131 b 1283 1136 1269 1134 1276 1135 b 1304 1144 1290 1138 1298 1140 b 1339 1172 1318 1150 1330 1160 b 1355 1217 1349 1185 1355 1201 b 1350 1241 1355 1225 1353 1233 b 1338 1262 1348 1249 1343 1256 b 1304 1292 1329 1274 1317 1284 b 1265 1312 1291 1300 1278 1307 b 1245 1320 1258 1315 1251 1318 l 1235 1324 b 1229 1326 1233 1325 1231 1325 l 1224 1327 b 1042 1310 1163 1342 1099 1337 b 963 1259 1013 1297 987 1280 b 929 1225 951 1249 940 1237 b 912 1230 924 1227 918 1228 b 754 1263 860 1243 807 1255 b 714 1270 741 1266 728 1268 b 673 1274 700 1272 686 1273 b 633 1276 657 1275 644 1276 b 619 1275 628 1276 623 1276 b 612 1275 616 1275 614 1275 l 612 1275 b 606 1275 610 1275 608 1275 b 592 1274 601 1275 596 1274 b 511 1262 564 1272 537 1268 b 432 1240 484 1256 458 1249 b 287 1164 380 1221 332 1195 b 275 1155 283 1161 279 1158 b 270 1151 274 1154 272 1153 l 270 1151 b 265 1147 268 1150 266 1148 b 254 1139 261 1144 257 1141 b 223 1111 243 1129 232 1120 b 83 907 162 1054 115 984 b 58 828 73 881 64 855 b 43 746 51 801 46 773 b 40 704 42 734 41 721 b 40 662 40 690 40 676 b 51 579 42 634 45 606 b 110 423 63 524 83 471 b 157 354 124 399 140 375 b 214 293 174 332 193 311 b 351 201 254 255 301 224 b 506 149 400 177 452 160 b 522 146 511 148 517 147 b 541 124 528 139 535 131 b 575 93 552 113 563 103 b 651 45 598 74 624 58 b 733 15 677 32 705 22 b 793 4 753 10 772 6 b 785 1 790 3 788 2 b 760 -8 777 -2 769 -5 l 741 -15 b 723 -20 736 -16 730 -18 b 646 -37 698 -27 672 -33 b 568 -45 620 -41 594 -43 b 411 -37 515 -48 463 -46 b 262 8 359 -30 309 -14 b 138 100 215 31 173 62 b 112 130 129 109 120 119 b 109 134 111 131 110 133 b 107 137 108 135 107 136 b 101 145 105 140 103 142 l 97 151 b 92 158 97 154 95 157 l 92 159 l 91 158 b 83 156 88 159 85 157 b 70 148 80 154 76 152 l 64 144 l 66 141 b 67 137 66 140 66 138 b 71 133 68 135 69 134 l 72 131 b 121 65 87 108 103 86 b 241 -47 157 23 197 -15 b 310 -92 264 -63 286 -78 b 383 -130 334 -106 358 -119 b 458 -162 406 -141 431 -151 l 477 -168 b 481 -170 478 -169 480 -169 b 487 -172 483 -170 485 -171 l 497 -175 b 503 -177 499 -176 501 -176 b 516 -181 508 -178 512 -180 l 536 -187 b 553 -191 541 -188 547 -190 l 560 -193 b 575 -197 565 -195 570 -196 b 588 -200 579 -198 584 -199 b 615 -206 597 -202 606 -205 l 635 -210 l 655 -214 b 684 -219 664 -216 674 -217 b 695 -221 687 -219 691 -220 b 724 -224 705 -222 714 -223 b 735 -226 728 -225 731 -225 l 736 -226 b 750 -228 740 -226 745 -227 b 776 -230 758 -228 767 -229 b 789 -231 780 -230 785 -231 b 817 -233 798 -232 807 -233 b 857 -235 830 -234 844 -235 b 938 -235 882 -236 909 -235 b 1019 -232 965 -234 992 -233 b 1180 -221 1074 -229 1129 -225 b 1238 -216 1199 -219 1218 -217 b 1501 -199 1324 -209 1413 -202 b 1581 -198 1529 -198 1556 -198 b 1660 -201 1612 -198 1637 -199 b 1738 -213 1686 -203 1713 -207 b 1810 -239 1768 -220 1791 -228 l 1817 -243 l 1827 -226 z m 1060 622 b 1137 615 1086 623 1112 621 b 1208 587 1162 610 1186 600 b 1266 537 1230 573 1249 557 b 1287 506 1274 528 1281 517 b 1302 472 1293 495 1298 484 b 1315 398 1310 448 1314 423 b 1306 323 1315 373 1312 347 b 1296 285 1304 310 1300 298 b 1283 250 1292 273 1288 261 b 1190 128 1261 203 1229 161 b 1054 53 1149 95 1103 69 b 934 31 1015 40 975 33 b 1028 85 967 47 998 65 b 1151 196 1079 120 1120 156 b 1175 230 1160 207 1168 218 b 1194 269 1182 243 1188 255 b 1205 310 1199 282 1203 296 b 1206 318 1206 313 1206 315 b 1207 321 1206 319 1207 320 l 1207 322 b 1207 333 1207 326 1207 329 l 1207 336 b 1208 342 1208 338 1208 340 l 1208 344 b 1208 351 1209 346 1209 349 l 1207 357 l 1201 357 b 1176 352 1185 358 1178 359 b 1176 346 1175 350 1175 348 b 1176 344 1176 345 1176 345 b 1176 340 1176 343 1176 342 l 1176 340 b 1152 277 1173 317 1165 296 b 1128 251 1145 268 1137 259 b 1098 233 1119 244 1109 238 b 1027 222 1076 224 1052 220 b 991 228 1015 223 1003 225 l 990 229 b 983 231 987 229 985 230 b 975 234 981 231 978 232 b 959 242 969 236 964 239 b 903 290 937 255 918 271 b 868 354 887 309 875 330 b 862 426 861 377 858 402 b 882 499 865 452 872 476 b 900 532 887 510 893 521 b 924 561 907 542 915 552 b 953 585 933 570 942 578 b 986 603 963 592 974 598 b 1060 622 1010 614 1035 620 z m 187 376 b 146 442 172 397 158 419 b 95 588 122 488 105 537 b 85 664 90 613 86 638 b 85 702 84 678 84 690 b 88 741 86 718 86 730 b 100 818 90 767 94 792 b 122 892 105 843 113 868 b 593 1254 196 1094 379 1235 b 607 1255 598 1255 603 1255 b 613 1256 609 1255 611 1255 b 619 1256 615 1256 617 1256 b 633 1256 624 1256 628 1256 b 672 1255 644 1256 656 1256 b 751 1246 699 1254 725 1250 b 908 1213 804 1237 856 1226 b 917 1210 911 1212 914 1211 b 902 1189 912 1203 907 1196 b 859 1106 884 1163 870 1135 b 839 1013 848 1076 842 1045 b 855 914 837 979 843 946 b 866 891 858 906 862 898 b 870 883 867 888 869 886 b 730 840 822 876 775 862 b 587 742 678 815 629 782 b 529 675 566 721 546 699 l 528 674 b 525 671 527 673 526 672 l 520 663 l 520 663 b 503 638 514 655 509 646 b 482 598 497 626 489 613 b 450 513 469 571 458 542 b 436 422 442 483 438 453 b 442 329 434 391 436 360 b 467 241 447 299 455 269 b 470 235 468 239 469 237 b 476 220 472 230 474 225 l 477 218 b 487 199 480 212 483 205 b 502 173 491 190 497 182 b 363 225 454 184 407 202 b 296 266 339 237 317 251 b 237 317 275 281 255 298 b 187 376 219 335 202 355 z m 1027 821 b 1011 825 1021 821 1016 823 b 984 846 1001 830 991 837 b 981 849 983 847 982 848 b 1015 846 993 848 1004 847 l 1016 846 b 1033 842 1021 845 1027 844 b 1046 835 1038 841 1042 838 b 1049 830 1048 834 1050 832 b 1047 826 1049 828 1048 827 b 1042 823 1046 825 1044 824 b 1027 821 1037 821 1032 820 z m 1087 1233 b 1146 1265 1105 1247 1125 1258 b 1215 1273 1168 1272 1192 1275 b 1219 1273 1216 1273 1218 1273 b 1225 1273 1221 1273 1223 1273 b 1228 1273 1226 1273 1227 1273 b 1234 1272 1230 1273 1232 1272 b 1253 1270 1240 1272 1246 1271 b 1288 1261 1265 1269 1277 1266 b 1317 1243 1299 1257 1309 1251 b 1330 1216 1325 1236 1329 1226 b 1321 1186 1331 1205 1327 1194 b 1295 1163 1314 1176 1305 1168 b 1278 1157 1290 1160 1284 1158 b 1259 1154 1272 1156 1266 1155 b 1221 1151 1247 1152 1234 1151 b 1144 1162 1195 1152 1169 1155 b 1067 1184 1117 1168 1089 1177 b 1044 1191 1059 1186 1051 1189 b 1087 1233 1056 1207 1071 1221 z "},"Ê":{"ha":1439,"x_min":0,"x_max":0,"o":"m 1821 -222 b 1743 -191 1800 -209 1775 -199 b 1662 -178 1717 -185 1690 -181 b 1500 -173 1608 -173 1554 -171 b 1339 -180 1453 -173 1403 -176 b 1187 -190 1288 -183 1236 -187 l 1178 -191 b 1018 -201 1130 -194 1073 -198 b 858 -204 970 -203 915 -205 b 818 -202 845 -203 831 -203 b 792 -200 810 -202 801 -201 b 779 -199 788 -200 783 -199 b 753 -196 770 -198 761 -197 b 739 -195 748 -196 744 -195 b 728 -193 735 -194 732 -194 b 700 -190 719 -192 709 -191 b 688 -188 696 -189 692 -188 b 660 -183 679 -186 670 -185 l 641 -180 l 621 -176 b 595 -170 612 -174 604 -172 b 583 -167 591 -169 587 -168 b 570 -164 579 -166 574 -165 b 563 -162 568 -163 566 -162 l 563 -162 b 544 -157 557 -160 550 -159 l 525 -151 b 514 -147 521 -150 518 -149 b 506 -145 511 -147 509 -146 l 497 -142 b 491 -140 495 -141 493 -141 b 488 -139 490 -140 489 -139 l 469 -132 b 396 -102 443 -122 419 -112 b 326 -65 372 -91 349 -78 b 272 -31 308 -54 290 -43 b 406 -69 315 -49 360 -61 b 570 -76 460 -77 515 -80 b 651 -68 597 -75 624 -72 b 732 -51 678 -64 705 -58 b 752 -44 739 -48 746 -46 l 771 -38 b 796 -29 779 -35 788 -32 b 809 -24 800 -27 805 -26 b 822 -19 813 -22 818 -21 b 828 -17 824 -18 826 -17 l 847 -9 l 865 -1 b 900 -1 877 -1 888 -1 b 1061 30 955 2 1009 12 b 1137 62 1087 39 1113 50 b 1207 107 1161 75 1185 90 b 1312 236 1252 143 1289 187 b 1328 275 1318 248 1323 261 b 1340 315 1333 288 1336 301 b 1349 399 1346 342 1349 371 b 1332 483 1348 428 1343 456 b 1313 522 1327 496 1321 509 b 1287 556 1306 534 1297 545 b 1220 608 1268 577 1245 594 b 1142 636 1196 621 1169 630 b 977 624 1085 648 1028 644 b 905 580 951 614 926 599 b 876 549 895 571 885 560 b 854 512 868 537 860 525 b 828 431 841 487 832 459 b 834 344 824 402 826 372 b 875 267 843 316 857 290 b 941 211 893 245 916 226 b 960 201 947 207 954 204 b 971 197 964 200 967 198 b 980 194 974 196 977 195 l 982 193 b 1025 186 996 190 1010 187 b 1069 188 1040 185 1055 186 b 1112 201 1084 191 1098 195 b 1116 203 1113 202 1115 203 b 1010 111 1089 171 1054 141 b 871 36 966 82 920 57 l 865 33 b 751 66 825 37 787 49 b 659 132 717 82 686 105 b 668 132 662 132 665 132 b 749 133 693 131 721 132 b 829 140 778 135 807 137 l 837 140 l 835 161 l 827 160 b 748 153 798 157 772 154 b 668 152 719 152 693 151 b 641 153 660 152 651 153 b 638 156 640 154 639 155 b 602 215 624 175 612 194 b 588 247 597 226 592 236 l 581 268 l 577 280 b 562 348 570 302 565 325 b 561 355 562 350 561 353 l 560 365 b 560 372 560 367 560 369 b 559 382 559 375 559 378 l 559 391 b 559 396 559 392 559 394 b 559 399 559 397 559 398 b 559 412 558 403 559 408 b 559 416 559 413 559 415 b 659 676 562 504 598 597 b 766 779 689 716 725 750 b 902 841 809 809 855 830 b 907 842 904 841 905 842 b 918 834 911 839 915 837 b 959 812 931 826 945 818 b 1004 799 974 806 988 801 b 1050 803 1022 796 1037 798 b 1061 810 1054 805 1058 807 b 1070 823 1065 814 1068 818 b 1071 840 1072 828 1073 834 b 1063 853 1069 845 1067 849 b 1043 868 1058 859 1051 864 b 1022 876 1036 871 1029 874 b 980 884 1008 879 994 882 b 962 886 975 885 969 886 b 960 893 961 889 961 891 b 959 896 960 894 959 895 l 958 898 b 958 900 958 899 958 900 b 957 903 957 901 957 902 b 956 908 957 904 956 906 b 953 937 954 917 953 927 b 959 1000 953 958 955 980 b 975 1065 963 1022 968 1044 b 1002 1128 982 1087 991 1108 b 1032 1176 1011 1145 1021 1161 b 1061 1166 1042 1172 1051 1169 b 1139 1142 1089 1157 1113 1149 b 1221 1130 1166 1135 1193 1131 b 1262 1133 1235 1130 1249 1131 b 1283 1136 1269 1134 1276 1135 b 1304 1144 1290 1138 1298 1140 b 1339 1172 1318 1150 1330 1160 b 1355 1217 1349 1185 1355 1201 b 1350 1241 1355 1225 1353 1233 b 1338 1262 1348 1249 1343 1256 b 1304 1292 1329 1274 1317 1284 b 1265 1312 1291 1300 1278 1307 b 1245 1320 1258 1315 1251 1318 l 1235 1324 b 1229 1326 1233 1325 1231 1325 l 1224 1327 b 1042 1310 1163 1342 1099 1337 b 963 1259 1013 1297 987 1280 b 929 1225 951 1249 940 1237 b 912 1230 924 1227 918 1228 b 754 1263 860 1243 807 1255 b 714 1270 741 1266 728 1268 b 673 1274 700 1272 686 1273 b 633 1276 657 1275 644 1276 b 619 1275 628 1276 623 1276 b 612 1275 616 1275 614 1275 l 612 1275 b 606 1275 610 1275 608 1275 b 592 1274 601 1275 596 1274 b 511 1262 564 1272 537 1268 b 432 1240 484 1256 458 1249 b 287 1164 380 1221 332 1195 b 275 1155 283 1161 279 1158 b 270 1151 274 1154 272 1153 l 270 1151 b 265 1147 268 1150 266 1148 b 254 1139 261 1144 257 1141 b 223 1111 243 1129 232 1120 b 83 907 162 1054 115 984 b 58 828 73 881 64 855 b 43 746 51 801 46 773 b 40 704 42 734 41 721 b 40 662 40 690 40 676 b 51 579 42 634 45 606 b 110 423 63 524 83 471 b 157 354 124 399 140 375 b 214 293 174 332 193 311 b 351 201 254 255 301 224 b 506 149 400 177 452 160 b 522 146 511 148 517 147 b 541 124 528 139 535 131 b 575 93 552 113 563 103 b 651 45 598 74 624 58 b 733 15 677 32 705 22 b 793 4 753 10 772 6 b 785 1 790 3 788 2 b 760 -8 777 -2 769 -5 l 741 -15 b 723 -20 736 -16 730 -18 b 646 -37 698 -27 672 -33 b 568 -45 620 -41 594 -43 b 411 -37 515 -48 463 -46 b 262 8 359 -30 309 -14 b 138 100 215 31 173 62 b 112 130 129 109 120 119 b 109 134 111 131 110 133 b 107 137 108 135 107 136 b 101 145 105 140 103 142 l 97 151 b 92 158 97 154 95 157 l 92 159 l 91 158 b 83 156 88 159 85 157 b 70 148 80 154 76 152 l 64 144 l 66 141 b 67 137 66 140 66 138 b 71 133 68 135 69 134 l 72 131 b 121 65 87 108 103 86 b 241 -47 157 23 197 -15 b 310 -92 264 -63 286 -78 b 383 -130 334 -106 358 -119 b 458 -162 406 -141 431 -151 l 477 -168 b 481 -170 478 -169 480 -169 b 487 -172 483 -170 485 -171 l 497 -175 b 503 -177 499 -176 501 -176 b 516 -181 508 -178 512 -180 l 536 -187 b 553 -191 541 -188 547 -190 l 560 -193 b 575 -197 565 -195 570 -196 b 588 -200 579 -198 584 -199 b 615 -206 597 -202 606 -205 l 635 -210 l 655 -214 b 684 -219 664 -216 674 -217 b 695 -221 687 -219 691 -220 b 724 -224 705 -222 714 -223 b 735 -226 728 -225 731 -225 l 736 -226 b 750 -228 740 -226 745 -227 b 776 -230 758 -228 767 -229 b 789 -231 780 -230 785 -231 b 817 -233 798 -232 807 -233 b 857 -235 830 -234 844 -235 b 938 -235 882 -236 909 -235 b 1019 -232 965 -234 992 -233 b 1180 -221 1074 -229 1129 -225 b 1238 -216 1199 -219 1218 -217 b 1501 -199 1324 -209 1413 -202 b 1581 -198 1529 -198 1556 -198 b 1660 -201 1612 -198 1637 -199 b 1738 -213 1686 -203 1713 -207 b 1810 -239 1768 -220 1791 -228 l 1817 -243 l 1827 -226 z m 1060 622 b 1137 615 1086 623 1112 621 b 1208 587 1162 610 1186 600 b 1266 537 1230 573 1249 557 b 1287 506 1274 528 1281 517 b 1302 472 1293 495 1298 484 b 1315 398 1310 448 1314 423 b 1306 323 1315 373 1312 347 b 1296 285 1304 310 1300 298 b 1283 250 1292 273 1288 261 b 1190 128 1261 203 1229 161 b 1054 53 1149 95 1103 69 b 934 31 1015 40 975 33 b 1028 85 967 47 998 65 b 1151 196 1079 120 1120 156 b 1175 230 1160 207 1168 218 b 1194 269 1182 243 1188 255 b 1205 310 1199 282 1203 296 b 1206 318 1206 313 1206 315 b 1207 321 1206 319 1207 320 l 1207 322 b 1207 333 1207 326 1207 329 l 1207 336 b 1208 342 1208 338 1208 340 l 1208 344 b 1208 351 1209 346 1209 349 l 1207 357 l 1201 357 b 1176 352 1185 358 1178 359 b 1176 346 1175 350 1175 348 b 1176 344 1176 345 1176 345 b 1176 340 1176 343 1176 342 l 1176 340 b 1152 277 1173 317 1165 296 b 1128 251 1145 268 1137 259 b 1098 233 1119 244 1109 238 b 1027 222 1076 224 1052 220 b 991 228 1015 223 1003 225 l 990 229 b 983 231 987 229 985 230 b 975 234 981 231 978 232 b 959 242 969 236 964 239 b 903 290 937 255 918 271 b 868 354 887 309 875 330 b 862 426 861 377 858 402 b 882 499 865 452 872 476 b 900 532 887 510 893 521 b 924 561 907 542 915 552 b 953 585 933 570 942 578 b 986 603 963 592 974 598 b 1060 622 1010 614 1035 620 z m 187 376 b 146 442 172 397 158 419 b 95 588 122 488 105 537 b 85 664 90 613 86 638 b 85 702 84 678 84 690 b 88 741 86 718 86 730 b 100 818 90 767 94 792 b 122 892 105 843 113 868 b 593 1254 196 1094 379 1235 b 607 1255 598 1255 603 1255 b 613 1256 609 1255 611 1255 b 619 1256 615 1256 617 1256 b 633 1256 624 1256 628 1256 b 672 1255 644 1256 656 1256 b 751 1246 699 1254 725 1250 b 908 1213 804 1237 856 1226 b 917 1210 911 1212 914 1211 b 902 1189 912 1203 907 1196 b 859 1106 884 1163 870 1135 b 839 1013 848 1076 842 1045 b 855 914 837 979 843 946 b 866 891 858 906 862 898 b 870 883 867 888 869 886 b 730 840 822 876 775 862 b 587 742 678 815 629 782 b 529 675 566 721 546 699 l 528 674 b 525 671 527 673 526 672 l 520 663 l 520 663 b 503 638 514 655 509 646 b 482 598 497 626 489 613 b 450 513 469 571 458 542 b 436 422 442 483 438 453 b 442 329 434 391 436 360 b 467 241 447 299 455 269 b 470 235 468 239 469 237 b 476 220 472 230 474 225 l 477 218 b 487 199 480 212 483 205 b 502 173 491 190 497 182 b 363 225 454 184 407 202 b 296 266 339 237 317 251 b 237 317 275 281 255 298 b 187 376 219 335 202 355 z m 1027 821 b 1011 825 1021 821 1016 823 b 984 846 1001 830 991 837 b 981 849 983 847 982 848 b 1015 846 993 848 1004 847 l 1016 846 b 1033 842 1021 845 1027 844 b 1046 835 1038 841 1042 838 b 1049 830 1048 834 1050 832 b 1047 826 1049 828 1048 827 b 1042 823 1046 825 1044 824 b 1027 821 1037 821 1032 820 z m 1087 1233 b 1146 1265 1105 1247 1125 1258 b 1215 1273 1168 1272 1192 1275 b 1219 1273 1216 1273 1218 1273 b 1225 1273 1221 1273 1223 1273 b 1228 1273 1226 1273 1227 1273 b 1234 1272 1230 1273 1232 1272 b 1253 1270 1240 1272 1246 1271 b 1288 1261 1265 1269 1277 1266 b 1317 1243 1299 1257 1309 1251 b 1330 1216 1325 1236 1329 1226 b 1321 1186 1331 1205 1327 1194 b 1295 1163 1314 1176 1305 1168 b 1278 1157 1290 1160 1284 1158 b 1259 1154 1272 1156 1266 1155 b 1221 1151 1247 1152 1234 1151 b 1144 1162 1195 1152 1169 1155 b 1067 1184 1117 1168 1089 1177 b 1044 1191 1059 1186 1051 1189 b 1087 1233 1056 1207 1071 1221 z "},"Ë":{"ha":1439,"x_min":0,"x_max":0,"o":"m 1821 -222 b 1743 -191 1800 -209 1775 -199 b 1662 -178 1717 -185 1690 -181 b 1500 -173 1608 -173 1554 -171 b 1339 -180 1453 -173 1403 -176 b 1187 -190 1288 -183 1236 -187 l 1178 -191 b 1018 -201 1130 -194 1073 -198 b 858 -204 970 -203 915 -205 b 818 -202 845 -203 831 -203 b 792 -200 810 -202 801 -201 b 779 -199 788 -200 783 -199 b 753 -196 770 -198 761 -197 b 739 -195 748 -196 744 -195 b 728 -193 735 -194 732 -194 b 700 -190 719 -192 709 -191 b 688 -188 696 -189 692 -188 b 660 -183 679 -186 670 -185 l 641 -180 l 621 -176 b 595 -170 612 -174 604 -172 b 583 -167 591 -169 587 -168 b 570 -164 579 -166 574 -165 b 563 -162 568 -163 566 -162 l 563 -162 b 544 -157 557 -160 550 -159 l 525 -151 b 514 -147 521 -150 518 -149 b 506 -145 511 -147 509 -146 l 497 -142 b 491 -140 495 -141 493 -141 b 488 -139 490 -140 489 -139 l 469 -132 b 396 -102 443 -122 419 -112 b 326 -65 372 -91 349 -78 b 272 -31 308 -54 290 -43 b 406 -69 315 -49 360 -61 b 570 -76 460 -77 515 -80 b 651 -68 597 -75 624 -72 b 732 -51 678 -64 705 -58 b 752 -44 739 -48 746 -46 l 771 -38 b 796 -29 779 -35 788 -32 b 809 -24 800 -27 805 -26 b 822 -19 813 -22 818 -21 b 828 -17 824 -18 826 -17 l 847 -9 l 865 -1 b 900 -1 877 -1 888 -1 b 1061 30 955 2 1009 12 b 1137 62 1087 39 1113 50 b 1207 107 1161 75 1185 90 b 1312 236 1252 143 1289 187 b 1328 275 1318 248 1323 261 b 1340 315 1333 288 1336 301 b 1349 399 1346 342 1349 371 b 1332 483 1348 428 1343 456 b 1313 522 1327 496 1321 509 b 1287 556 1306 534 1297 545 b 1220 608 1268 577 1245 594 b 1142 636 1196 621 1169 630 b 977 624 1085 648 1028 644 b 905 580 951 614 926 599 b 876 549 895 571 885 560 b 854 512 868 537 860 525 b 828 431 841 487 832 459 b 834 344 824 402 826 372 b 875 267 843 316 857 290 b 941 211 893 245 916 226 b 960 201 947 207 954 204 b 971 197 964 200 967 198 b 980 194 974 196 977 195 l 982 193 b 1025 186 996 190 1010 187 b 1069 188 1040 185 1055 186 b 1112 201 1084 191 1098 195 b 1116 203 1113 202 1115 203 b 1010 111 1089 171 1054 141 b 871 36 966 82 920 57 l 865 33 b 751 66 825 37 787 49 b 659 132 717 82 686 105 b 668 132 662 132 665 132 b 749 133 693 131 721 132 b 829 140 778 135 807 137 l 837 140 l 835 161 l 827 160 b 748 153 798 157 772 154 b 668 152 719 152 693 151 b 641 153 660 152 651 153 b 638 156 640 154 639 155 b 602 215 624 175 612 194 b 588 247 597 226 592 236 l 581 268 l 577 280 b 562 348 570 302 565 325 b 561 355 562 350 561 353 l 560 365 b 560 372 560 367 560 369 b 559 382 559 375 559 378 l 559 391 b 559 396 559 392 559 394 b 559 399 559 397 559 398 b 559 412 558 403 559 408 b 559 416 559 413 559 415 b 659 676 562 504 598 597 b 766 779 689 716 725 750 b 902 841 809 809 855 830 b 907 842 904 841 905 842 b 918 834 911 839 915 837 b 959 812 931 826 945 818 b 1004 799 974 806 988 801 b 1050 803 1022 796 1037 798 b 1061 810 1054 805 1058 807 b 1070 823 1065 814 1068 818 b 1071 840 1072 828 1073 834 b 1063 853 1069 845 1067 849 b 1043 868 1058 859 1051 864 b 1022 876 1036 871 1029 874 b 980 884 1008 879 994 882 b 962 886 975 885 969 886 b 960 893 961 889 961 891 b 959 896 960 894 959 895 l 958 898 b 958 900 958 899 958 900 b 957 903 957 901 957 902 b 956 908 957 904 956 906 b 953 937 954 917 953 927 b 959 1000 953 958 955 980 b 975 1065 963 1022 968 1044 b 1002 1128 982 1087 991 1108 b 1032 1176 1011 1145 1021 1161 b 1061 1166 1042 1172 1051 1169 b 1139 1142 1089 1157 1113 1149 b 1221 1130 1166 1135 1193 1131 b 1262 1133 1235 1130 1249 1131 b 1283 1136 1269 1134 1276 1135 b 1304 1144 1290 1138 1298 1140 b 1339 1172 1318 1150 1330 1160 b 1355 1217 1349 1185 1355 1201 b 1350 1241 1355 1225 1353 1233 b 1338 1262 1348 1249 1343 1256 b 1304 1292 1329 1274 1317 1284 b 1265 1312 1291 1300 1278 1307 b 1245 1320 1258 1315 1251 1318 l 1235 1324 b 1229 1326 1233 1325 1231 1325 l 1224 1327 b 1042 1310 1163 1342 1099 1337 b 963 1259 1013 1297 987 1280 b 929 1225 951 1249 940 1237 b 912 1230 924 1227 918 1228 b 754 1263 860 1243 807 1255 b 714 1270 741 1266 728 1268 b 673 1274 700 1272 686 1273 b 633 1276 657 1275 644 1276 b 619 1275 628 1276 623 1276 b 612 1275 616 1275 614 1275 l 612 1275 b 606 1275 610 1275 608 1275 b 592 1274 601 1275 596 1274 b 511 1262 564 1272 537 1268 b 432 1240 484 1256 458 1249 b 287 1164 380 1221 332 1195 b 275 1155 283 1161 279 1158 b 270 1151 274 1154 272 1153 l 270 1151 b 265 1147 268 1150 266 1148 b 254 1139 261 1144 257 1141 b 223 1111 243 1129 232 1120 b 83 907 162 1054 115 984 b 58 828 73 881 64 855 b 43 746 51 801 46 773 b 40 704 42 734 41 721 b 40 662 40 690 40 676 b 51 579 42 634 45 606 b 110 423 63 524 83 471 b 157 354 124 399 140 375 b 214 293 174 332 193 311 b 351 201 254 255 301 224 b 506 149 400 177 452 160 b 522 146 511 148 517 147 b 541 124 528 139 535 131 b 575 93 552 113 563 103 b 651 45 598 74 624 58 b 733 15 677 32 705 22 b 793 4 753 10 772 6 b 785 1 790 3 788 2 b 760 -8 777 -2 769 -5 l 741 -15 b 723 -20 736 -16 730 -18 b 646 -37 698 -27 672 -33 b 568 -45 620 -41 594 -43 b 411 -37 515 -48 463 -46 b 262 8 359 -30 309 -14 b 138 100 215 31 173 62 b 112 130 129 109 120 119 b 109 134 111 131 110 133 b 107 137 108 135 107 136 b 101 145 105 140 103 142 l 97 151 b 92 158 97 154 95 157 l 92 159 l 91 158 b 83 156 88 159 85 157 b 70 148 80 154 76 152 l 64 144 l 66 141 b 67 137 66 140 66 138 b 71 133 68 135 69 134 l 72 131 b 121 65 87 108 103 86 b 241 -47 157 23 197 -15 b 310 -92 264 -63 286 -78 b 383 -130 334 -106 358 -119 b 458 -162 406 -141 431 -151 l 477 -168 b 481 -170 478 -169 480 -169 b 487 -172 483 -170 485 -171 l 497 -175 b 503 -177 499 -176 501 -176 b 516 -181 508 -178 512 -180 l 536 -187 b 553 -191 541 -188 547 -190 l 560 -193 b 575 -197 565 -195 570 -196 b 588 -200 579 -198 584 -199 b 615 -206 597 -202 606 -205 l 635 -210 l 655 -214 b 684 -219 664 -216 674 -217 b 695 -221 687 -219 691 -220 b 724 -224 705 -222 714 -223 b 735 -226 728 -225 731 -225 l 736 -226 b 750 -228 740 -226 745 -227 b 776 -230 758 -228 767 -229 b 789 -231 780 -230 785 -231 b 817 -233 798 -232 807 -233 b 857 -235 830 -234 844 -235 b 938 -235 882 -236 909 -235 b 1019 -232 965 -234 992 -233 b 1180 -221 1074 -229 1129 -225 b 1238 -216 1199 -219 1218 -217 b 1501 -199 1324 -209 1413 -202 b 1581 -198 1529 -198 1556 -198 b 1660 -201 1612 -198 1637 -199 b 1738 -213 1686 -203 1713 -207 b 1810 -239 1768 -220 1791 -228 l 1817 -243 l 1827 -226 z m 1060 622 b 1137 615 1086 623 1112 621 b 1208 587 1162 610 1186 600 b 1266 537 1230 573 1249 557 b 1287 506 1274 528 1281 517 b 1302 472 1293 495 1298 484 b 1315 398 1310 448 1314 423 b 1306 323 1315 373 1312 347 b 1296 285 1304 310 1300 298 b 1283 250 1292 273 1288 261 b 1190 128 1261 203 1229 161 b 1054 53 1149 95 1103 69 b 934 31 1015 40 975 33 b 1028 85 967 47 998 65 b 1151 196 1079 120 1120 156 b 1175 230 1160 207 1168 218 b 1194 269 1182 243 1188 255 b 1205 310 1199 282 1203 296 b 1206 318 1206 313 1206 315 b 1207 321 1206 319 1207 320 l 1207 322 b 1207 333 1207 326 1207 329 l 1207 336 b 1208 342 1208 338 1208 340 l 1208 344 b 1208 351 1209 346 1209 349 l 1207 357 l 1201 357 b 1176 352 1185 358 1178 359 b 1176 346 1175 350 1175 348 b 1176 344 1176 345 1176 345 b 1176 340 1176 343 1176 342 l 1176 340 b 1152 277 1173 317 1165 296 b 1128 251 1145 268 1137 259 b 1098 233 1119 244 1109 238 b 1027 222 1076 224 1052 220 b 991 228 1015 223 1003 225 l 990 229 b 983 231 987 229 985 230 b 975 234 981 231 978 232 b 959 242 969 236 964 239 b 903 290 937 255 918 271 b 868 354 887 309 875 330 b 862 426 861 377 858 402 b 882 499 865 452 872 476 b 900 532 887 510 893 521 b 924 561 907 542 915 552 b 953 585 933 570 942 578 b 986 603 963 592 974 598 b 1060 622 1010 614 1035 620 z m 187 376 b 146 442 172 397 158 419 b 95 588 122 488 105 537 b 85 664 90 613 86 638 b 85 702 84 678 84 690 b 88 741 86 718 86 730 b 100 818 90 767 94 792 b 122 892 105 843 113 868 b 593 1254 196 1094 379 1235 b 607 1255 598 1255 603 1255 b 613 1256 609 1255 611 1255 b 619 1256 615 1256 617 1256 b 633 1256 624 1256 628 1256 b 672 1255 644 1256 656 1256 b 751 1246 699 1254 725 1250 b 908 1213 804 1237 856 1226 b 917 1210 911 1212 914 1211 b 902 1189 912 1203 907 1196 b 859 1106 884 1163 870 1135 b 839 1013 848 1076 842 1045 b 855 914 837 979 843 946 b 866 891 858 906 862 898 b 870 883 867 888 869 886 b 730 840 822 876 775 862 b 587 742 678 815 629 782 b 529 675 566 721 546 699 l 528 674 b 525 671 527 673 526 672 l 520 663 l 520 663 b 503 638 514 655 509 646 b 482 598 497 626 489 613 b 450 513 469 571 458 542 b 436 422 442 483 438 453 b 442 329 434 391 436 360 b 467 241 447 299 455 269 b 470 235 468 239 469 237 b 476 220 472 230 474 225 l 477 218 b 487 199 480 212 483 205 b 502 173 491 190 497 182 b 363 225 454 184 407 202 b 296 266 339 237 317 251 b 237 317 275 281 255 298 b 187 376 219 335 202 355 z m 1027 821 b 1011 825 1021 821 1016 823 b 984 846 1001 830 991 837 b 981 849 983 847 982 848 b 1015 846 993 848 1004 847 l 1016 846 b 1033 842 1021 845 1027 844 b 1046 835 1038 841 1042 838 b 1049 830 1048 834 1050 832 b 1047 826 1049 828 1048 827 b 1042 823 1046 825 1044 824 b 1027 821 1037 821 1032 820 z m 1087 1233 b 1146 1265 1105 1247 1125 1258 b 1215 1273 1168 1272 1192 1275 b 1219 1273 1216 1273 1218 1273 b 1225 1273 1221 1273 1223 1273 b 1228 1273 1226 1273 1227 1273 b 1234 1272 1230 1273 1232 1272 b 1253 1270 1240 1272 1246 1271 b 1288 1261 1265 1269 1277 1266 b 1317 1243 1299 1257 1309 1251 b 1330 1216 1325 1236 1329 1226 b 1321 1186 1331 1205 1327 1194 b 1295 1163 1314 1176 1305 1168 b 1278 1157 1290 1160 1284 1158 b 1259 1154 1272 1156 1266 1155 b 1221 1151 1247 1152 1234 1151 b 1144 1162 1195 1152 1169 1155 b 1067 1184 1117 1168 1089 1177 b 1044 1191 1059 1186 1051 1189 b 1087 1233 1056 1207 1071 1221 z "},"F":{"ha":1421,"x_min":0,"x_max":0,"o":"m 1908 1253 l 1904 1273 b 1900 1276 1904 1275 1902 1276 b 1896 1273 1898 1276 1896 1275 l 1893 1254 b 1889 1241 1892 1249 1891 1245 b 1883 1232 1887 1238 1885 1235 b 1864 1219 1877 1226 1871 1222 b 1840 1213 1856 1216 1848 1214 b 1814 1212 1831 1212 1822 1212 b 1787 1214 1803 1212 1795 1213 b 1759 1217 1778 1214 1769 1216 b 1705 1228 1743 1220 1725 1223 b 1596 1262 1669 1237 1634 1249 b 1486 1298 1560 1274 1523 1287 b 1477 1301 1483 1299 1480 1300 b 1459 1307 1471 1303 1465 1305 b 1448 1310 1455 1308 1452 1309 l 1444 1312 b 1430 1316 1440 1313 1435 1315 l 1429 1316 b 1414 1320 1424 1318 1419 1319 b 1409 1322 1413 1321 1411 1321 b 1399 1324 1406 1322 1403 1323 b 1368 1331 1390 1326 1380 1329 b 1244 1344 1328 1339 1286 1343 b 1121 1336 1203 1344 1162 1342 b 1002 1310 1081 1330 1041 1321 b 888 1270 963 1299 925 1286 b 780 1216 850 1255 814 1237 b 729 1182 760 1204 744 1193 b 706 1163 721 1176 713 1169 b 698 1156 703 1161 701 1158 b 694 1153 697 1155 696 1154 b 687 1146 692 1150 690 1148 b 684 1142 686 1145 685 1143 b 642 1098 668 1127 654 1112 b 606 1049 629 1082 617 1066 b 553 941 584 1015 566 979 b 545 915 550 932 547 924 b 497 917 529 917 513 917 b 379 898 457 916 418 909 b 272 846 341 886 305 869 b 186 762 239 823 210 794 b 133 655 162 729 145 693 b 139 418 111 579 113 495 b 194 312 152 380 171 345 b 279 227 218 280 247 251 b 386 173 312 204 348 185 b 505 154 424 161 464 155 l 505 154 b 514 160 509 154 512 156 b 514 169 515 163 516 166 b 506 175 513 172 510 174 l 506 175 b 396 204 468 180 432 190 b 158 537 259 260 166 390 b 168 645 156 573 159 610 b 186 696 172 662 178 679 b 212 744 193 713 202 729 b 246 787 222 759 233 774 b 252 793 248 789 250 791 b 256 797 253 795 254 796 b 262 803 258 799 260 801 b 266 807 263 804 264 806 b 277 817 269 810 273 814 b 287 825 280 820 284 822 b 385 878 316 850 349 868 b 498 891 422 889 460 893 b 525 889 507 891 516 890 l 525 889 b 534 887 528 888 531 888 l 538 887 b 530 822 533 865 531 844 b 546 701 528 781 534 740 b 573 646 553 682 562 663 b 612 598 583 628 596 612 b 663 563 627 584 644 572 b 782 583 702 543 751 551 b 813 637 796 598 807 616 b 819 698 819 656 821 677 b 801 757 816 718 810 738 b 767 807 792 775 780 792 b 722 847 753 822 739 835 b 672 880 707 859 690 870 b 616 902 654 889 635 897 b 569 913 601 907 585 910 b 576 933 571 919 573 926 b 629 1034 589 968 607 1002 b 705 1119 651 1065 677 1094 b 709 1123 706 1120 708 1122 b 716 1129 711 1125 713 1127 l 717 1130 b 727 1138 720 1133 724 1135 b 749 1155 734 1144 741 1149 b 798 1185 765 1166 781 1175 b 1238 1263 932 1258 1087 1285 b 1347 1241 1275 1258 1311 1251 b 1374 1233 1357 1238 1366 1235 b 1385 1229 1378 1232 1381 1230 l 1387 1228 b 1400 1224 1392 1227 1396 1225 b 1413 1219 1404 1223 1408 1221 b 1417 1218 1414 1219 1416 1218 b 1426 1214 1420 1217 1423 1216 b 1450 1206 1434 1211 1442 1208 l 1455 1204 b 1572 1171 1493 1190 1532 1179 b 1693 1155 1612 1164 1652 1158 b 1756 1154 1714 1154 1735 1154 b 1787 1157 1765 1155 1776 1155 b 1819 1162 1798 1158 1809 1160 b 1851 1172 1830 1165 1841 1168 b 1881 1190 1862 1177 1872 1182 b 1904 1219 1891 1197 1899 1207 b 1908 1236 1906 1224 1908 1230 b 1908 1253 1909 1242 1909 1247 z m 605 868 b 651 843 621 861 637 853 l 663 836 b 671 830 665 834 668 832 l 674 828 b 695 811 680 823 688 817 b 757 735 724 787 745 761 b 769 692 763 721 767 707 b 769 671 770 685 770 678 b 766 651 768 665 767 658 l 766 651 b 761 630 764 643 762 637 b 759 626 760 629 760 628 b 759 624 759 626 759 625 b 757 620 758 623 758 621 l 757 619 b 754 611 756 616 755 614 l 753 609 b 740 590 749 602 745 596 b 721 578 734 585 728 580 b 715 576 719 577 717 576 b 709 575 713 575 711 575 b 696 574 705 574 701 574 b 684 577 692 575 688 575 l 684 577 b 678 579 682 578 680 578 l 672 582 b 626 613 655 590 639 600 b 591 657 612 626 600 641 b 567 708 581 673 573 690 b 559 736 564 717 561 726 b 554 764 557 745 556 754 b 552 792 553 773 553 783 b 552 821 552 802 552 811 b 561 882 553 841 556 862 b 605 868 576 878 591 873 z m 1709 -202 b 1655 -178 1691 -193 1673 -185 b 1581 -153 1631 -168 1606 -160 b 1428 -127 1531 -139 1480 -130 b 1274 -129 1377 -124 1325 -125 b 1121 -149 1229 -133 1181 -139 b 1008 -169 1084 -155 1045 -162 b 822 -200 947 -180 884 -192 b 672 -214 772 -207 722 -212 b 523 -208 622 -215 572 -213 b 449 -196 498 -205 474 -201 b 377 -177 426 -191 401 -184 b 308 -151 354 -170 331 -161 b 243 -117 286 -141 264 -130 b 129 -24 201 -91 163 -60 b 43 95 95 11 67 51 b -9 232 20 138 2 185 b -23 305 -15 256 -20 281 b -26 379 -25 330 -27 354 b -16 477 -26 412 -23 445 b -14 429 -17 461 -16 445 b 3 347 -11 401 -5 374 b 37 271 12 321 23 296 b 59 236 43 259 51 248 b 83 203 66 225 75 214 b 111 172 92 192 101 182 b 140 143 119 163 129 153 b 172 117 150 135 160 126 b 186 106 177 113 182 110 l 191 103 b 206 93 196 99 201 96 b 354 24 252 63 302 40 b 394 13 367 20 380 16 b 434 5 406 10 418 8 b 475 0 448 3 461 1 b 515 -2 489 -1 503 -2 b 678 17 570 -3 625 4 b 831 77 731 31 782 51 b 970 166 880 102 927 132 b 1093 280 1015 201 1056 239 b 1147 344 1112 300 1130 322 b 1196 413 1166 369 1182 391 b 1238 485 1210 435 1224 459 b 1253 514 1243 494 1248 504 b 1257 522 1254 516 1256 519 l 1275 558 b 1299 608 1283 575 1291 591 b 1327 613 1308 610 1318 612 b 1345 616 1333 614 1339 615 b 1360 618 1350 617 1355 617 l 1363 618 b 1398 620 1374 619 1386 620 b 1413 618 1403 619 1408 619 l 1413 618 b 1420 614 1416 617 1418 616 b 1421 606 1421 611 1421 608 b 1415 590 1419 600 1417 595 l 1406 573 b 1407 568 1405 571 1406 569 b 1412 568 1408 567 1410 567 l 1426 580 b 1434 588 1429 583 1432 585 b 1441 597 1437 591 1439 594 b 1446 610 1443 601 1445 605 b 1446 626 1448 615 1447 621 b 1437 640 1444 631 1441 636 b 1426 648 1433 643 1430 646 b 1404 657 1419 652 1411 655 b 1362 663 1390 661 1376 663 b 1342 664 1355 664 1348 664 b 1326 663 1336 664 1331 664 b 1344 701 1332 676 1338 688 b 1362 738 1350 713 1356 726 b 1413 843 1378 773 1396 809 b 1448 914 1424 867 1436 891 b 1485 982 1462 942 1474 963 b 1506 1014 1493 994 1499 1004 b 1528 1041 1512 1023 1520 1032 b 1539 1050 1531 1044 1535 1047 l 1540 1050 b 1547 1052 1542 1052 1544 1052 b 1555 1047 1550 1051 1553 1050 l 1556 1046 b 1560 1040 1557 1044 1559 1042 b 1564 1032 1562 1037 1563 1034 l 1567 1024 b 1573 1021 1568 1022 1571 1020 b 1578 1026 1576 1021 1578 1023 l 1579 1034 b 1576 1058 1580 1042 1579 1050 b 1571 1070 1575 1062 1573 1066 b 1559 1082 1567 1075 1563 1079 b 1543 1087 1554 1084 1548 1086 b 1527 1087 1537 1088 1532 1088 b 1502 1078 1518 1085 1510 1082 b 1482 1067 1495 1075 1488 1071 b 1463 1053 1476 1063 1470 1059 b 1431 1024 1452 1044 1441 1035 b 1375 961 1411 1004 1393 983 b 1326 895 1359 941 1343 919 b 1239 756 1296 852 1268 806 b 1177 639 1218 719 1198 681 b 1169 638 1175 638 1172 638 b 1132 632 1157 635 1145 634 b 1096 628 1120 630 1108 629 b 1023 626 1072 625 1047 625 b 988 630 1011 626 1000 627 b 957 640 977 632 967 635 b 933 660 947 644 939 651 b 921 690 926 669 922 679 l 916 721 b 913 724 916 722 914 724 b 910 721 911 724 910 722 l 905 690 b 911 647 903 676 905 661 b 939 612 917 633 927 621 b 978 592 951 603 964 596 b 1018 581 991 587 1004 583 b 1099 576 1045 577 1072 575 b 1138 578 1111 576 1123 577 b 1149 579 1142 579 1145 579 l 1144 570 b 1130 540 1139 560 1135 550 b 1096 471 1116 512 1106 491 b 1020 337 1068 418 1044 375 b 927 213 992 293 961 251 b 872 158 910 193 892 175 b 842 133 861 148 851 140 b 827 122 838 130 833 126 b 813 112 822 118 818 115 l 811 111 b 516 22 724 52 621 21 b 477 24 504 22 492 23 b 438 29 464 25 451 27 b 399 37 426 31 414 34 b 362 48 387 40 374 44 b 222 117 312 64 265 88 b 161 166 201 132 180 148 b 108 223 142 184 124 202 b 32 357 73 265 48 310 b 14 509 15 406 9 457 b 31 584 16 534 22 560 b 45 620 35 596 40 608 l 47 623 l 50 627 l 56 634 l 56 634 b 60 639 57 636 58 637 b 62 641 60 639 61 640 l 67 647 l 67 650 b 67 651 67 650 67 650 l 70 650 l 67 653 b 66 657 67 654 67 656 l 66 658 l 64 659 b 59 664 63 661 61 663 l 53 670 l 52 670 b 49 671 51 670 50 671 l 45 674 l 46 671 b 46 671 46 671 46 671 l 42 671 l 36 664 b 34 662 36 663 35 663 b 29 656 33 660 31 658 l 23 649 l 17 641 b -5 607 9 630 1 619 b -12 595 -8 603 -10 599 b -15 590 -13 593 -14 591 l -15 589 b -17 584 -16 588 -16 586 b -23 572 -19 580 -21 576 b -38 534 -28 561 -32 550 b -56 458 -46 509 -52 484 b -63 379 -60 432 -63 405 b -59 301 -63 353 -62 327 b -46 224 -56 275 -52 249 b 10 77 -33 173 -15 123 b 223 -150 59 -17 133 -95 b 366 -215 268 -178 316 -199 b 441 -234 391 -222 416 -229 b 518 -247 467 -240 492 -244 b 635 -254 557 -251 596 -254 b 673 -253 648 -254 661 -253 b 827 -239 725 -251 776 -246 b 1028 -204 895 -229 962 -216 b 1128 -185 1060 -197 1094 -191 b 1277 -163 1186 -174 1233 -167 b 1427 -157 1327 -157 1377 -155 b 1575 -178 1477 -159 1526 -166 b 1646 -200 1599 -184 1623 -191 b 1711 -227 1668 -208 1690 -217 b 1727 -222 1720 -229 1728 -229 b 1709 -202 1726 -213 1711 -204 z "},"G":{"ha":856,"x_min":0,"x_max":0,"o":"m 1738 -208 l 1738 -208 b 1725 -208 1734 -204 1729 -204 b 1686 -232 1713 -218 1700 -226 b 1640 -244 1671 -237 1656 -241 b 1592 -247 1625 -246 1609 -247 b 1544 -245 1577 -247 1561 -247 b 1447 -232 1512 -243 1479 -238 b 1352 -209 1416 -225 1383 -218 b 1164 -150 1295 -194 1235 -175 b 1117 -133 1149 -144 1133 -139 b 1100 -126 1112 -131 1106 -128 b 1071 -115 1091 -123 1081 -119 b 974 -86 1039 -104 1007 -94 b 875 -68 942 -78 908 -72 b 772 -71 833 -65 801 -65 b 720 -90 753 -74 736 -80 b 698 -110 712 -95 704 -102 b 690 -123 695 -114 692 -119 b 686 -138 688 -128 687 -133 b 685 -142 685 -139 685 -140 b 664 -142 678 -142 671 -142 b 564 -150 635 -143 603 -146 b 400 -170 509 -155 453 -163 b 425 -150 409 -164 417 -157 b 562 -2 472 -112 517 -64 b 669 166 598 46 632 100 b 835 522 725 267 777 380 b 870 613 847 553 859 583 b 886 659 875 625 881 642 l 902 704 b 934 794 913 734 924 764 l 951 838 l 955 850 b 968 883 959 861 963 872 b 1004 970 980 916 992 945 b 1045 1055 1018 1003 1031 1030 b 1094 1134 1059 1083 1076 1109 b 1157 1198 1116 1163 1136 1183 b 1180 1210 1164 1203 1172 1207 b 1187 1209 1182 1210 1185 1209 l 1183 1207 l 1190 1207 b 1193 1206 1191 1207 1192 1206 b 1200 1202 1195 1205 1197 1203 b 1216 1198 1205 1200 1210 1198 l 1216 1198 b 1223 1198 1219 1197 1221 1197 b 1233 1203 1227 1199 1230 1200 b 1239 1216 1236 1206 1238 1211 b 1237 1225 1239 1219 1238 1222 b 1230 1235 1235 1229 1233 1232 b 1222 1241 1227 1237 1225 1239 l 1222 1241 b 1190 1248 1212 1246 1201 1249 b 1161 1244 1180 1248 1170 1247 b 1135 1233 1152 1241 1144 1237 b 1093 1205 1120 1225 1106 1215 b 1078 1192 1088 1201 1083 1196 l 1077 1191 b 1054 1169 1069 1184 1061 1176 b 988 1092 1030 1144 1009 1119 b 880 924 949 1038 912 982 b 834 837 864 896 848 866 b 783 745 817 806 800 775 l 736 660 b 685 581 721 632 704 606 b 620 513 666 556 644 533 b 544 463 597 493 571 476 b 458 441 514 449 485 441 b 382 465 428 440 401 449 b 368 480 377 470 372 475 b 363 488 366 482 365 485 b 362 490 362 489 362 490 b 359 497 360 493 359 495 l 358 498 b 347 539 353 511 349 525 b 350 626 343 569 346 600 b 367 713 355 655 360 682 b 390 800 373 743 381 772 b 422 885 399 827 409 855 b 460 969 433 913 446 941 b 555 1126 490 1030 522 1081 l 562 1135 l 570 1143 b 585 1161 575 1150 580 1156 b 616 1194 595 1172 605 1183 b 684 1251 637 1215 660 1234 b 702 1262 689 1255 695 1259 b 721 1272 708 1266 714 1269 b 759 1285 733 1278 746 1283 b 797 1286 771 1288 784 1288 b 833 1272 810 1284 822 1279 b 885 1206 855 1259 873 1235 b 904 1117 897 1178 903 1148 b 898 1072 903 1102 901 1087 b 885 1026 894 1057 890 1042 b 847 942 876 997 864 968 b 789 870 831 916 812 891 b 712 816 766 849 740 831 b 709 804 708 814 706 808 b 720 799 711 800 716 797 l 721 799 b 806 850 752 812 781 829 b 874 925 832 872 855 897 b 917 1017 892 954 907 985 b 922 1042 919 1025 921 1034 b 925 1067 923 1050 924 1058 b 927 1111 926 1082 927 1097 l 927 1117 b 916 1217 928 1155 925 1188 b 895 1266 911 1234 904 1251 b 861 1309 886 1282 874 1297 b 810 1338 846 1322 829 1332 b 752 1346 792 1344 772 1346 b 697 1336 733 1345 715 1341 b 646 1315 679 1331 662 1324 b 600 1288 630 1307 615 1298 b 559 1256 586 1278 572 1267 b 521 1221 547 1246 534 1234 b 503 1203 516 1216 510 1210 l 486 1185 b 420 1106 462 1160 440 1134 b 364 1021 400 1079 381 1051 b 281 834 329 962 301 900 b 258 732 271 801 264 767 b 291 521 247 660 259 587 b 318 475 299 505 308 490 b 324 468 320 473 322 470 b 326 465 325 467 326 466 l 330 459 b 333 455 331 458 332 457 b 335 454 334 455 334 454 b 405 408 353 431 377 415 b 459 402 423 403 441 401 b 559 430 492 404 525 413 b 643 488 590 446 618 465 b 678 523 655 499 667 510 b 710 561 689 535 700 548 b 728 586 716 569 722 578 b 721 567 726 580 723 573 b 651 387 698 508 675 447 b 579 211 629 331 605 270 b 496 41 550 143 523 89 b 446 -37 481 14 464 -12 b 387 -108 428 -62 408 -86 b 316 -167 365 -130 342 -150 b 296 -180 310 -171 303 -176 b 271 -179 287 -180 279 -179 b 176 -164 239 -177 207 -172 b 131 -149 161 -160 146 -155 b 88 -130 116 -144 102 -137 b 12 -75 60 -115 35 -97 b -18 -40 1 -64 -9 -53 b -72 86 -46 -3 -65 40 b -74 180 -77 117 -77 149 b -66 221 -73 193 -70 207 b -36 245 -57 229 -47 237 b 4 269 -23 254 -10 262 b 25 279 10 272 17 276 b 47 287 32 282 40 285 b 69 294 54 290 62 292 b 92 298 76 295 84 297 b 138 301 107 300 123 301 b 228 282 169 301 200 294 b 300 227 256 270 281 252 b 321 188 309 215 316 202 b 330 148 326 175 329 162 l 330 148 b 330 148 330 148 330 148 b 331 146 330 148 330 147 b 341 136 331 141 335 136 b 353 153 348 135 352 146 l 353 153 b 353 155 353 154 353 154 b 355 168 354 159 355 163 b 356 194 356 177 356 185 b 323 292 355 229 344 263 b 288 331 313 306 301 319 b 197 379 261 353 231 369 b 95 391 164 389 129 393 b -7 362 59 389 24 379 b -50 329 -23 353 -37 342 b -84 286 -63 316 -74 302 b -111 214 -97 264 -106 239 b -125 198 -116 208 -121 203 b -194 11 -168 145 -193 79 b -179 -90 -195 -23 -190 -57 b -47 -240 -157 -156 -109 -210 b 50 -269 -16 -255 16 -265 b 150 -269 83 -274 117 -274 b 248 -247 184 -265 216 -257 b 272 -239 255 -245 263 -242 l 284 -234 l 287 -233 b 295 -229 290 -232 293 -231 b 340 -208 310 -223 325 -216 b 371 -203 351 -207 361 -205 b 567 -175 434 -194 501 -183 b 665 -167 605 -171 636 -168 b 684 -166 671 -166 678 -166 b 684 -167 684 -166 684 -167 b 690 -194 685 -176 687 -185 b 704 -219 693 -203 698 -212 b 725 -238 710 -227 717 -233 b 750 -250 733 -243 741 -247 b 778 -254 759 -252 768 -254 b 806 -247 788 -253 797 -251 b 828 -225 816 -242 824 -234 b 833 -209 831 -220 832 -215 b 833 -194 834 -204 833 -199 b 827 -178 832 -188 830 -183 b 817 -166 824 -174 821 -169 b 791 -153 809 -160 800 -155 b 765 -146 783 -150 774 -148 b 714 -142 748 -143 731 -142 l 713 -142 b 715 -135 714 -139 714 -137 b 720 -127 717 -132 718 -130 b 735 -114 725 -122 730 -118 b 777 -100 748 -107 762 -102 b 871 -99 803 -95 833 -95 b 967 -117 903 -103 935 -109 b 1060 -146 998 -125 1029 -135 b 1088 -156 1069 -149 1078 -152 b 1106 -163 1094 -158 1100 -160 b 1153 -180 1121 -168 1137 -174 b 1344 -238 1221 -203 1283 -222 b 1542 -271 1420 -257 1483 -267 b 1593 -271 1560 -272 1577 -272 b 1644 -266 1610 -271 1627 -269 b 1694 -251 1661 -263 1678 -257 b 1738 -221 1710 -244 1725 -234 b 1738 -208 1741 -218 1741 -212 z m -47 269 b 12 331 -33 294 -13 316 b 97 363 38 348 67 359 b 191 357 129 367 161 365 b 275 315 222 349 250 334 b 328 239 299 295 318 269 b 335 213 331 231 333 222 b 318 241 330 223 324 232 b 237 303 297 268 269 290 b 139 323 206 316 173 323 b 133 323 137 323 135 323 b 40 309 101 323 70 319 b -7 291 24 305 8 298 b -48 267 -21 284 -35 276 z m 235 -210 b 145 -237 206 -222 176 -231 b 53 -242 115 -243 84 -245 b -34 -216 23 -239 -7 -230 b -104 -158 -61 -202 -85 -182 b -162 10 -142 -111 -163 -51 b -147 100 -162 41 -157 72 b -118 161 -140 122 -130 142 b -113 80 -119 133 -117 106 b -79 -20 -107 45 -96 11 b -51 -65 -71 -36 -61 -51 b -15 -104 -40 -79 -28 -92 b 71 -163 11 -128 40 -148 b 168 -198 102 -179 134 -191 b 237 -209 191 -204 213 -207 b 235 -210 236 -210 235 -210 z m 714 -166 l 714 -161 l 714 -166 b 762 -169 730 -166 746 -167 b 784 -174 769 -170 777 -172 b 803 -184 791 -176 797 -179 b 811 -197 807 -187 810 -192 b 809 -215 812 -203 811 -210 b 797 -228 806 -221 802 -225 b 777 -233 791 -231 784 -232 b 723 -205 756 -234 735 -223 b 718 -196 721 -202 720 -199 b 715 -186 717 -193 716 -190 l 715 -186 b 711 -165 713 -179 712 -172 b 714 -166 712 -165 713 -166 z "},"H":{"ha":1922,"x_min":0,"x_max":0,"o":"m 2586 -263 l 2585 -260 l 2585 -260 b 2570 -228 2583 -248 2578 -237 b 2545 -204 2563 -219 2554 -211 b 2486 -171 2527 -190 2507 -180 b 2424 -150 2466 -163 2445 -156 b 2360 -136 2404 -145 2383 -140 b 2230 -120 2317 -128 2273 -123 b 2100 -119 2187 -118 2143 -118 b 1970 -130 2057 -121 2013 -124 b 1841 -152 1932 -134 1892 -141 b 1659 -196 1780 -165 1718 -181 b 1590 -214 1636 -202 1613 -208 b 1464 -243 1550 -223 1507 -234 b 1339 -266 1416 -254 1376 -261 b 1214 -270 1289 -272 1249 -274 b 1155 -259 1194 -269 1175 -265 b 1129 -249 1146 -257 1137 -253 l 1128 -249 b 1107 -235 1121 -245 1114 -240 b 1102 -228 1105 -233 1103 -230 b 1110 -226 1105 -227 1107 -226 b 1236 -188 1153 -216 1194 -203 b 1296 -163 1257 -180 1277 -172 b 1355 -132 1317 -154 1336 -144 b 1383 -112 1365 -126 1374 -120 b 1396 -100 1388 -109 1392 -105 b 1408 -84 1401 -95 1405 -90 b 1410 -78 1409 -82 1410 -80 b 1412 -73 1411 -76 1411 -75 b 1413 -61 1413 -69 1413 -65 b 1410 -48 1413 -57 1412 -52 b 1401 -36 1408 -43 1405 -39 l 1400 -36 b 1379 -28 1394 -32 1387 -29 b 1360 -27 1373 -27 1367 -27 b 1326 -31 1349 -27 1337 -29 b 1293 -40 1316 -33 1306 -36 b 1262 -50 1283 -43 1272 -46 b 1231 -62 1251 -54 1241 -58 b 1171 -91 1210 -71 1190 -80 b 1114 -127 1151 -101 1132 -114 b 1087 -151 1104 -135 1096 -142 b 1065 -182 1078 -160 1071 -170 b 1057 -201 1061 -188 1059 -195 b 1055 -208 1056 -203 1056 -206 b 850 -230 988 -221 919 -228 b 736 -226 812 -230 774 -229 b 778 -202 750 -218 764 -210 b 955 -53 837 -165 895 -116 b 1032 35 981 -25 1007 4 b 1101 127 1056 65 1080 96 b 1134 175 1111 141 1122 157 b 1165 224 1145 192 1155 208 b 1223 324 1185 257 1205 290 b 1275 426 1241 357 1258 392 b 1322 531 1291 461 1307 496 b 1358 619 1335 560 1347 590 b 1394 617 1372 618 1383 617 b 1493 617 1427 615 1460 615 b 1687 649 1559 620 1624 631 b 1714 658 1696 652 1705 655 b 1711 650 1713 655 1712 653 b 1676 560 1697 615 1686 587 b 1644 468 1665 530 1655 498 b 1613 379 1634 439 1624 408 b 1579 290 1601 346 1589 314 b 1542 203 1566 257 1554 229 b 1523 162 1536 189 1529 175 b 1512 142 1519 155 1516 148 b 1501 122 1509 136 1505 130 b 1477 89 1494 111 1486 99 b 1474 86 1476 88 1475 87 b 1465 83 1471 85 1468 84 b 1439 75 1456 81 1447 79 b 1430 72 1436 74 1433 73 b 1426 71 1429 72 1427 71 l 1419 68 b 1418 67 1419 67 1418 67 l 1417 67 b 1415 66 1417 66 1416 66 b 1409 62 1413 65 1411 63 b 1402 55 1407 60 1404 57 b 1395 38 1398 50 1396 44 b 1395 26 1394 34 1394 30 b 1400 14 1396 22 1398 18 b 1408 5 1402 11 1405 8 b 1414 2 1410 4 1412 3 b 1426 -1 1418 0 1422 -1 l 1431 -2 b 1435 -2 1433 -2 1434 -2 b 1443 -1 1438 -1 1441 -1 b 1476 6 1454 0 1465 2 b 1527 39 1495 14 1512 25 b 1534 46 1530 41 1532 43 b 1563 43 1544 46 1554 45 b 1647 20 1591 40 1618 30 l 1654 17 b 1701 4 1669 12 1684 7 b 1730 5 1711 3 1720 3 l 1730 5 b 1756 21 1740 8 1749 14 b 1755 36 1759 25 1759 32 b 1740 36 1751 40 1744 40 b 1725 28 1736 32 1731 29 b 1706 29 1719 27 1712 27 b 1665 45 1692 32 1679 38 l 1664 45 b 1654 50 1660 47 1657 48 b 1619 66 1643 55 1631 61 b 1571 82 1604 72 1587 78 b 1567 83 1570 82 1568 83 b 1618 165 1587 110 1604 139 b 1697 325 1647 218 1672 273 l 1704 341 b 1727 391 1712 358 1720 375 b 1784 517 1746 432 1766 475 b 1820 607 1795 543 1807 572 l 1855 696 b 1867 726 1859 706 1863 716 b 2024 844 1924 759 1977 798 b 2145 997 2071 889 2112 941 b 2210 1183 2181 1059 2203 1122 b 2212 1208 2211 1191 2212 1200 b 2210 1235 2212 1217 2211 1226 b 2198 1263 2208 1245 2204 1255 b 2166 1280 2190 1273 2178 1280 b 2136 1274 2155 1280 2145 1278 b 2112 1262 2127 1271 2119 1267 b 2090 1249 2104 1258 2096 1253 l 2069 1234 l 2054 1223 l 2039 1211 l 2029 1202 b 2019 1194 2026 1200 2022 1196 l 2017 1191 b 2010 1185 2014 1189 2012 1187 b 2006 1181 2009 1184 2007 1182 b 1992 1167 2001 1177 1996 1172 b 1929 1088 1969 1143 1948 1116 b 1748 740 1865 992 1809 885 b 1733 705 1743 728 1738 716 b 1676 688 1715 698 1695 693 b 1630 677 1663 684 1647 680 b 1584 669 1617 674 1603 672 b 1491 661 1553 665 1522 662 b 1397 661 1460 659 1428 660 b 1375 663 1390 662 1383 662 b 1404 743 1385 690 1395 717 b 1418 785 1409 757 1414 771 b 1478 954 1437 841 1457 898 b 1520 1058 1493 995 1507 1027 b 1571 1155 1535 1091 1552 1124 b 1595 1190 1578 1167 1586 1178 b 1630 1181 1608 1186 1619 1184 b 1657 1173 1639 1178 1648 1176 b 1687 1167 1667 1170 1677 1168 b 1704 1169 1693 1167 1699 1167 b 1723 1177 1711 1170 1717 1173 b 1734 1195 1728 1182 1732 1188 b 1735 1215 1736 1202 1736 1208 b 1720 1246 1733 1226 1728 1237 b 1691 1266 1713 1255 1703 1262 b 1673 1268 1686 1268 1679 1269 l 1672 1268 b 1658 1268 1667 1269 1663 1268 b 1626 1259 1647 1267 1636 1264 b 1576 1224 1605 1250 1588 1235 b 1571 1220 1574 1223 1573 1221 b 1525 1229 1556 1223 1540 1226 b 1299 1256 1450 1243 1375 1252 b 1072 1250 1223 1260 1147 1258 b 849 1193 987 1239 915 1221 b 748 1136 813 1178 779 1159 b 662 1058 716 1114 687 1088 b 624 1053 649 1058 637 1056 b 568 1035 605 1049 586 1043 b 542 1022 560 1032 552 1027 b 517 1007 534 1018 525 1012 b 473 968 501 995 486 982 b 438 920 460 953 448 937 b 412 868 428 904 419 886 b 380 756 397 832 386 794 b 376 727 378 746 377 737 b 373 698 374 717 373 707 b 370 640 371 676 370 657 b 378 525 370 601 373 563 b 388 468 381 506 384 487 b 401 411 392 447 396 429 b 437 302 411 374 423 338 b 490 198 452 266 469 231 b 524 150 500 182 511 166 b 543 128 530 143 536 135 b 565 108 550 121 558 114 b 616 76 580 95 597 84 b 645 66 625 72 635 68 b 675 63 655 64 665 63 b 686 73 681 63 686 67 b 676 84 686 79 681 83 b 651 88 667 84 659 86 b 627 98 642 91 634 94 b 585 130 611 107 597 117 b 567 150 579 136 573 142 b 550 171 561 157 555 164 b 521 217 539 185 529 201 b 475 316 503 249 488 282 b 443 422 462 351 452 386 b 414 641 426 494 416 567 b 418 751 413 677 415 714 b 441 857 422 787 429 823 b 462 907 446 874 454 891 b 491 952 470 923 480 938 b 530 989 503 966 516 979 b 552 1004 537 995 545 1000 b 577 1016 560 1008 568 1013 b 628 1033 593 1024 611 1029 b 645 1035 634 1034 639 1035 b 598 957 626 1011 611 984 b 560 845 581 921 569 883 b 546 729 552 807 547 768 b 546 671 545 708 545 689 b 552 612 546 651 549 631 l 554 605 l 555 597 b 559 583 556 592 557 587 b 568 554 561 574 564 565 b 595 500 575 535 584 517 b 636 455 606 483 620 468 b 662 438 645 449 653 443 b 691 428 672 434 681 430 b 721 423 701 425 711 424 b 752 426 732 423 742 424 b 806 456 772 431 791 441 b 826 478 813 462 820 470 b 843 503 832 486 838 494 b 867 558 853 520 861 539 b 881 615 873 576 877 596 b 885 644 882 624 884 634 b 887 673 886 653 886 663 b 888 703 887 682 888 692 b 887 732 887 714 887 723 b 882 790 886 751 884 771 b 871 847 879 809 876 828 b 864 876 869 856 867 865 b 854 904 861 884 858 894 b 828 958 847 922 839 940 b 792 1006 818 975 806 991 b 742 1041 777 1020 760 1032 b 713 1052 733 1046 723 1049 b 712 1052 713 1052 712 1052 b 770 1106 730 1072 749 1090 b 863 1162 799 1128 830 1147 b 1075 1224 924 1192 996 1212 b 1298 1233 1149 1234 1224 1237 b 1521 1206 1373 1229 1447 1220 b 1551 1199 1530 1204 1541 1202 b 1535 1181 1546 1194 1541 1187 b 1500 1135 1524 1167 1513 1153 b 1467 1087 1487 1117 1475 1100 b 1406 989 1447 1058 1427 1025 b 1300 785 1368 923 1332 854 b 1219 600 1272 723 1245 661 l 1164 477 b 1119 376 1149 443 1134 409 b 1072 275 1103 342 1088 308 b 1047 225 1064 258 1056 241 b 1022 176 1039 208 1030 190 b 908 -13 983 100 947 40 b 757 -171 860 -80 811 -132 b 677 -219 732 -190 705 -206 b 597 -204 650 -215 623 -210 b 363 -109 512 -184 433 -152 b 163 47 285 -62 218 -9 b 82 144 133 77 106 109 b 21 254 57 178 37 215 b -13 375 4 293 -7 333 b -15 394 -14 381 -15 388 b -15 417 -15 402 -15 410 b -2 525 -15 454 -11 490 b 38 623 7 563 20 596 b 54 644 43 630 49 637 b 73 663 60 651 66 657 b 116 690 86 674 101 683 l 118 690 l 119 690 b 125 702 123 692 126 697 b 114 710 124 707 119 711 b 79 701 102 709 90 706 b 50 681 69 695 59 689 b 20 649 39 671 29 660 b 14 641 17 646 15 643 b -18 590 1 625 -9 608 b -39 535 -26 572 -33 554 b -58 419 -49 497 -56 458 b -54 302 -60 380 -58 341 b 9 79 -44 222 -22 147 b 68 -22 26 44 46 10 b 143 -110 90 -53 115 -83 b 232 -184 170 -138 200 -162 b 333 -239 264 -205 298 -224 b 444 -274 369 -255 406 -266 b 560 -280 482 -281 521 -283 b 674 -254 599 -276 637 -267 b 681 -251 676 -253 679 -252 b 851 -260 737 -258 794 -261 b 1057 -237 920 -258 989 -250 b 1063 -249 1059 -241 1060 -245 b 1077 -267 1066 -256 1071 -262 b 1109 -289 1086 -276 1097 -283 b 1143 -302 1120 -294 1131 -298 b 1211 -313 1165 -308 1188 -312 b 1240 -314 1221 -314 1230 -314 b 1344 -305 1275 -314 1310 -311 b 1473 -278 1382 -299 1422 -291 b 1598 -243 1516 -267 1558 -255 l 1660 -225 l 1722 -207 b 1847 -175 1766 -195 1807 -185 b 1973 -152 1891 -165 1933 -157 b 2101 -140 2016 -146 2059 -142 b 2229 -141 2143 -138 2186 -139 b 2356 -156 2272 -143 2314 -148 b 2478 -191 2404 -165 2443 -176 b 2532 -221 2497 -199 2515 -209 b 2552 -242 2539 -227 2546 -234 b 2563 -265 2558 -249 2561 -257 l 2563 -267 l 2563 -268 b 2577 -276 2565 -274 2571 -277 b 2586 -263 2583 -274 2587 -269 z m 1384 -62 b 1384 -66 1384 -63 1384 -65 b 1383 -69 1384 -67 1383 -68 b 1382 -71 1383 -70 1383 -70 b 1375 -81 1381 -74 1378 -78 b 1365 -90 1372 -84 1369 -87 b 1340 -108 1357 -97 1349 -103 b 1285 -137 1322 -119 1304 -129 b 1226 -161 1266 -146 1247 -154 b 1107 -197 1187 -175 1147 -187 b 1110 -191 1108 -195 1109 -193 b 1119 -180 1113 -187 1116 -184 b 1140 -159 1126 -173 1132 -166 b 1189 -123 1155 -146 1172 -134 b 1244 -92 1207 -111 1225 -101 b 1273 -79 1254 -87 1263 -83 b 1302 -69 1283 -75 1293 -72 b 1332 -60 1312 -65 1322 -62 b 1362 -56 1342 -58 1352 -56 b 1365 -56 1363 -56 1364 -56 b 1375 -56 1369 -56 1372 -56 l 1375 -56 b 1384 -59 1378 -57 1381 -58 b 1385 -62 1384 -60 1385 -61 z m 2183 1186 b 2175 1140 2181 1170 2179 1155 b 2162 1095 2172 1125 2167 1110 b 2123 1010 2152 1066 2139 1037 b 2005 864 2091 956 2051 907 b 1931 805 1981 843 1957 823 b 1892 779 1918 796 1905 787 b 1887 776 1890 778 1889 777 b 1927 872 1900 808 1914 840 b 2006 1042 1957 941 1981 994 b 2051 1123 2023 1073 2037 1099 b 2100 1201 2065 1149 2081 1176 l 2108 1210 b 2111 1214 2109 1211 2110 1212 l 2112 1214 b 2115 1218 2113 1215 2114 1217 b 2132 1233 2121 1223 2126 1228 b 2149 1244 2137 1237 2143 1241 b 2166 1249 2154 1247 2160 1249 b 2174 1245 2169 1249 2172 1248 b 2181 1229 2178 1240 2180 1235 b 2183 1186 2184 1215 2184 1200 z m 1683 1241 b 1710 1210 1696 1237 1707 1224 b 1706 1196 1711 1204 1710 1199 b 1689 1192 1703 1193 1696 1192 b 1664 1197 1680 1192 1672 1194 l 1663 1197 b 1636 1204 1654 1199 1645 1202 b 1612 1210 1629 1206 1621 1208 b 1640 1233 1620 1219 1630 1226 b 1662 1241 1647 1237 1654 1240 b 1674 1243 1666 1242 1670 1242 b 1683 1241 1677 1243 1680 1242 z m 52 98 b 20 185 40 127 29 156 b 56 126 31 165 43 145 b 140 25 81 90 109 56 b 239 -62 171 -7 204 -36 b 347 -137 273 -89 309 -114 b 590 -235 420 -181 502 -214 b 618 -241 599 -237 609 -239 b 557 -252 598 -246 578 -250 b 449 -248 521 -255 485 -254 b 344 -216 413 -241 377 -230 b 248 -161 310 -201 278 -183 b 167 -87 219 -140 192 -115 b 52 98 122 -36 83 27 z m 796 940 b 815 890 804 924 810 908 b 828 838 821 873 825 856 b 837 784 832 821 835 803 b 842 729 839 767 841 749 b 844 674 843 712 844 694 b 835 566 844 642 843 603 b 818 515 831 549 826 532 b 806 492 815 507 811 500 b 790 472 801 485 796 478 b 747 446 778 459 763 451 b 722 444 739 444 731 443 b 697 448 714 444 705 446 b 653 474 681 454 666 462 b 624 516 641 487 631 501 b 606 566 616 532 610 549 b 601 592 603 576 602 584 b 600 598 600 594 600 596 b 598 605 599 600 599 602 l 598 612 l 597 618 b 593 672 595 635 594 654 b 593 727 593 691 593 709 b 606 835 595 763 599 800 b 638 938 613 871 624 905 b 663 986 645 955 654 971 b 693 1030 672 1001 682 1016 b 695 1032 694 1031 694 1032 b 706 1029 699 1031 702 1030 b 729 1018 714 1026 722 1022 b 768 984 744 1009 757 998 b 796 940 779 971 789 956 z "},"I":{"ha":1049,"x_min":0,"x_max":0,"o":"m 1557 -109 l 1545 -102 l 1545 -103 b 1511 -95 1534 -99 1523 -96 b 1466 -94 1496 -93 1481 -93 b 1380 -105 1437 -96 1409 -100 b 1226 -139 1328 -115 1276 -127 l 1215 -142 b 887 -209 1111 -166 1000 -192 b 804 -219 855 -214 829 -217 b 721 -222 776 -221 748 -222 b 476 -180 638 -221 555 -207 b 399 -149 450 -171 424 -161 b 258 -62 349 -126 302 -97 b 142 55 215 -28 176 11 b 63 199 109 99 82 148 b 26 360 43 251 31 305 b 46 606 18 442 25 526 b 72 684 53 632 61 659 b 154 826 92 735 120 783 b 279 931 191 871 233 906 b 354 960 303 944 328 953 b 435 966 381 966 408 968 b 450 965 440 966 445 965 b 432 907 442 946 436 927 b 423 853 427 890 424 872 b 423 825 423 844 423 835 l 424 819 l 424 811 l 425 810 b 426 798 425 806 426 802 b 433 770 428 788 430 779 b 443 744 436 761 439 752 b 472 696 450 727 460 711 l 473 696 b 477 691 474 694 475 692 b 482 686 479 689 480 687 b 492 676 485 682 488 679 b 515 661 499 671 507 665 b 568 647 531 651 550 647 b 620 661 587 648 604 653 b 663 691 636 669 650 679 b 675 702 667 695 671 698 b 678 682 676 696 677 689 b 684 599 682 654 684 627 b 684 560 684 586 684 573 b 678 565 682 562 680 564 b 640 590 666 575 653 583 b 598 604 626 596 612 601 b 554 611 583 608 569 610 b 510 611 540 612 525 612 b 489 608 503 610 496 609 b 467 604 481 607 474 605 b 425 591 453 601 439 596 b 279 488 369 569 318 534 b 252 451 269 476 260 464 b 229 411 243 438 236 425 b 212 368 222 397 217 383 b 205 346 209 361 207 354 l 205 345 b 203 335 204 342 203 339 b 200 324 202 331 201 327 b 199 229 194 292 194 260 b 204 205 200 221 202 213 b 212 183 207 198 209 190 b 233 140 218 168 225 154 b 299 75 250 114 273 91 b 387 50 326 58 356 50 b 431 57 402 51 417 53 b 472 75 445 62 459 67 b 540 128 497 89 520 107 b 568 160 549 138 558 148 b 594 194 577 171 586 183 b 637 268 610 218 625 242 b 689 430 661 320 678 374 b 699 499 693 453 696 476 b 705 483 701 494 703 488 b 719 402 714 457 719 430 b 717 320 721 375 720 347 b 687 157 711 264 699 208 b 671 112 681 142 676 127 l 652 60 b 650 53 651 58 651 55 b 649 38 649 48 648 43 b 653 20 649 32 651 26 b 655 15 654 19 654 17 l 655 14 b 683 -6 663 1 673 -6 b 733 55 692 -6 705 1 l 789 167 b 876 344 818 226 848 285 b 1043 702 927 448 980 562 l 1049 713 l 1063 747 l 1082 792 b 1108 850 1091 811 1100 831 b 1122 881 1113 860 1118 871 b 1164 970 1136 911 1150 940 b 1208 1056 1180 1003 1194 1031 b 1257 1139 1225 1088 1241 1115 b 1285 1177 1267 1153 1276 1166 b 1300 1195 1291 1184 1296 1190 b 1316 1211 1305 1201 1311 1206 b 1321 1215 1318 1212 1319 1214 b 1324 1218 1322 1216 1323 1217 b 1325 1219 1324 1218 1324 1219 l 1326 1220 b 1334 1227 1329 1223 1331 1225 b 1352 1241 1339 1232 1346 1237 b 1361 1245 1355 1242 1358 1244 b 1371 1247 1364 1246 1368 1246 b 1378 1248 1373 1247 1376 1248 b 1382 1250 1379 1249 1381 1249 b 1385 1251 1383 1250 1384 1251 b 1387 1253 1386 1252 1386 1252 b 1392 1259 1389 1254 1391 1257 l 1392 1260 b 1384 1275 1394 1266 1390 1273 b 1380 1276 1383 1276 1381 1276 b 1376 1276 1379 1277 1377 1277 b 1372 1276 1375 1276 1373 1276 b 1364 1274 1369 1275 1367 1275 b 1350 1269 1359 1273 1355 1271 b 1343 1268 1348 1269 1345 1269 b 1320 1269 1336 1268 1328 1268 b 1272 1274 1304 1269 1288 1271 b 1225 1283 1258 1276 1242 1279 l 1201 1289 b 1185 1293 1195 1291 1190 1292 b 1176 1295 1182 1294 1179 1294 b 1161 1298 1171 1296 1166 1297 b 1152 1300 1158 1299 1155 1299 b 1136 1302 1147 1301 1141 1302 b 1127 1304 1133 1303 1130 1303 b 1112 1306 1122 1305 1117 1305 b 1103 1307 1109 1307 1106 1307 l 1078 1310 l 1078 1310 b 1067 1311 1074 1310 1070 1311 b 1053 1312 1062 1311 1057 1312 l 1034 1313 l 1028 1313 b 1021 1313 1025 1313 1023 1313 b 1003 1313 1015 1313 1009 1314 l 990 1313 l 978 1313 b 877 1302 944 1312 910 1308 l 865 1300 b 856 1298 862 1299 859 1299 b 852 1297 855 1298 854 1298 b 848 1296 851 1297 849 1297 b 840 1294 845 1296 842 1295 l 827 1291 b 811 1287 822 1290 817 1288 b 803 1284 808 1286 806 1285 l 803 1284 b 796 1282 800 1283 798 1283 b 778 1276 790 1280 784 1278 b 684 1233 746 1264 714 1250 b 599 1173 654 1215 625 1195 b 593 1168 597 1171 595 1170 b 579 1156 588 1164 584 1160 b 575 1152 578 1154 576 1153 b 560 1138 570 1147 565 1143 b 525 1098 548 1125 536 1112 b 469 1008 504 1070 484 1040 b 458 984 465 1000 461 992 b 436 987 451 986 444 986 b 350 982 407 989 378 987 b 307 971 335 979 321 975 l 297 967 b 292 966 295 967 294 966 b 287 964 290 965 289 964 b 280 961 284 963 282 962 b 277 960 279 961 278 960 b 266 956 273 958 269 957 b 227 936 253 950 239 943 b 189 912 213 928 201 921 b 154 885 177 904 165 895 b 121 854 142 875 131 865 b 23 704 79 811 46 760 b -5 619 12 676 2 648 b -30 444 -20 562 -29 503 b -30 399 -30 428 -30 413 b -26 355 -29 382 -28 368 b -20 310 -24 340 -22 325 b -10 267 -17 295 -13 281 b 3 224 -5 251 -1 237 l 4 223 b 11 203 6 216 8 209 l 15 193 l 20 182 b 113 33 44 128 75 78 b 242 -83 151 -11 194 -50 b 390 -169 288 -117 338 -146 b 429 -185 406 -176 418 -181 b 446 -192 435 -188 441 -190 l 449 -193 b 467 -199 455 -195 461 -197 l 470 -200 b 552 -222 497 -209 524 -216 b 720 -243 607 -235 664 -242 b 748 -244 730 -244 739 -244 b 806 -242 767 -244 787 -243 b 890 -233 831 -240 859 -238 b 1222 -171 1005 -218 1117 -194 l 1304 -153 b 1386 -137 1328 -148 1357 -142 b 1468 -126 1413 -132 1440 -128 b 1507 -126 1481 -125 1494 -125 b 1541 -136 1521 -128 1532 -131 l 1541 -136 b 1562 -131 1548 -141 1558 -138 b 1557 -109 1567 -123 1564 -114 z m 314 96 b 286 123 304 104 294 113 b 265 157 278 133 271 145 b 251 194 259 169 254 181 b 243 234 247 207 245 220 b 247 315 240 261 242 288 b 312 464 258 368 280 419 b 435 567 345 509 388 545 b 513 589 460 579 486 586 b 533 590 519 590 526 590 b 539 590 535 590 537 590 b 553 590 544 590 548 590 b 593 584 566 589 580 587 b 663 548 620 577 645 565 b 682 527 670 542 676 535 b 670 434 680 496 676 465 l 670 434 b 620 276 660 379 643 326 b 579 205 608 251 595 227 b 554 172 571 194 563 183 b 526 141 544 161 535 151 b 462 92 507 122 486 105 b 425 77 450 86 438 81 b 387 72 413 73 400 72 b 314 96 361 72 335 80 z m 1303 1246 b 1299 1244 1301 1246 1300 1245 b 1293 1241 1297 1243 1295 1242 b 1214 1171 1263 1221 1238 1197 b 1146 1094 1193 1150 1172 1125 b 1085 1012 1125 1067 1104 1040 b 1056 970 1075 998 1065 984 l 1048 960 l 1028 928 b 977 840 1010 899 993 870 b 957 803 970 828 963 815 l 956 801 l 956 804 l 931 751 b 774 390 866 611 816 496 b 745 315 764 365 755 340 l 745 317 b 746 404 748 346 748 375 b 728 490 744 433 738 462 b 702 539 722 508 713 524 b 703 599 703 559 704 579 b 697 684 703 628 701 656 b 691 722 696 697 694 710 b 722 774 704 738 714 755 b 737 823 729 789 734 806 b 735 875 739 840 739 858 b 725 882 734 880 729 883 b 717 872 720 882 717 877 l 717 871 b 718 826 720 856 721 841 b 704 781 715 811 711 796 b 686 748 699 770 693 759 b 680 768 684 755 682 762 b 673 789 678 775 676 782 b 671 795 673 791 672 793 b 670 799 670 797 670 798 b 665 809 668 803 667 806 b 646 848 660 822 653 835 b 593 916 632 873 614 896 b 521 965 572 937 548 953 b 507 971 516 968 512 970 b 564 1066 522 1005 541 1037 l 564 1067 b 884 1274 647 1171 760 1244 b 979 1289 915 1282 947 1287 b 1076 1289 1011 1291 1044 1291 b 1172 1275 1108 1286 1140 1282 b 1181 1273 1175 1274 1178 1274 b 1196 1269 1186 1272 1191 1271 b 1206 1267 1199 1269 1203 1268 b 1219 1263 1210 1266 1215 1265 b 1268 1252 1236 1259 1252 1255 b 1304 1247 1280 1250 1292 1248 b 1303 1246 1303 1247 1303 1246 z m 472 845 l 472 848 b 480 896 474 864 477 880 b 499 952 485 915 491 934 b 513 947 503 951 508 949 b 579 902 537 936 560 920 b 629 838 599 883 615 861 b 647 801 635 826 641 813 b 651 792 648 798 649 795 b 652 788 651 790 651 789 b 654 782 653 786 653 784 b 661 762 657 776 659 770 b 670 728 664 751 667 740 b 649 707 663 720 656 713 b 610 681 637 697 624 688 b 568 671 597 675 583 671 b 527 682 554 670 539 674 b 497 713 515 690 504 700 b 478 755 488 726 482 740 b 471 801 474 770 472 785 b 472 845 470 815 470 830 z "}}}
